{"glyphs":{"0":{"ha":776,"x_min":75,"x_max":697,"o":"m 432 50 q 288 3 356 -1 q 171 58 219 8 q 101 190 122 108 q 88 282 92 235 q 75 393 83 329 q 106 528 90 454 q 150 675 121 603 q 262 810 186 768 q 432 858 338 853 q 485 851 457 861 q 533 825 514 840 q 646 708 608 767 q 690 580 683 650 q 678 417 697 510 q 432 50 628 183 m 382 118 q 460 194 424 153 q 529 279 497 236 q 601 449 586 358 q 593 633 617 539 q 535 736 579 696 q 436 779 492 776 q 442 735 438 760 q 440 697 447 710 q 397 694 433 683 q 309 692 340 711 q 254 633 278 674 q 183 399 185 519 q 217 157 182 278 q 281 86 235 97 q 382 118 328 75 z "},"1":{"ha":621,"x_min":72,"x_max":511,"o":"m 428 -117 q 412 -90 421 -103 q 403 -64 403 -76 q 407 353 404 144 q 411 771 410 561 q 407 822 411 796 l 407 833 q 308 737 363 786 q 206 643 254 688 q 162 622 189 628 q 111 617 135 615 q 76 642 81 619 q 94 686 72 665 q 239 816 167 751 q 386 943 311 881 q 448 963 419 971 q 492 913 476 954 q 507 847 503 882 q 510 778 511 813 q 496 415 504 597 q 478 47 488 232 q 477 -10 476 18 q 471 -67 478 -39 q 454 -92 469 -82 q 428 -117 439 -103 z "},"2":{"ha":681,"x_min":65,"x_max":647,"o":"m 268 3 q 228 3 250 1 q 185 8 206 6 q 110 30 147 15 q 69 86 74 44 q 87 140 65 111 q 126 194 108 169 q 217 320 175 263 q 299 436 258 378 q 386 563 340 494 q 446 669 421 613 q 492 783 471 725 q 489 888 517 854 q 388 918 461 922 q 278 899 332 913 q 178 850 225 886 q 131 831 154 829 q 90 860 108 832 q 82 896 76 883 q 103 915 88 908 q 131 929 118 922 q 256 983 192 963 q 390 1001 319 1003 q 524 963 472 1000 q 588 865 575 926 q 568 729 601 804 q 501 592 538 660 q 421 460 465 524 q 351 358 385 404 q 283 265 317 311 q 207 164 249 218 q 181 135 190 144 q 169 115 171 125 q 169 86 167 106 q 255 85 211 86 q 339 85 299 83 q 445 88 392 86 q 550 92 499 89 q 631 83 615 96 q 625 36 647 69 q 592 26 599 28 q 572 24 586 25 q 268 3 421 11 z "},"3":{"ha":628,"x_min":54,"x_max":596,"o":"m 146 -112 q 97 -123 124 -122 q 56 -89 69 -124 q 61 -68 54 -82 q 74 -53 68 -54 q 269 31 188 -35 q 414 188 351 97 q 457 265 438 222 q 486 350 476 307 q 465 440 497 406 q 376 476 432 474 q 253 456 314 476 q 179 483 201 440 q 171 526 165 508 q 197 563 176 543 q 336 701 268 631 q 472 840 404 771 q 482 853 478 844 q 496 881 486 861 q 402 869 446 875 q 318 858 358 864 q 251 847 283 853 q 186 835 218 840 q 138 846 153 829 q 122 889 124 863 q 129 914 121 908 q 151 919 138 919 q 175 921 164 919 q 252 933 213 925 q 331 944 292 942 q 419 948 374 947 q 510 944 465 949 q 581 905 565 938 q 567 825 596 872 q 499 743 536 782 q 428 664 463 704 q 379 622 406 642 q 326 583 353 603 q 333 574 331 579 q 340 563 336 568 q 385 551 364 557 q 428 538 406 544 q 494 502 464 531 q 545 433 525 474 q 570 349 565 393 q 558 264 575 304 q 397 28 499 125 q 146 -112 294 -68 z "},"4":{"ha":808,"x_min":40,"x_max":767,"o":"m 465 -114 q 425 -37 438 -81 q 408 56 413 7 q 398 155 403 104 q 379 254 393 206 q 324 235 351 244 q 269 219 297 225 q 197 206 233 213 q 126 208 160 200 q 64 254 92 217 q 46 296 51 271 q 43 342 40 321 q 125 605 64 482 q 267 840 186 728 q 338 935 301 889 q 414 1028 375 982 q 467 1056 442 1061 q 528 1000 493 1051 l 467 936 l 467 349 q 561 368 517 358 q 649 383 606 378 q 693 387 671 386 q 738 383 715 388 q 753 369 746 382 q 767 347 760 357 q 745 331 756 340 q 722 319 735 322 q 603 302 671 310 q 482 283 535 294 q 472 262 469 281 q 475 228 475 243 q 480 110 475 168 q 486 -8 485 51 q 490 -47 488 -25 q 490 -87 493 -69 q 465 -114 486 -106 m 206 274 q 294 294 250 283 q 372 332 339 306 q 383 363 383 340 q 380 411 383 385 q 376 460 376 438 l 376 840 q 366 832 371 842 q 356 824 361 822 q 254 673 303 750 q 172 513 206 596 q 126 335 138 429 q 148 278 122 289 q 206 274 174 267 z "},"5":{"ha":833,"x_min":74,"x_max":781,"o":"m 225 -90 q 160 -82 194 -96 q 93 -56 125 -68 q 76 -35 78 -50 q 81 -6 74 -21 q 100 17 88 10 q 128 14 113 24 q 183 -12 156 -3 q 247 -12 210 -22 q 357 31 307 6 q 442 107 407 57 q 522 297 503 197 q 504 504 540 397 q 465 560 490 549 q 397 557 439 571 q 309 506 346 540 q 244 426 272 472 q 210 388 229 400 q 163 393 192 376 q 134 431 135 408 q 140 485 133 454 q 175 650 161 567 q 196 818 189 733 q 208 866 199 851 q 247 889 218 881 q 462 951 354 919 q 676 1014 569 983 q 703 1020 689 1017 q 726 1018 717 1024 q 757 1001 742 1013 q 778 976 772 990 q 767 949 781 968 q 740 928 753 931 q 600 900 671 913 q 458 875 529 888 q 452 874 456 874 q 446 874 449 875 q 342 831 375 864 q 297 728 308 799 q 285 664 293 700 q 274 593 276 628 q 469 635 393 650 q 583 547 546 619 q 617 358 619 475 q 507 51 613 160 q 225 -90 401 -58 z "},"6":{"ha":711,"x_min":76,"x_max":650,"o":"m 231 74 q 140 158 176 104 q 90 276 103 211 q 92 407 76 342 q 183 660 125 539 q 338 881 240 781 q 390 906 365 908 q 432 886 414 903 q 445 850 454 868 q 415 810 436 832 q 243 565 310 697 q 182 272 176 433 q 190 233 182 253 q 204 199 199 214 q 297 297 254 249 q 388 379 339 344 q 467 408 424 406 q 552 392 511 410 q 618 339 593 374 q 638 238 650 296 q 574 132 626 181 q 403 47 497 63 q 231 74 310 31 m 260 142 q 361 129 306 122 q 464 163 417 136 q 532 233 511 190 q 542 274 540 250 q 533 311 543 299 q 500 328 525 322 q 460 326 475 333 q 410 300 433 317 q 365 264 386 283 q 313 206 339 238 q 260 142 288 175 z "},"7":{"ha":843,"x_min":68,"x_max":799,"o":"m 665 863 q 501 869 578 865 q 351 874 425 874 q 240 869 296 874 q 126 860 183 864 q 90 869 101 858 q 76 897 79 881 q 69 929 72 914 q 85 952 68 938 q 114 967 103 967 q 690 946 404 960 q 783 914 767 942 q 761 821 799 886 q 642 624 704 721 q 521 428 579 526 q 394 208 457 318 q 271 -12 332 99 q 247 -69 257 -39 q 240 -128 238 -100 q 233 -175 244 -158 q 200 -189 222 -192 q 175 -177 189 -187 q 151 -153 161 -167 q 143 -131 142 -139 q 157 -44 147 -87 q 188 35 167 -1 q 339 303 261 171 q 493 569 417 436 q 575 709 533 639 q 665 863 617 779 z "},"8":{"ha":783,"x_min":82,"x_max":681,"o":"m 328 -22 q 226 -3 274 -22 q 140 60 179 15 q 96 136 110 96 q 82 218 82 176 q 89 282 82 250 q 108 346 96 314 q 156 443 128 396 q 208 538 183 490 q 228 569 218 553 q 249 601 239 586 q 180 651 206 632 q 144 688 154 669 q 133 729 133 706 q 138 770 133 747 q 149 826 142 793 q 192 885 163 864 q 249 924 222 906 q 322 956 283 946 q 400 967 361 967 q 564 924 482 967 q 635 826 635 886 q 585 729 635 778 q 540 687 558 704 q 489 642 521 669 q 621 526 579 599 q 676 360 663 453 q 681 299 681 329 q 612 98 681 181 q 418 -12 543 15 q 373 -20 396 -18 q 328 -22 350 -22 m 339 690 q 406 708 371 690 q 463 739 442 726 q 503 777 482 751 q 524 825 524 803 q 513 851 524 842 l 472 889 q 439 900 461 900 q 376 884 411 900 q 310 844 342 868 q 257 796 278 821 q 236 751 236 771 q 249 731 236 739 q 290 703 271 717 q 339 690 310 690 m 328 63 q 460 99 399 63 q 562 195 522 135 q 606 328 601 256 q 590 406 607 364 q 546 489 574 449 q 483 558 518 529 q 415 596 449 588 q 412 597 414 596 q 407 597 410 597 q 375 586 386 597 q 281 471 326 531 q 206 344 235 411 q 176 196 176 276 q 218 98 176 133 q 328 63 260 63 z "},"9":{"ha":682,"x_min":68,"x_max":631,"o":"m 181 -61 q 145 -55 165 -65 q 110 -35 125 -44 q 117 -12 107 -32 q 135 18 126 8 q 224 117 178 69 q 306 219 271 164 q 390 376 354 294 q 460 538 425 457 q 481 605 475 569 q 488 675 486 640 q 458 787 490 739 q 374 851 426 835 q 315 851 349 860 q 250 821 281 843 q 200 765 219 799 q 158 642 165 706 q 181 508 150 578 q 226 452 199 469 q 287 428 253 435 q 358 414 321 422 q 351 360 367 371 q 306 353 335 350 q 199 387 249 360 q 116 459 149 414 q 75 561 83 504 q 70 682 68 619 q 93 799 72 744 q 167 905 121 869 q 270 946 214 940 q 382 931 326 951 q 483 867 438 910 q 567 536 631 728 q 440 246 515 385 q 253 -12 364 107 q 219 -42 239 -28 q 181 -61 200 -57 z "},"A":{"ha":908,"x_min":42,"x_max":813,"o":"m 781 -31 q 721 39 732 -26 q 697 153 711 96 q 668 267 683 210 q 657 313 661 290 q 642 358 653 336 q 446 309 546 344 q 253 249 346 274 q 217 166 239 208 q 182 82 194 124 q 151 24 168 38 q 99 15 135 10 q 68 24 78 19 q 42 40 58 29 l 85 126 q 147 272 117 203 q 204 411 178 342 q 274 603 240 506 q 342 797 307 700 q 355 832 349 814 q 369 867 361 850 q 413 913 389 907 q 469 886 438 918 q 538 792 508 847 q 596 676 568 735 q 654 560 624 618 q 678 518 665 538 q 721 492 690 499 q 759 463 750 485 q 751 414 768 442 q 738 370 736 392 q 744 328 740 349 q 773 222 758 274 q 799 117 788 169 q 810 43 808 81 q 781 -31 813 6 m 285 344 q 383 381 326 360 q 498 424 440 403 q 597 461 556 446 q 534 615 571 538 q 444 756 497 692 q 394 658 422 715 q 342 540 367 601 q 301 427 317 479 q 285 344 285 375 z "},"Á":{"ha":908,"x_min":42,"x_max":813,"o":"m 781 -31 q 721 39 732 -26 q 697 153 711 96 q 668 267 683 210 q 657 313 661 290 q 642 358 653 336 q 446 309 546 344 q 253 249 346 274 q 217 166 239 208 q 182 82 194 124 q 151 24 168 38 q 99 15 135 10 q 68 24 78 19 q 42 40 58 29 l 85 126 q 147 272 117 203 q 204 411 178 342 q 274 603 240 506 q 342 797 307 700 q 355 832 349 814 q 369 867 361 850 q 413 913 389 907 q 469 886 438 918 q 538 792 508 847 q 596 676 568 735 q 654 560 624 618 q 678 518 665 538 q 721 492 690 499 q 759 463 750 485 q 751 414 768 442 q 738 370 736 392 q 744 328 740 349 q 773 222 758 274 q 799 117 788 169 q 810 43 808 81 q 781 -31 813 6 m 285 344 q 383 381 326 360 q 498 424 440 403 q 597 461 556 446 q 534 615 571 538 q 444 756 497 692 q 394 658 422 715 q 342 540 367 601 q 301 427 317 479 q 285 344 285 375 m 306 954 q 297 989 294 969 q 313 1021 299 1008 q 370 1076 343 1049 q 425 1131 397 1103 q 482 1183 453 1157 q 539 1236 511 1208 q 592 1240 567 1258 q 622 1192 619 1222 q 597 1142 625 1161 q 485 1058 535 1106 q 382 965 436 1010 q 343 942 369 949 q 306 954 317 935 z "},"Ă":{"ha":817,"x_min":40,"x_max":719,"o":"m 499 999 q 382 1043 426 992 q 335 1122 351 1074 q 314 1210 318 1171 q 333 1222 313 1221 q 374 1219 353 1224 q 397 1204 396 1215 q 438 1111 403 1153 q 508 1085 467 1076 q 575 1119 549 1093 q 598 1150 590 1135 q 611 1188 606 1165 q 611 1203 614 1196 q 618 1213 608 1210 q 678 1209 656 1219 q 700 1174 701 1199 q 685 1126 699 1150 q 659 1086 672 1103 q 639 1065 646 1069 q 570 1020 604 1040 q 499 999 536 1000 m 667 -271 q 626 -259 647 -278 q 594 -201 606 -240 q 549 -37 572 -119 q 508 128 526 44 q 480 187 499 175 q 415 192 461 199 q 365 185 390 189 q 313 178 339 181 q 233 162 261 172 q 190 127 206 151 q 160 53 175 103 q 147 16 154 35 q 125 -14 139 -3 q 96 -28 115 -24 q 64 -28 76 -32 q 42 -3 43 -21 q 49 35 40 15 q 82 135 65 85 q 117 236 99 186 q 179 406 149 321 q 244 576 210 492 q 285 667 263 622 q 331 756 308 711 q 474 822 368 839 q 520 653 504 740 q 551 477 536 567 q 590 297 565 388 q 646 308 618 303 q 704 318 674 313 q 719 294 719 308 q 710 267 719 281 q 693 250 703 257 q 672 238 683 243 q 633 224 654 229 q 606 204 613 218 q 603 165 599 188 q 613 122 607 142 q 649 -24 631 49 q 686 -171 668 -97 q 692 -237 697 -210 q 667 -271 686 -264 m 263 264 q 333 267 299 267 q 400 272 367 268 q 465 294 453 279 q 468 364 476 310 q 451 464 460 414 q 432 565 442 514 q 418 613 426 589 q 403 664 410 636 q 356 590 381 639 q 311 480 332 540 q 277 362 290 419 q 263 264 264 304 z "},"Ắ":{"ha":817,"x_min":40,"x_max":719,"o":"m 667 -254 q 626 -242 647 -261 q 594 -185 606 -224 q 549 -21 572 -103 q 508 144 526 61 q 480 203 499 192 q 415 208 461 215 q 365 201 390 206 q 313 194 339 197 q 233 178 261 189 q 190 144 206 168 q 160 69 175 119 q 147 33 154 51 q 125 3 139 14 q 96 -11 115 -7 q 64 -11 76 -15 q 42 14 43 -4 q 49 51 40 32 q 82 152 65 101 q 117 253 99 203 q 179 423 149 338 q 244 593 210 508 q 285 683 263 639 q 331 772 308 728 q 474 839 368 856 q 520 670 504 757 q 551 494 536 583 q 590 314 565 404 q 646 324 618 319 q 704 335 674 329 q 719 311 719 325 q 710 283 719 297 q 693 267 703 274 q 672 254 683 260 q 633 240 654 246 q 606 221 613 235 q 603 181 599 204 q 613 139 607 158 q 649 -8 631 65 q 686 -154 668 -81 q 692 -220 697 -193 q 667 -254 686 -247 m 263 281 q 333 284 299 283 q 400 289 367 285 q 465 311 453 296 q 468 381 476 326 q 451 481 460 431 q 432 582 442 531 q 418 629 426 606 q 403 681 410 653 q 356 606 381 656 q 311 497 332 557 q 277 378 290 436 q 263 281 264 321 m 414 897 q 308 938 349 890 q 265 1010 281 965 q 247 1089 250 1054 q 264 1101 246 1099 q 301 1098 282 1103 q 322 1083 321 1093 q 358 1000 328 1038 q 423 975 386 968 q 483 1007 460 982 q 506 1035 499 1021 q 517 1069 513 1049 q 516 1083 518 1076 q 524 1092 514 1089 q 578 1088 557 1097 q 597 1056 599 1079 q 585 1013 596 1035 q 560 976 574 992 q 542 958 547 961 q 480 917 511 935 q 414 897 449 899 m 388 1100 q 381 1128 379 1113 q 394 1154 382 1143 q 439 1197 417 1175 q 482 1239 461 1218 q 527 1281 504 1260 q 572 1322 550 1301 q 614 1326 594 1340 q 638 1288 636 1311 q 618 1249 639 1264 q 530 1182 569 1219 q 449 1110 490 1144 q 417 1090 438 1096 q 388 1100 397 1085 z "},"Ặ":{"ha":817,"x_min":40,"x_max":719,"o":"m 667 -226 q 626 -215 647 -233 q 594 -157 606 -196 q 549 7 572 -75 q 508 172 526 89 q 480 231 499 219 q 415 236 461 243 q 365 229 390 233 q 313 222 339 225 q 233 206 261 217 q 190 172 206 196 q 160 97 175 147 q 147 60 154 79 q 125 31 139 42 q 96 17 115 21 q 64 17 76 13 q 42 42 43 24 q 49 79 40 60 q 82 180 65 129 q 117 281 99 231 q 179 451 149 365 q 244 621 210 536 q 285 711 263 667 q 331 800 308 756 q 474 867 368 883 q 520 698 504 785 q 551 522 536 611 q 590 342 565 432 q 646 352 618 347 q 704 363 674 357 q 719 339 719 353 q 710 311 719 325 q 693 294 703 301 q 672 282 683 288 q 633 268 654 274 q 606 249 613 263 q 603 209 599 232 q 613 167 607 186 q 649 20 631 93 q 686 -126 668 -53 q 692 -192 697 -165 q 667 -226 686 -219 m 263 308 q 333 312 299 311 q 400 317 367 313 q 465 339 453 324 q 468 408 476 354 q 451 508 460 458 q 432 610 442 558 q 418 657 426 633 q 403 708 410 681 q 356 634 381 683 q 311 524 332 585 q 277 406 290 464 q 263 308 264 349 m 418 979 q 301 1024 346 972 q 254 1103 271 1054 q 233 1190 238 1151 q 252 1203 232 1201 q 294 1200 272 1204 q 317 1185 315 1196 q 357 1092 322 1133 q 427 1065 386 1057 q 494 1100 468 1074 q 517 1131 510 1115 q 531 1168 525 1146 q 531 1183 533 1176 q 538 1193 528 1190 q 598 1190 575 1200 q 619 1154 621 1179 q 605 1107 618 1131 q 578 1067 592 1083 q 558 1046 565 1050 q 490 1001 524 1021 q 418 979 456 981 m 353 -274 q 297 -235 313 -267 q 294 -222 296 -231 q 293 -206 293 -212 q 331 -159 307 -178 q 382 -140 354 -140 q 415 -156 401 -140 q 429 -199 429 -172 q 419 -236 429 -218 q 360 -274 410 -254 l 353 -274 z "},"Ằ":{"ha":817,"x_min":40,"x_max":719,"o":"m 667 -254 q 626 -242 647 -261 q 594 -185 606 -224 q 549 -21 572 -103 q 508 144 526 61 q 480 203 499 192 q 415 208 461 215 q 365 201 390 206 q 313 194 339 197 q 233 178 261 189 q 190 144 206 168 q 160 69 175 119 q 147 33 154 51 q 125 3 139 14 q 96 -11 115 -7 q 64 -11 76 -15 q 42 14 43 -4 q 49 51 40 32 q 82 152 65 101 q 117 253 99 203 q 179 423 149 338 q 244 593 210 508 q 285 683 263 639 q 331 772 308 728 q 474 839 368 856 q 520 670 504 757 q 551 494 536 583 q 590 314 565 404 q 646 324 618 319 q 704 335 674 329 q 719 311 719 325 q 710 283 719 297 q 693 267 703 274 q 672 254 683 260 q 633 240 654 246 q 606 221 613 235 q 603 181 599 204 q 613 139 607 158 q 649 -8 631 65 q 686 -154 668 -81 q 692 -220 697 -193 q 667 -254 686 -247 m 263 281 q 333 284 299 283 q 400 289 367 285 q 465 311 453 296 q 468 381 476 326 q 451 481 460 431 q 432 582 442 531 q 418 629 426 606 q 403 681 410 653 q 356 606 381 656 q 311 497 332 557 q 277 378 290 436 q 263 281 264 321 m 422 904 q 317 944 357 897 q 274 1017 289 972 q 256 1096 258 1061 q 272 1108 254 1106 q 310 1105 290 1110 q 331 1090 329 1100 q 367 1007 336 1044 q 431 982 394 975 q 492 1014 468 989 q 514 1042 507 1028 q 525 1076 521 1056 q 524 1090 526 1083 q 532 1099 522 1096 q 586 1095 565 1104 q 606 1063 607 1086 q 593 1020 604 1042 q 569 983 582 999 q 550 965 556 968 q 488 924 519 942 q 422 904 457 906 m 436 1128 q 392 1136 413 1124 l 363 1156 q 291 1205 321 1185 q 246 1236 261 1225 q 225 1258 233 1244 q 214 1282 217 1271 q 213 1291 214 1290 q 212 1292 211 1292 q 219 1299 213 1292 q 239 1300 225 1303 q 261 1294 253 1297 q 410 1214 371 1239 q 457 1175 450 1185 q 459 1139 468 1146 q 436 1128 450 1132 z "},"Ẳ":{"ha":817,"x_min":40,"x_max":719,"o":"m 460 839 q 364 876 400 833 q 324 942 338 901 q 307 1014 311 982 q 323 1024 306 1022 q 358 1022 340 1026 q 376 1010 375 1018 q 410 932 382 967 q 467 910 433 904 q 524 939 501 917 q 542 965 536 951 q 553 996 549 978 q 552 1008 554 1003 q 558 1017 550 1014 q 609 1013 590 1021 q 626 983 628 1004 q 615 944 625 964 q 592 911 604 925 q 576 894 581 897 q 519 857 547 874 q 460 839 492 840 m 432 978 q 426 1038 403 1014 q 474 1132 453 1067 q 469 1179 483 1158 q 431 1209 456 1200 q 385 1210 406 1218 q 311 1206 333 1197 q 289 1234 289 1215 q 304 1268 289 1253 q 342 1278 314 1275 q 407 1278 371 1282 q 477 1263 443 1275 q 532 1225 511 1250 q 550 1138 556 1168 q 522 1047 553 1093 q 432 978 492 1000 m 667 -285 q 626 -273 647 -292 q 594 -215 606 -254 q 549 -51 572 -133 q 508 114 526 31 q 480 173 499 161 q 415 178 461 185 q 365 171 390 175 q 313 164 339 167 q 233 148 261 158 q 190 113 206 138 q 160 39 175 89 q 147 2 154 21 q 125 -28 139 -17 q 96 -42 115 -37 q 64 -42 76 -46 q 42 -17 43 -35 q 49 21 40 1 q 82 122 65 71 q 117 222 99 172 q 179 392 149 307 q 244 563 210 478 q 285 653 263 608 q 331 742 308 697 q 474 808 368 825 q 520 640 504 726 q 551 463 536 553 q 590 283 565 374 q 646 294 618 289 q 704 304 674 299 q 719 281 719 294 q 710 253 719 267 q 693 236 703 243 q 672 224 683 229 q 633 210 654 215 q 606 190 613 204 q 603 151 599 174 q 613 108 607 128 q 649 -38 631 35 q 686 -185 668 -111 q 692 -251 697 -224 q 667 -285 686 -278 m 263 250 q 333 253 299 253 q 400 258 367 254 q 465 281 453 265 q 468 350 476 296 q 451 450 460 400 q 432 551 442 500 q 418 599 426 575 q 403 650 410 622 q 356 576 381 625 q 311 466 332 526 q 277 348 290 406 q 263 250 264 290 z "},"Ẵ":{"ha":817,"x_min":40,"x_max":719,"o":"m 278 1118 q 258 1135 267 1121 q 251 1167 249 1150 q 315 1261 268 1225 q 351 1275 336 1276 q 379 1260 365 1274 q 413 1226 393 1247 q 430 1205 424 1217 q 449 1183 436 1193 q 493 1169 474 1165 q 526 1190 513 1174 q 549 1226 540 1207 q 577 1249 565 1253 q 592 1224 589 1246 q 589 1176 596 1203 q 561 1133 582 1150 q 513 1108 543 1118 q 457 1108 483 1099 q 414 1140 433 1117 q 378 1181 394 1163 q 349 1203 361 1201 q 321 1183 336 1204 q 305 1151 310 1168 q 295 1123 300 1133 q 278 1118 290 1113 m 446 874 q 350 911 386 868 q 310 976 324 936 q 293 1049 297 1017 q 309 1059 292 1057 q 344 1057 326 1061 q 363 1044 361 1053 q 396 967 368 1001 q 453 945 419 939 q 510 974 488 951 q 528 999 522 986 q 539 1031 535 1013 q 538 1043 540 1038 q 544 1051 536 1049 q 595 1047 576 1056 q 613 1018 614 1039 q 601 979 611 999 q 578 946 590 960 q 563 929 567 932 q 506 892 533 908 q 446 874 478 875 m 667 -272 q 626 -260 647 -279 q 594 -203 606 -242 q 549 -39 572 -121 q 508 126 526 43 q 480 185 499 174 q 415 190 461 197 q 365 183 390 188 q 313 176 339 179 q 233 160 261 171 q 190 126 206 150 q 160 51 175 101 q 147 15 154 33 q 125 -15 139 -4 q 96 -29 115 -25 q 64 -29 76 -33 q 42 -4 43 -22 q 49 33 40 14 q 82 134 65 83 q 117 235 99 185 q 179 405 149 319 q 244 575 210 490 q 285 665 263 621 q 331 754 308 710 q 474 821 368 838 q 520 652 504 739 q 551 476 536 565 q 590 296 565 386 q 646 306 618 301 q 704 317 674 311 q 719 293 719 307 q 710 265 719 279 q 693 249 703 256 q 672 236 683 242 q 633 222 654 228 q 606 203 613 217 q 603 163 599 186 q 613 121 607 140 q 649 -26 631 47 q 686 -172 668 -99 q 692 -238 697 -211 q 667 -272 686 -265 m 263 263 q 333 266 299 265 q 400 271 367 267 q 465 293 453 278 q 468 363 476 308 q 451 463 460 413 q 432 564 442 513 q 418 611 426 588 q 403 663 410 635 q 356 588 381 638 q 311 478 332 539 q 277 360 290 418 q 263 263 264 303 z "},"Ǎ":{"ha":908,"x_min":42,"x_max":813,"o":"m 781 -31 q 721 39 732 -26 q 697 153 711 96 q 668 267 683 210 q 657 313 661 290 q 642 358 653 336 q 446 309 546 344 q 253 249 346 274 q 217 166 239 208 q 182 82 194 124 q 151 24 168 38 q 99 15 135 10 q 68 24 78 19 q 42 40 58 29 l 85 126 q 147 272 117 203 q 204 411 178 342 q 274 603 240 506 q 342 797 307 700 q 355 832 349 814 q 369 867 361 850 q 413 913 389 907 q 469 886 438 918 q 538 792 508 847 q 596 676 568 735 q 654 560 624 618 q 678 518 665 538 q 721 492 690 499 q 759 463 750 485 q 751 414 768 442 q 738 370 736 392 q 744 328 740 349 q 773 222 758 274 q 799 117 788 169 q 810 43 808 81 q 781 -31 813 6 m 285 344 q 383 381 326 360 q 498 424 440 403 q 597 461 556 446 q 534 615 571 538 q 444 756 497 692 q 394 658 422 715 q 342 540 367 601 q 301 427 317 479 q 285 344 285 375 m 435 953 q 374 978 403 961 q 326 1032 346 994 q 299 1094 310 1068 q 282 1135 288 1119 q 271 1168 271 1165 q 288 1200 271 1188 q 333 1213 306 1213 l 379 1115 q 450 1038 399 1060 q 592 1163 544 1113 q 612 1184 596 1168 q 647 1215 628 1200 q 678 1231 667 1231 q 703 1192 703 1217 q 685 1153 703 1169 q 519 986 565 1047 q 435 953 479 940 z "},"Â":{"ha":908,"x_min":42,"x_max":813,"o":"m 781 -31 q 721 39 732 -26 q 697 153 711 96 q 668 267 683 210 q 657 313 661 290 q 642 358 653 336 q 446 309 546 344 q 253 249 346 274 q 217 166 239 208 q 182 82 194 124 q 151 24 168 38 q 99 15 135 10 q 68 24 78 19 q 42 40 58 29 l 85 126 q 147 272 117 203 q 204 411 178 342 q 274 603 240 506 q 342 797 307 700 q 355 832 349 814 q 369 867 361 850 q 413 913 389 907 q 469 886 438 918 q 538 792 508 847 q 596 676 568 735 q 654 560 624 618 q 678 518 665 538 q 721 492 690 499 q 759 463 750 485 q 751 414 768 442 q 738 370 736 392 q 744 328 740 349 q 773 222 758 274 q 799 117 788 169 q 810 43 808 81 q 781 -31 813 6 m 285 344 q 383 381 326 360 q 498 424 440 403 q 597 461 556 446 q 534 615 571 538 q 444 756 497 692 q 394 658 422 715 q 342 540 367 601 q 301 427 317 479 q 285 344 285 375 m 656 889 q 608 915 636 889 q 551 978 579 940 q 503 1051 522 1015 q 439 1060 475 1104 q 424 1047 442 1063 q 381 1008 407 1032 q 330 959 356 983 q 288 918 304 935 q 272 903 271 901 q 242 903 260 899 q 214 918 225 908 q 208 939 208 921 q 214 964 207 957 q 258 1008 240 990 q 294 1044 276 1026 q 334 1083 311 1061 q 392 1138 357 1104 q 486 1187 449 1190 q 564 1118 524 1183 q 596 1073 583 1088 q 618 1048 608 1058 q 640 1023 628 1038 q 669 976 651 1008 q 680 956 676 967 q 689 928 683 944 q 672 903 681 918 q 656 889 664 889 z "},"Ấ":{"ha":881,"x_min":40,"x_max":788,"o":"m 579 974 q 568 999 569 985 q 576 1025 567 1014 q 611 1072 594 1049 q 644 1119 628 1096 q 680 1166 663 1143 q 714 1213 697 1189 q 753 1222 732 1233 q 782 1191 776 1213 q 769 1151 788 1169 q 699 1074 729 1115 q 635 993 668 1032 q 608 970 626 979 q 579 974 590 961 m 608 794 q 571 815 593 794 q 527 864 549 835 q 490 922 506 893 q 440 928 468 963 q 428 919 442 931 q 396 888 415 907 q 356 850 376 869 q 323 818 336 831 q 311 806 310 806 q 288 807 301 803 q 265 818 274 811 q 260 834 260 821 q 265 854 260 847 q 299 888 285 874 q 327 916 314 903 q 358 946 340 929 q 403 989 376 963 q 476 1027 447 1031 q 538 974 506 1024 q 563 938 553 950 q 580 919 572 926 q 597 899 588 911 q 619 864 606 888 q 628 847 625 856 q 635 825 631 839 q 622 806 628 817 q 608 794 615 794 m 667 -272 q 626 -260 647 -279 q 594 -203 606 -242 q 549 -39 572 -121 q 508 126 526 43 q 480 185 499 174 q 415 190 461 197 q 365 183 390 188 q 313 176 339 179 q 233 160 261 171 q 190 126 206 150 q 160 51 175 101 q 147 15 154 33 q 125 -15 139 -4 q 96 -29 115 -25 q 64 -29 76 -33 q 42 -4 43 -22 q 49 33 40 14 q 82 134 65 83 q 117 235 99 185 q 179 405 149 319 q 244 575 210 490 q 285 665 263 621 q 331 754 308 710 q 474 821 368 838 q 520 652 504 739 q 551 476 536 565 q 590 296 565 386 q 646 306 618 301 q 704 317 674 311 q 719 293 719 307 q 710 265 719 279 q 693 249 703 256 q 672 236 683 242 q 633 222 654 228 q 606 203 613 217 q 603 163 599 186 q 613 121 607 140 q 649 -26 631 47 q 686 -172 668 -99 q 692 -238 697 -211 q 667 -272 686 -265 m 263 263 q 333 266 299 265 q 400 271 367 267 q 465 293 453 278 q 468 363 476 308 q 451 463 460 413 q 432 564 442 513 q 418 611 426 588 q 403 663 410 635 q 356 588 381 638 q 311 478 332 539 q 277 360 290 418 q 263 263 264 303 z "},"Ậ":{"ha":817,"x_min":40,"x_max":719,"o":"m 629 928 q 581 953 610 928 q 524 1017 553 979 q 476 1090 496 1054 q 413 1099 449 1143 q 398 1086 415 1101 q 355 1047 381 1071 q 303 998 329 1022 q 261 957 278 974 q 246 942 244 940 q 216 942 233 938 q 188 957 199 947 q 181 978 182 960 q 188 1003 181 996 q 232 1047 214 1029 q 267 1083 250 1065 q 308 1122 285 1100 q 365 1176 331 1143 q 460 1226 422 1229 q 538 1157 497 1222 q 569 1112 557 1126 q 592 1087 582 1097 q 613 1062 601 1076 q 643 1015 625 1047 q 653 994 650 1006 q 663 967 657 983 q 646 942 654 957 q 629 928 638 928 m 667 -171 q 626 -159 647 -178 q 594 -101 606 -140 q 549 63 572 -19 q 508 228 526 144 q 480 287 499 275 q 415 292 461 299 q 365 285 390 289 q 313 278 339 281 q 233 262 261 272 q 190 227 206 251 q 160 153 175 203 q 147 116 154 135 q 125 86 139 97 q 96 72 115 76 q 64 72 76 68 q 42 97 43 79 q 49 135 40 115 q 82 235 65 185 q 117 336 99 286 q 179 506 149 421 q 244 676 210 592 q 285 767 263 722 q 331 856 308 811 q 474 922 368 939 q 520 753 504 840 q 551 577 536 667 q 590 397 565 488 q 646 408 618 403 q 704 418 674 413 q 719 394 719 408 q 710 367 719 381 q 693 350 703 357 q 672 338 683 343 q 633 324 654 329 q 606 304 613 318 q 603 265 599 288 q 613 222 607 242 q 649 76 631 149 q 686 -71 668 3 q 692 -137 697 -110 q 667 -171 686 -164 m 263 364 q 333 367 299 367 q 400 372 367 368 q 465 394 453 379 q 468 464 476 410 q 451 564 460 514 q 432 665 442 614 q 418 713 426 689 q 403 764 410 736 q 356 690 381 739 q 311 580 332 640 q 277 462 290 519 q 263 364 264 404 m 349 -212 q 281 -165 299 -204 q 278 -149 279 -160 q 276 -131 276 -137 q 321 -74 292 -96 q 383 -51 350 -51 q 424 -70 407 -51 q 442 -122 442 -89 q 431 -168 442 -146 q 357 -212 418 -189 l 349 -212 z "},"Ầ":{"ha":817,"x_min":40,"x_max":719,"o":"m 569 824 q 529 845 553 824 q 483 898 506 867 q 443 958 460 929 q 390 965 421 1003 q 379 956 393 968 q 344 923 365 943 q 301 883 322 903 q 265 849 279 863 q 253 836 251 835 q 228 836 243 832 q 204 849 214 840 q 199 866 200 851 q 204 886 199 881 q 241 923 226 908 q 270 952 256 938 q 303 985 285 967 q 351 1029 322 1003 q 430 1070 399 1074 q 494 1014 461 1067 q 520 976 510 989 q 539 956 531 964 q 557 935 547 947 q 582 897 567 922 q 589 880 586 889 q 597 857 592 871 q 583 835 590 847 q 569 824 576 824 m 614 1050 q 568 1060 589 1044 l 538 1081 q 460 1135 492 1113 q 413 1169 429 1157 q 390 1194 399 1179 q 378 1222 381 1210 q 376 1231 378 1231 q 376 1232 375 1232 q 385 1240 378 1232 q 406 1242 390 1244 q 429 1235 421 1239 q 586 1144 544 1174 q 636 1103 629 1114 q 639 1063 649 1071 q 614 1050 629 1054 m 667 -272 q 626 -260 647 -279 q 594 -203 606 -242 q 549 -39 572 -121 q 508 126 526 43 q 480 185 499 174 q 415 190 461 197 q 365 183 390 188 q 313 176 339 179 q 233 160 261 171 q 190 126 206 150 q 160 51 175 101 q 147 15 154 33 q 125 -15 139 -4 q 96 -29 115 -25 q 64 -29 76 -33 q 42 -4 43 -22 q 49 33 40 14 q 82 134 65 83 q 117 235 99 185 q 179 405 149 319 q 244 575 210 490 q 285 665 263 621 q 331 754 308 710 q 474 821 368 838 q 520 652 504 739 q 551 476 536 565 q 590 296 565 386 q 646 306 618 301 q 704 317 674 311 q 719 293 719 307 q 710 265 719 279 q 693 249 703 256 q 672 236 683 242 q 633 222 654 228 q 606 203 613 217 q 603 163 599 186 q 613 121 607 140 q 649 -26 631 47 q 686 -172 668 -99 q 692 -238 697 -211 q 667 -272 686 -265 m 263 263 q 333 266 299 265 q 400 271 367 267 q 465 293 453 278 q 468 363 476 308 q 451 463 460 413 q 432 564 442 513 q 418 611 426 588 q 403 663 410 635 q 356 588 381 638 q 311 478 332 539 q 277 360 290 418 q 263 263 264 303 z "},"Ẩ":{"ha":825,"x_min":40,"x_max":733,"o":"m 610 897 q 604 957 581 933 q 651 1051 631 986 q 647 1099 661 1078 q 608 1128 633 1119 q 563 1129 583 1138 q 489 1126 511 1117 q 467 1153 467 1135 q 482 1188 467 1172 q 520 1198 492 1194 q 585 1198 549 1201 q 655 1182 621 1194 q 710 1144 689 1169 q 728 1057 733 1088 q 700 966 731 1013 q 610 897 669 919 m 596 778 q 558 798 581 778 q 515 847 536 818 q 478 906 493 876 q 428 911 456 946 q 416 902 429 914 q 383 872 403 890 q 344 833 364 853 q 310 801 324 814 q 299 789 297 789 q 275 790 289 786 q 253 801 261 794 q 247 817 247 804 q 253 838 247 831 q 287 872 272 857 q 315 899 301 886 q 346 929 328 913 q 390 972 364 946 q 464 1010 435 1014 q 525 957 493 1007 q 550 922 540 933 q 567 902 560 910 q 584 883 575 894 q 607 847 593 871 q 615 831 613 839 q 622 808 618 822 q 609 789 615 800 q 596 778 603 778 m 667 -272 q 626 -260 647 -279 q 594 -203 606 -242 q 549 -39 572 -121 q 508 126 526 43 q 480 185 499 174 q 415 190 461 197 q 365 183 390 188 q 313 176 339 179 q 233 160 261 171 q 190 126 206 150 q 160 51 175 101 q 147 15 154 33 q 125 -15 139 -4 q 96 -29 115 -25 q 64 -29 76 -33 q 42 -4 43 -22 q 49 33 40 14 q 82 134 65 83 q 117 235 99 185 q 179 405 149 319 q 244 575 210 490 q 285 665 263 621 q 331 754 308 710 q 474 821 368 838 q 520 652 504 739 q 551 476 536 565 q 590 296 565 386 q 646 306 618 301 q 704 317 674 311 q 719 293 719 307 q 710 265 719 279 q 693 249 703 256 q 672 236 683 242 q 633 222 654 228 q 606 203 613 217 q 603 163 599 186 q 613 121 607 140 q 649 -26 631 47 q 686 -172 668 -99 q 692 -238 697 -211 q 667 -272 686 -265 m 263 263 q 333 266 299 265 q 400 271 367 267 q 465 293 453 278 q 468 363 476 308 q 451 463 460 413 q 432 564 442 513 q 418 611 426 588 q 403 663 410 635 q 356 588 381 638 q 311 478 332 539 q 277 360 290 418 q 263 263 264 303 z "},"Ẫ":{"ha":908,"x_min":42,"x_max":813,"o":"m 781 -31 q 721 39 732 -26 q 697 153 711 96 q 668 267 683 210 q 657 313 661 290 q 642 358 653 336 q 446 309 546 344 q 253 249 346 274 q 217 166 239 208 q 182 82 194 124 q 151 24 168 38 q 99 15 135 10 q 68 24 78 19 q 42 40 58 29 l 85 126 q 147 272 117 203 q 204 411 178 342 q 274 603 240 506 q 342 797 307 700 q 355 832 349 814 q 369 867 361 850 q 413 913 389 907 q 469 886 438 918 q 538 792 508 847 q 596 676 568 735 q 654 560 624 618 q 678 518 665 538 q 721 492 690 499 q 759 463 750 485 q 751 414 768 442 q 738 370 736 392 q 744 328 740 349 q 773 222 758 274 q 799 117 788 169 q 810 43 808 81 q 781 -31 813 6 m 285 344 q 383 381 326 360 q 498 424 440 403 q 597 461 556 446 q 534 615 571 538 q 444 756 497 692 q 394 658 422 715 q 342 540 367 601 q 301 427 317 479 q 285 344 285 375 m 585 851 q 547 872 569 851 q 503 921 525 892 q 467 979 482 950 q 417 985 444 1019 q 405 976 418 988 q 372 945 392 964 q 333 907 353 926 q 299 875 313 888 q 288 863 286 863 q 264 864 278 860 q 242 875 250 868 q 236 891 236 878 q 242 911 236 904 q 276 945 261 931 q 303 973 290 960 q 335 1003 317 986 q 379 1046 353 1019 q 453 1084 424 1088 q 514 1031 482 1081 q 539 995 529 1007 q 556 976 549 983 q 573 956 564 968 q 596 921 582 944 q 604 904 601 913 q 611 882 607 896 q 598 863 604 874 q 585 851 592 851 m 279 1119 q 259 1137 268 1122 q 253 1168 250 1151 q 317 1263 269 1226 q 352 1276 338 1278 q 381 1262 367 1275 q 414 1228 394 1249 q 431 1206 425 1218 q 450 1185 438 1194 q 494 1171 475 1167 q 528 1192 514 1175 q 550 1228 542 1208 q 578 1251 567 1254 q 594 1226 590 1247 q 590 1178 597 1204 q 563 1135 583 1151 q 515 1110 544 1119 q 458 1110 485 1100 q 415 1141 435 1118 q 379 1182 396 1164 q 350 1204 363 1203 q 322 1185 338 1206 q 306 1152 311 1169 q 297 1124 301 1135 q 279 1119 292 1114 z "},"Ä":{"ha":908,"x_min":42,"x_max":813,"o":"m 781 -31 q 721 39 732 -26 q 697 153 711 96 q 668 267 683 210 q 657 313 661 290 q 642 358 653 336 q 446 309 546 344 q 253 249 346 274 q 217 166 239 208 q 182 82 194 124 q 151 24 168 38 q 99 15 135 10 q 68 24 78 19 q 42 40 58 29 l 85 126 q 147 272 117 203 q 204 411 178 342 q 274 603 240 506 q 342 797 307 700 q 355 832 349 814 q 369 867 361 850 q 413 913 389 907 q 469 886 438 918 q 538 792 508 847 q 596 676 568 735 q 654 560 624 618 q 678 518 665 538 q 721 492 690 499 q 759 463 750 485 q 751 414 768 442 q 738 370 736 392 q 744 328 740 349 q 773 222 758 274 q 799 117 788 169 q 810 43 808 81 q 781 -31 813 6 m 285 344 q 383 381 326 360 q 498 424 440 403 q 597 461 556 446 q 534 615 571 538 q 444 756 497 692 q 394 658 422 715 q 342 540 367 601 q 301 427 317 479 q 285 344 285 375 m 301 990 q 249 1018 282 994 l 218 1035 q 233 1060 225 1046 q 251 1092 242 1075 q 304 1082 279 1093 q 346 1022 329 1071 q 326 999 343 1010 q 301 990 310 989 m 664 944 q 628 954 643 944 q 582 989 613 964 q 576 994 585 988 q 550 1015 568 1000 q 572 1024 561 1019 q 592 1035 582 1029 q 646 1053 629 1053 q 690 1035 672 1051 q 707 990 707 1018 q 694 956 707 968 q 664 944 682 944 z "},"Ǟ":{"ha":908,"x_min":42,"x_max":813,"o":"m 781 -31 q 721 39 732 -26 q 697 153 711 96 q 668 267 683 210 q 657 313 661 290 q 642 358 653 336 q 446 309 546 344 q 253 249 346 274 q 217 166 239 208 q 182 82 194 124 q 151 24 168 38 q 99 15 135 10 q 68 24 78 19 q 42 40 58 29 l 85 126 q 147 272 117 203 q 204 411 178 342 q 274 603 240 506 q 342 797 307 700 q 355 832 349 814 q 369 867 361 850 q 413 913 389 907 q 469 886 438 918 q 538 792 508 847 q 596 676 568 735 q 654 560 624 618 q 678 518 665 538 q 721 492 690 499 q 759 463 750 485 q 751 414 768 442 q 738 370 736 392 q 744 328 740 349 q 773 222 758 274 q 799 117 788 169 q 810 43 808 81 q 781 -31 813 6 m 285 344 q 383 381 326 360 q 498 424 440 403 q 597 461 556 446 q 534 615 571 538 q 444 756 497 692 q 394 658 422 715 q 342 540 367 601 q 301 427 317 479 q 285 344 285 375 m 292 946 q 239 974 272 950 l 208 990 q 224 1016 215 1001 q 242 1047 232 1031 q 294 1038 269 1049 q 336 978 319 1026 q 317 955 333 965 q 292 946 300 944 m 654 900 q 618 910 633 900 q 572 944 603 919 q 567 949 575 943 q 540 971 558 956 q 562 980 551 975 q 582 990 572 985 q 636 1008 619 1008 q 680 990 663 1007 q 697 946 697 974 q 685 912 697 924 q 654 900 672 900 m 378 1099 q 199 1138 231 1093 q 344 1190 161 1182 q 356 1190 344 1190 q 390 1192 368 1190 q 474 1188 435 1194 q 528 1181 506 1183 q 564 1181 550 1179 q 626 1190 592 1182 q 693 1201 661 1197 q 744 1192 725 1204 q 715 1108 794 1136 q 666 1103 694 1106 q 604 1103 638 1101 q 549 1103 569 1103 q 524 1101 529 1103 q 438 1103 474 1104 q 378 1099 401 1101 z "},"Ạ":{"ha":908,"x_min":42,"x_max":813,"o":"m 781 -31 q 721 39 732 -26 q 697 153 711 96 q 668 267 683 210 q 657 313 661 290 q 642 358 653 336 q 446 309 546 344 q 253 249 346 274 q 217 166 239 208 q 182 82 194 124 q 151 24 168 38 q 99 15 135 10 q 68 24 78 19 q 42 40 58 29 l 85 126 q 147 272 117 203 q 204 411 178 342 q 274 603 240 506 q 342 797 307 700 q 355 832 349 814 q 369 867 361 850 q 413 913 389 907 q 469 886 438 918 q 538 792 508 847 q 596 676 568 735 q 654 560 624 618 q 678 518 665 538 q 721 492 690 499 q 759 463 750 485 q 751 414 768 442 q 738 370 736 392 q 744 328 740 349 q 773 222 758 274 q 799 117 788 169 q 810 43 808 81 q 781 -31 813 6 m 285 344 q 383 381 326 360 q 498 424 440 403 q 597 461 556 446 q 534 615 571 538 q 444 756 497 692 q 394 658 422 715 q 342 540 367 601 q 301 427 317 479 q 285 344 285 375 m 435 -207 q 393 -234 417 -228 q 335 -204 369 -240 q 331 -164 331 -190 q 350 -129 331 -137 q 373 -115 361 -119 q 397 -111 385 -111 l 429 -129 q 435 -207 453 -162 z "},"À":{"ha":908,"x_min":42,"x_max":813,"o":"m 781 -31 q 721 39 732 -26 q 697 153 711 96 q 668 267 683 210 q 657 313 661 290 q 642 358 653 336 q 446 309 546 344 q 253 249 346 274 q 217 166 239 208 q 182 82 194 124 q 151 24 168 38 q 99 15 135 10 q 68 24 78 19 q 42 40 58 29 l 85 126 q 147 272 117 203 q 204 411 178 342 q 274 603 240 506 q 342 797 307 700 q 355 832 349 814 q 369 867 361 850 q 413 913 389 907 q 469 886 438 918 q 538 792 508 847 q 596 676 568 735 q 654 560 624 618 q 678 518 665 538 q 721 492 690 499 q 759 463 750 485 q 751 414 768 442 q 738 370 736 392 q 744 328 740 349 q 773 222 758 274 q 799 117 788 169 q 810 43 808 81 q 781 -31 813 6 m 285 344 q 383 381 326 360 q 498 424 440 403 q 597 461 556 446 q 534 615 571 538 q 444 756 497 692 q 394 658 422 715 q 342 540 367 601 q 301 427 317 479 q 285 344 285 375 m 550 949 q 490 961 518 942 l 450 989 q 350 1060 390 1031 q 288 1104 310 1089 q 259 1136 271 1117 q 243 1172 247 1156 q 242 1184 243 1183 q 242 1185 240 1185 q 251 1196 243 1186 q 279 1198 260 1201 q 310 1189 299 1194 q 514 1072 460 1110 q 579 1017 569 1031 q 583 965 596 975 q 550 949 569 954 z "},"Ả":{"ha":908,"x_min":56,"x_max":735,"o":"m 421 849 q 414 914 389 889 q 467 1018 444 946 q 462 1070 478 1047 q 419 1103 446 1093 q 368 1104 392 1114 q 288 1100 313 1090 q 264 1131 264 1110 q 281 1168 264 1151 q 323 1180 292 1176 q 394 1179 354 1183 q 471 1162 433 1175 q 531 1121 508 1149 q 550 1025 557 1058 q 520 925 554 976 q 421 849 486 874 m 682 -272 q 642 -260 663 -279 q 610 -203 621 -242 q 565 -39 588 -121 q 524 126 542 43 q 495 185 514 174 q 431 190 476 197 q 380 183 406 188 q 328 176 354 179 q 249 160 276 171 q 206 126 221 150 q 175 51 190 101 q 162 15 169 33 q 140 -15 154 -4 q 111 -29 131 -25 q 79 -29 92 -33 q 57 -4 58 -22 q 64 33 56 14 q 97 134 81 83 q 132 235 114 185 q 194 405 164 319 q 260 575 225 490 q 301 665 278 621 q 346 754 324 710 q 489 821 383 838 q 535 652 519 739 q 566 476 551 565 q 606 296 581 386 q 661 306 633 301 q 719 317 689 311 q 735 293 735 307 q 725 265 735 279 q 708 249 718 256 q 688 236 699 242 q 649 222 669 228 q 621 203 628 217 q 618 163 614 186 q 628 121 622 140 q 665 -26 646 47 q 701 -172 683 -99 q 707 -238 713 -211 q 682 -272 701 -265 m 278 263 q 348 266 314 265 q 415 271 382 267 q 480 293 468 278 q 483 363 492 308 q 466 463 475 413 q 447 564 457 513 q 433 611 442 588 q 418 663 425 635 q 372 588 396 638 q 326 478 347 539 q 292 360 306 418 q 278 263 279 303 z "},"Ɑ":{"ha":1236,"x_min":86,"x_max":1124,"o":"m 946 25 q 892 35 910 25 q 846 76 874 46 q 764 195 799 131 q 689 319 729 260 q 672 353 683 331 q 647 404 661 375 l 560 282 q 490 200 522 233 q 423 142 457 167 q 349 89 389 117 q 249 58 300 56 q 158 97 197 61 q 103 196 118 133 q 94 376 86 293 q 130 542 101 458 q 204 724 158 625 q 301 879 254 822 q 421 971 349 936 q 626 946 533 1021 q 647 938 636 940 q 668 932 658 935 q 754 894 736 918 q 772 818 772 871 q 769 792 772 814 q 763 741 767 769 q 756 686 758 713 q 753 644 753 660 q 772 456 753 547 q 824 276 790 365 q 888 167 854 196 q 961 138 921 138 q 986 140 965 138 q 1026 145 1007 143 q 1042 147 1044 147 q 1081 139 1063 147 q 1108 107 1099 131 q 1100 56 1124 74 q 1033 32 1076 39 q 946 25 990 25 m 246 189 q 274 188 257 189 q 300 189 292 186 q 408 256 354 208 q 508 369 461 303 q 592 515 556 436 q 647 675 629 593 q 641 798 665 746 q 553 893 617 850 q 414 827 468 872 q 327 721 360 782 q 273 592 294 660 q 232 456 251 524 q 205 353 215 396 q 202 274 194 311 q 246 189 210 236 z "},"Ā":{"ha":819,"x_min":40,"x_max":751,"o":"m 331 981 q 151 1019 183 975 q 297 1072 113 1064 q 309 1072 297 1072 q 343 1074 321 1072 q 429 1069 389 1076 q 483 1063 461 1065 q 518 1063 506 1061 q 582 1072 547 1064 q 649 1083 617 1079 q 701 1074 681 1086 q 671 990 751 1018 q 622 985 650 988 q 560 985 593 983 q 503 985 524 985 q 479 983 483 985 q 391 985 428 986 q 331 981 354 983 m 667 -271 q 626 -259 647 -278 q 594 -201 606 -240 q 549 -37 572 -119 q 508 128 526 44 q 480 187 499 175 q 415 192 461 199 q 365 185 390 189 q 313 178 339 181 q 233 162 261 172 q 190 127 206 151 q 160 53 175 103 q 147 16 154 35 q 125 -14 139 -3 q 96 -28 115 -24 q 64 -28 76 -32 q 42 -3 43 -21 q 49 35 40 15 q 82 135 65 85 q 117 236 99 186 q 179 406 149 321 q 244 576 210 492 q 285 667 263 622 q 331 756 308 711 q 474 822 368 839 q 520 653 504 740 q 551 477 536 567 q 590 297 565 388 q 646 308 618 303 q 704 318 674 313 q 719 294 719 308 q 710 267 719 281 q 693 250 703 257 q 672 238 683 243 q 633 224 654 229 q 606 204 613 218 q 603 165 599 188 q 613 122 607 142 q 649 -24 631 49 q 686 -171 668 -97 q 692 -237 697 -210 q 667 -271 686 -264 m 263 264 q 333 267 299 267 q 400 272 367 268 q 465 294 453 279 q 468 364 476 310 q 451 464 460 414 q 432 565 442 514 q 418 613 426 589 q 403 664 410 636 q 356 590 381 639 q 311 480 332 540 q 277 362 290 419 q 263 264 264 304 z "},"Ą":{"ha":908,"x_min":42,"x_max":889,"o":"m 781 -31 q 721 39 732 -26 q 697 153 711 96 q 668 267 683 210 q 657 313 661 290 q 642 358 653 336 q 446 309 546 344 q 253 249 346 274 q 217 166 239 208 q 182 82 194 124 q 151 24 168 38 q 99 15 135 10 q 68 24 78 19 q 42 40 58 29 l 85 126 q 147 272 117 203 q 204 411 178 342 q 274 603 240 506 q 342 797 307 700 q 355 832 349 814 q 369 867 361 850 q 413 913 389 907 q 469 886 438 918 q 538 792 508 847 q 596 676 568 735 q 654 560 624 618 q 678 518 665 538 q 721 492 690 499 q 759 463 750 485 q 751 414 768 442 q 738 370 736 392 q 744 328 740 349 q 773 222 758 274 q 799 117 788 169 q 810 43 808 81 q 781 -31 813 6 m 285 344 q 383 381 326 360 q 498 424 440 403 q 597 461 556 446 q 534 615 571 538 q 444 756 497 692 q 394 658 422 715 q 342 540 367 601 q 301 427 317 479 q 285 344 285 375 m 756 -306 q 692 -256 718 -294 q 674 -160 665 -217 q 700 -65 683 -101 q 785 31 757 17 q 839 43 838 61 q 810 -29 840 19 q 781 -76 794 -54 q 758 -114 768 -97 q 748 -160 747 -135 q 763 -207 749 -186 q 804 -235 776 -228 q 837 -242 817 -239 q 873 -252 857 -244 q 886 -282 889 -260 q 874 -299 885 -294 q 849 -304 863 -304 q 756 -306 779 -310 z "},"Å":{"ha":908,"x_min":42,"x_max":813,"o":"m 781 -31 q 721 39 732 -26 q 697 153 711 96 q 668 267 683 210 q 657 313 661 290 q 642 358 653 336 q 446 309 546 344 q 253 249 346 274 q 217 166 239 208 q 182 82 194 124 q 151 24 168 38 q 99 15 135 10 q 68 24 78 19 q 42 40 58 29 l 85 126 q 147 272 117 203 q 204 411 178 342 q 274 603 240 506 q 342 797 307 700 q 355 832 349 814 q 369 867 361 850 q 413 913 389 907 q 469 886 438 918 q 538 792 508 847 q 596 676 568 735 q 654 560 624 618 q 678 518 665 538 q 721 492 690 499 q 759 463 750 485 q 751 414 768 442 q 738 370 736 392 q 744 328 740 349 q 773 222 758 274 q 799 117 788 169 q 810 43 808 81 q 781 -31 813 6 m 285 344 q 383 381 326 360 q 498 424 440 403 q 597 461 556 446 q 534 615 571 538 q 444 756 497 692 q 394 658 422 715 q 342 540 367 601 q 301 427 317 479 q 285 344 285 375 m 419 1033 q 363 1049 386 1033 q 304 1157 333 1063 l 307 1176 q 314 1211 310 1196 q 339 1245 319 1235 q 386 1261 358 1256 q 424 1265 411 1265 q 528 1226 486 1265 q 547 1172 547 1203 q 525 1106 547 1140 q 498 1072 513 1086 q 467 1047 483 1057 q 419 1033 446 1033 m 406 1086 q 431 1099 418 1086 q 440 1107 436 1103 q 447 1117 443 1111 q 463 1132 454 1128 q 478 1174 478 1149 q 465 1212 478 1194 q 431 1235 451 1229 l 414 1235 q 412 1233 413 1233 q 411 1232 411 1232 q 386 1165 397 1201 q 383 1156 385 1161 q 379 1144 382 1150 l 385 1142 l 385 1132 q 386 1113 385 1115 q 406 1086 397 1086 z "},"Ǻ":{"ha":908,"x_min":42,"x_max":813,"o":"m 436 967 q 381 982 407 967 q 325 1086 354 996 l 329 1104 q 336 1138 329 1124 q 358 1171 340 1161 q 404 1188 376 1181 q 442 1190 428 1190 q 540 1153 500 1190 q 549 1142 546 1147 q 585 1172 568 1157 q 622 1201 603 1186 q 671 1240 646 1221 q 721 1279 696 1260 q 764 1279 746 1296 q 785 1238 786 1261 q 761 1200 785 1214 q 666 1139 710 1174 q 575 1072 622 1104 q 551 1057 565 1063 q 539 1036 546 1047 q 482 981 513 999 q 436 967 463 967 m 424 1018 q 435 1020 429 1018 q 449 1029 442 1022 q 464 1047 456 1036 q 478 1063 472 1058 q 493 1101 493 1079 q 481 1139 493 1122 q 449 1161 468 1156 l 442 1161 q 432 1161 436 1161 q 428 1158 428 1160 q 404 1093 415 1128 q 399 1074 403 1086 l 404 1071 l 404 1043 q 424 1018 415 1018 m 781 -31 q 721 39 732 -26 q 697 153 711 96 q 668 267 683 210 q 657 313 661 290 q 642 358 653 336 q 446 309 546 344 q 253 249 346 274 q 217 166 239 208 q 182 82 194 124 q 151 24 168 38 q 99 15 135 10 q 68 24 78 19 q 42 40 58 29 l 85 126 q 147 272 117 203 q 204 411 178 342 q 274 603 240 506 q 342 797 307 700 q 355 832 349 814 q 369 867 361 850 q 413 913 389 907 q 469 886 438 918 q 538 792 508 847 q 596 676 568 735 q 654 560 624 618 q 678 518 665 538 q 721 492 690 499 q 759 463 750 485 q 751 414 768 442 q 738 370 736 392 q 744 328 740 349 q 773 222 758 274 q 799 117 788 169 q 810 43 808 81 q 781 -31 813 6 m 285 344 q 383 381 326 360 q 498 424 440 403 q 597 461 556 446 q 534 615 571 538 q 444 756 497 692 q 394 658 422 715 q 342 540 367 601 q 301 427 317 479 q 285 344 285 375 z "},"Ã":{"ha":908,"x_min":42,"x_max":813,"o":"m 781 -31 q 721 39 732 -26 q 697 153 711 96 q 668 267 683 210 q 657 313 661 290 q 642 358 653 336 q 446 309 546 344 q 253 249 346 274 q 217 166 239 208 q 182 82 194 124 q 151 24 168 38 q 99 15 135 10 q 68 24 78 19 q 42 40 58 29 l 85 126 q 147 272 117 203 q 204 411 178 342 q 274 603 240 506 q 342 797 307 700 q 355 832 349 814 q 369 867 361 850 q 413 913 389 907 q 469 886 438 918 q 538 792 508 847 q 596 676 568 735 q 654 560 624 618 q 678 518 665 538 q 721 492 690 499 q 759 463 750 485 q 751 414 768 442 q 738 370 736 392 q 744 328 740 349 q 773 222 758 274 q 799 117 788 169 q 810 43 808 81 q 781 -31 813 6 m 285 344 q 383 381 326 360 q 498 424 440 403 q 597 461 556 446 q 534 615 571 538 q 444 756 497 692 q 394 658 422 715 q 342 540 367 601 q 301 427 317 479 q 285 344 285 375 m 539 1026 q 483 1026 508 1022 q 453 1037 469 1029 q 418 1054 436 1044 q 363 1083 386 1074 q 313 1089 339 1092 q 260 1054 296 1085 q 226 1030 240 1039 q 204 1019 213 1021 q 189 1056 186 1015 q 215 1131 189 1096 q 285 1183 249 1176 q 360 1165 321 1189 q 428 1120 392 1142 q 500 1104 465 1099 q 548 1124 524 1108 q 576 1142 572 1139 q 597 1158 583 1146 q 619 1171 610 1169 q 668 1144 642 1175 q 655 1088 674 1113 q 605 1049 636 1064 q 539 1026 574 1033 z "},"Æ":{"ha":1207,"x_min":38,"x_max":1153,"o":"m 43 353 q 73 385 51 376 q 119 390 94 393 q 164 383 142 389 q 208 374 186 376 q 261 374 243 371 q 289 390 279 376 q 310 432 299 404 q 347 517 325 467 q 392 620 369 568 q 431 711 415 672 q 449 761 447 750 q 483 841 456 818 q 575 869 510 864 q 594 869 585 869 q 610 868 603 869 l 613 868 q 622 865 618 867 q 632 861 626 864 q 714 856 672 851 q 799 867 756 860 q 919 882 868 878 q 1021 885 971 886 q 1133 879 1071 885 q 1141 861 1136 871 q 1149 842 1146 851 q 1117 816 1135 821 q 1081 811 1099 811 q 916 799 999 813 q 750 775 833 786 q 702 764 726 774 q 656 735 678 754 l 650 706 q 657 606 653 660 q 666 508 661 553 q 672 444 671 464 q 730 442 700 436 q 798 458 760 447 q 886 477 836 469 q 1001 481 936 485 q 1030 442 1029 456 q 1001 392 1031 429 q 929 369 974 374 q 853 360 885 365 q 802 352 833 356 q 740 347 771 349 q 688 343 710 344 q 699 294 696 315 q 707 250 703 272 q 722 199 711 228 q 756 126 733 169 q 780 118 767 124 q 807 113 793 113 q 944 111 875 111 q 1082 111 1014 111 q 1117 108 1099 111 q 1149 89 1135 106 q 1151 74 1150 83 q 1150 58 1153 64 q 1139 40 1146 49 q 1125 22 1132 31 q 972 21 1049 22 q 819 19 896 19 q 742 24 781 19 q 669 49 703 29 q 638 112 644 78 q 628 178 632 146 q 619 258 621 218 q 606 339 617 299 q 526 336 569 343 q 444 317 483 329 q 379 289 406 304 q 349 267 363 282 q 328 236 335 251 q 258 65 293 151 q 192 -107 224 -21 q 167 -149 182 -132 q 119 -174 153 -167 q 103 -126 97 -150 q 118 -78 108 -103 q 179 94 147 7 q 246 276 211 182 l 140 288 q 119 288 131 288 q 97 289 108 288 q 56 317 75 294 q 43 353 38 339 m 403 400 q 493 415 439 404 q 589 435 547 426 l 581 494 q 572 606 582 550 q 544 717 563 663 q 499 618 524 674 q 451 506 475 563 q 403 400 426 449 z "},"Ǽ":{"ha":1207,"x_min":38,"x_max":1153,"o":"m 597 926 q 582 960 583 940 q 593 994 581 979 q 640 1058 617 1026 q 685 1121 663 1090 q 732 1183 708 1153 q 778 1244 756 1214 q 829 1258 801 1272 q 868 1215 861 1244 q 851 1163 875 1186 q 756 1060 797 1115 q 671 951 715 1004 q 637 922 661 933 q 597 926 613 910 m 43 353 q 73 385 51 376 q 119 390 94 393 q 164 383 142 389 q 208 374 186 376 q 261 374 243 371 q 289 390 279 376 q 310 432 299 404 q 347 517 325 467 q 392 620 369 568 q 431 711 415 672 q 449 761 447 750 q 483 841 456 818 q 575 869 510 864 q 594 869 585 869 q 610 868 603 869 l 613 868 q 622 865 618 867 q 632 861 626 864 q 714 856 672 851 q 799 867 756 860 q 919 882 868 878 q 1021 885 971 886 q 1133 879 1071 885 q 1141 861 1136 871 q 1149 842 1146 851 q 1117 816 1135 821 q 1081 811 1099 811 q 916 799 999 813 q 750 775 833 786 q 702 764 726 774 q 656 735 678 754 l 650 706 q 657 606 653 660 q 666 508 661 553 q 672 444 671 464 q 730 442 700 436 q 798 458 760 447 q 886 477 836 469 q 1001 481 936 485 q 1030 442 1029 456 q 1001 392 1031 429 q 929 369 974 374 q 853 360 885 365 q 802 352 833 356 q 740 347 771 349 q 688 343 710 344 q 699 294 696 315 q 707 250 703 272 q 722 199 711 228 q 756 126 733 169 q 780 118 767 124 q 807 113 793 113 q 944 111 875 111 q 1082 111 1014 111 q 1117 108 1099 111 q 1149 89 1135 106 q 1151 74 1150 83 q 1150 58 1153 64 q 1139 40 1146 49 q 1125 22 1132 31 q 972 21 1049 22 q 819 19 896 19 q 742 24 781 19 q 669 49 703 29 q 638 112 644 78 q 628 178 632 146 q 619 258 621 218 q 606 339 617 299 q 526 336 569 343 q 444 317 483 329 q 379 289 406 304 q 349 267 363 282 q 328 236 335 251 q 258 65 293 151 q 192 -107 224 -21 q 167 -149 182 -132 q 119 -174 153 -167 q 103 -126 97 -150 q 118 -78 108 -103 q 179 94 147 7 q 246 276 211 182 l 140 288 q 119 288 131 288 q 97 289 108 288 q 56 317 75 294 q 43 353 38 339 m 403 400 q 493 415 439 404 q 589 435 547 426 l 581 494 q 572 606 582 550 q 544 717 563 663 q 499 618 524 674 q 451 506 475 563 q 403 400 426 449 z "},"Ǣ":{"ha":1207,"x_min":38,"x_max":1153,"o":"m 43 353 q 73 385 51 376 q 119 390 94 393 q 164 383 142 389 q 208 374 186 376 q 261 374 243 371 q 289 390 279 376 q 310 432 299 404 q 347 517 325 467 q 392 620 369 568 q 431 711 415 672 q 449 761 447 750 q 483 841 456 818 q 575 869 510 864 q 594 869 585 869 q 610 868 603 869 l 613 868 q 622 865 618 867 q 632 861 626 864 q 714 856 672 851 q 799 867 756 860 q 919 882 868 878 q 1021 885 971 886 q 1133 879 1071 885 q 1141 861 1136 871 q 1149 842 1146 851 q 1117 816 1135 821 q 1081 811 1099 811 q 916 799 999 813 q 750 775 833 786 q 702 764 726 774 q 656 735 678 754 l 650 706 q 657 606 653 660 q 666 508 661 553 q 672 444 671 464 q 730 442 700 436 q 798 458 760 447 q 886 477 836 469 q 1001 481 936 485 q 1030 442 1029 456 q 1001 392 1031 429 q 929 369 974 374 q 853 360 885 365 q 802 352 833 356 q 740 347 771 349 q 688 343 710 344 q 699 294 696 315 q 707 250 703 272 q 722 199 711 228 q 756 126 733 169 q 780 118 767 124 q 807 113 793 113 q 944 111 875 111 q 1082 111 1014 111 q 1117 108 1099 111 q 1149 89 1135 106 q 1151 74 1150 83 q 1150 58 1153 64 q 1139 40 1146 49 q 1125 22 1132 31 q 972 21 1049 22 q 819 19 896 19 q 742 24 781 19 q 669 49 703 29 q 638 112 644 78 q 628 178 632 146 q 619 258 621 218 q 606 339 617 299 q 526 336 569 343 q 444 317 483 329 q 379 289 406 304 q 349 267 363 282 q 328 236 335 251 q 258 65 293 151 q 192 -107 224 -21 q 167 -149 182 -132 q 119 -174 153 -167 q 103 -126 97 -150 q 118 -78 108 -103 q 179 94 147 7 q 246 276 211 182 l 140 288 q 119 288 131 288 q 97 289 108 288 q 56 317 75 294 q 43 353 38 339 m 403 400 q 493 415 439 404 q 589 435 547 426 l 581 494 q 572 606 582 550 q 544 717 563 663 q 499 618 524 674 q 451 506 475 563 q 403 400 426 449 m 608 997 q 450 1036 478 992 q 579 1089 417 1081 q 590 1089 579 1089 q 619 1090 600 1089 q 694 1086 660 1093 q 742 1080 722 1082 q 774 1079 763 1078 q 831 1088 800 1081 q 889 1099 861 1096 q 935 1090 917 1103 q 908 1007 979 1035 q 865 1002 890 1004 q 810 1001 840 1000 q 761 1001 779 1001 q 739 1000 743 1001 q 662 1001 694 1003 q 608 997 629 1000 z "},"B":{"ha":879,"x_min":69,"x_max":826,"o":"m 263 -6 q 232 -10 247 -3 q 201 -19 217 -17 q 169 -8 186 -22 q 161 5 165 -1 q 156 17 157 11 q 136 235 142 128 q 124 424 131 342 q 107 624 115 528 q 69 822 99 719 q 85 890 75 860 q 139 940 96 919 q 310 951 225 956 q 481 926 396 946 q 622 849 579 904 q 629 701 665 793 q 590 643 619 675 q 550 586 561 611 q 563 569 551 575 q 590 562 575 564 q 614 556 606 560 q 688 526 653 543 q 754 482 724 508 q 810 426 794 450 q 824 354 826 403 q 781 233 819 286 q 719 163 754 194 q 642 111 685 132 q 583 83 613 96 q 524 58 554 69 q 422 22 474 39 q 318 -15 371 4 l 263 -6 m 253 74 q 276 73 261 74 q 301 74 292 72 q 438 118 371 93 q 569 174 506 143 q 606 196 589 182 q 642 224 624 210 q 697 288 675 250 q 715 367 719 326 q 665 443 711 408 q 626 471 654 453 q 558 500 597 489 q 475 499 519 511 l 328 444 q 295 460 301 453 q 290 501 289 467 q 307 521 299 510 q 328 539 315 532 q 358 559 342 550 q 389 575 374 568 q 465 624 431 593 q 522 692 500 654 q 547 750 543 725 q 526 811 550 775 q 511 824 519 818 q 493 835 503 831 q 428 850 463 847 q 323 856 378 854 q 218 850 268 857 q 198 843 208 849 q 176 833 188 838 q 175 757 169 794 q 186 694 181 719 q 201 580 197 647 q 210 450 206 513 q 222 297 215 386 q 236 115 229 208 q 242 97 236 110 q 253 74 249 83 z "},"Ḅ":{"ha":882,"x_min":68,"x_max":833,"o":"m 299 -40 q 211 47 215 -46 q 239 47 225 50 q 267 44 253 44 q 389 83 336 47 q 490 157 442 118 q 615 278 556 210 q 707 424 675 346 q 726 488 719 454 q 704 549 732 522 q 636 572 675 578 q 565 553 597 567 q 522 528 543 543 q 482 497 501 513 q 415 444 447 471 q 347 392 383 417 q 290 373 318 372 q 246 394 263 374 q 239 428 232 411 q 263 463 246 446 q 293 492 279 479 q 363 553 325 524 q 439 604 400 582 q 497 656 479 625 q 522 726 515 688 q 532 804 528 764 q 508 885 536 861 q 424 906 481 908 q 349 890 390 903 q 272 860 308 878 q 213 821 236 842 q 194 774 194 803 q 193 718 194 744 q 185 482 188 600 q 179 244 183 364 q 172 162 178 203 q 161 81 167 121 q 142 47 158 57 q 104 43 126 38 q 81 56 93 46 q 69 92 68 67 q 85 347 85 219 q 85 601 85 474 q 97 856 85 729 q 113 898 100 883 q 140 919 125 913 q 221 950 181 939 q 301 974 261 961 q 368 992 335 982 q 435 1004 401 1003 q 553 978 503 1008 q 627 894 603 947 q 639 775 651 840 q 620 731 635 754 q 603 689 606 707 q 686 678 646 689 q 761 632 726 667 q 801 583 786 607 q 822 526 817 558 q 819 409 833 454 q 771 315 806 364 q 603 131 694 214 q 396 -11 511 47 q 348 -29 374 -21 q 299 -40 322 -37 m 361 -276 q 293 -229 311 -268 q 290 -212 292 -224 q 289 -194 289 -201 q 333 -137 304 -160 q 396 -115 363 -115 q 437 -134 419 -115 q 454 -186 454 -153 q 443 -232 454 -210 q 369 -276 431 -253 l 361 -276 z "},"Ɓ":{"ha":1079,"x_min":68,"x_max":1031,"o":"m 382 3 q 320 40 346 6 q 296 118 294 74 q 290 290 297 213 q 281 460 283 367 q 280 599 279 521 q 278 739 281 678 q 276 757 278 747 q 283 775 275 767 q 317 785 290 783 q 372 740 361 768 q 378 680 383 713 q 369 615 372 647 q 381 558 365 583 q 492 597 435 568 q 593 664 550 626 q 644 736 636 701 q 602 781 635 767 q 528 802 569 796 q 450 814 488 808 q 377 818 417 821 q 299 813 338 815 q 225 817 260 811 q 200 803 213 818 q 180 770 188 789 q 172 738 172 751 l 172 682 q 154 660 172 663 q 114 667 136 657 q 78 697 92 678 q 69 763 68 718 q 90 850 71 807 q 100 867 96 860 q 110 881 104 875 q 178 919 118 890 q 232 926 208 925 q 276 928 253 929 q 317 924 300 926 q 457 919 397 925 q 567 900 517 913 q 669 868 618 888 q 740 815 719 851 q 758 735 761 778 q 731 653 756 692 q 664 592 706 614 q 653 587 660 590 q 635 575 647 583 q 753 544 699 557 q 858 511 808 531 q 973 425 932 482 q 1022 293 1014 368 q 990 176 1031 222 q 892 94 949 131 q 730 23 814 44 q 558 -1 646 1 q 382 3 471 -3 m 456 92 q 551 99 508 96 q 643 114 594 103 q 784 160 717 131 q 894 258 851 190 q 910 304 906 276 q 906 347 914 332 q 863 403 888 375 q 808 440 838 432 q 667 481 738 464 q 526 494 596 497 q 382 450 456 490 q 383 305 382 375 q 382 165 385 235 q 397 108 381 125 q 456 92 413 90 z "},"Ƀ":{"ha":879,"x_min":-86,"x_max":826,"o":"m 263 -6 q 232 -10 247 -3 q 201 -19 217 -17 q 169 -8 186 -22 q 161 5 165 -1 q 156 17 157 11 q 136 235 142 128 q 124 424 131 342 q 107 624 115 528 q 69 822 99 719 q 85 890 75 860 q 139 940 96 919 q 310 951 225 956 q 481 926 396 946 q 622 849 579 904 q 629 701 665 793 q 590 643 619 675 q 550 586 561 611 q 563 569 551 575 q 590 562 575 564 q 614 556 606 560 q 688 526 653 543 q 754 482 724 508 q 810 426 794 450 q 824 354 826 403 q 781 233 819 286 q 719 163 754 194 q 642 111 685 132 q 583 83 613 96 q 524 58 554 69 q 422 22 474 39 q 318 -15 371 4 l 263 -6 m 253 74 q 276 73 261 74 q 301 74 292 72 q 438 118 371 93 q 569 174 506 143 q 606 196 589 182 q 642 224 624 210 q 697 288 675 250 q 715 367 719 326 q 665 443 711 408 q 626 471 654 453 q 558 500 597 489 q 475 499 519 511 l 328 444 q 295 460 301 453 q 290 501 289 467 q 307 521 299 510 q 328 539 315 532 q 358 559 342 550 q 389 575 374 568 q 465 624 431 593 q 522 692 500 654 q 547 750 543 725 q 526 811 550 775 q 511 824 519 818 q 493 835 503 831 q 428 850 463 847 q 323 856 378 854 q 218 850 268 857 q 198 843 208 849 q 176 833 188 838 q 175 757 169 794 q 186 694 181 719 q 201 580 197 647 q 210 450 206 513 q 222 297 215 386 q 236 115 229 208 q 242 97 236 110 q 253 74 249 83 m -14 190 q -69 209 -51 190 q -85 253 -86 228 q -68 296 -85 278 q 160 288 46 274 q 376 333 275 303 q 408 279 413 294 q 357 249 404 264 q 174 206 272 222 q -14 190 76 190 z "},"C":{"ha":988,"x_min":97,"x_max":954,"o":"m 622 -22 q 463 -55 543 -49 q 304 -18 382 -61 q 153 140 199 43 q 99 354 107 238 q 97 376 97 365 q 97 396 97 386 q 154 665 97 544 q 329 874 211 785 q 415 913 363 900 q 522 919 467 925 q 622 886 576 914 q 688 803 667 858 q 700 759 696 781 q 675 731 704 738 q 631 733 657 726 q 593 754 606 740 q 521 819 551 803 q 457 824 490 836 q 371 772 424 811 q 263 648 303 722 q 209 489 224 574 q 202 322 194 404 q 238 172 210 239 q 310 81 263 114 q 414 38 358 47 q 514 39 469 28 q 691 104 607 64 q 850 204 775 144 q 863 217 857 210 q 876 226 869 225 q 942 226 931 242 q 924 174 954 211 q 788 53 865 100 q 622 -22 710 7 z "},"Ć":{"ha":907,"x_min":85,"x_max":865,"o":"m 271 1022 q 262 1057 260 1038 q 278 1089 264 1076 q 335 1144 308 1117 q 390 1199 363 1171 q 447 1251 418 1225 q 504 1304 476 1276 q 557 1308 532 1326 q 588 1260 585 1290 q 563 1210 590 1229 q 451 1126 500 1174 q 347 1033 401 1078 q 308 1010 335 1017 q 271 1022 282 1003 m 635 -25 q 420 15 517 -17 q 251 117 324 46 q 131 314 178 189 q 101 553 85 438 q 190 758 117 669 q 385 889 263 847 q 565 903 475 919 q 740 842 656 886 q 759 826 751 836 q 775 806 767 815 q 772 794 774 800 q 768 783 771 789 q 715 792 742 789 q 664 803 689 794 q 488 812 575 829 q 333 741 401 794 q 229 603 264 688 q 200 456 199 531 q 229 313 201 381 q 306 190 257 244 q 422 103 356 135 q 567 68 489 71 q 690 83 628 67 q 814 108 753 99 q 852 99 839 111 q 865 75 865 86 q 832 36 865 61 q 746 -8 799 11 q 635 -25 693 -28 z "},"Č":{"ha":1043,"x_min":85,"x_max":865,"o":"m 408 944 q 348 969 376 953 q 300 1024 319 986 q 272 1085 283 1060 q 256 1126 261 1111 q 244 1160 244 1157 q 262 1192 244 1179 q 307 1204 279 1204 l 353 1107 q 424 1029 372 1051 q 565 1154 518 1104 q 585 1176 569 1160 q 621 1207 601 1192 q 651 1222 640 1222 q 676 1183 676 1208 q 658 1144 676 1161 q 493 978 539 1039 q 408 944 453 932 m 635 -25 q 420 15 517 -17 q 251 117 324 46 q 131 314 178 189 q 101 553 85 438 q 190 758 117 669 q 385 889 263 847 q 565 903 475 919 q 740 842 656 886 q 759 826 751 836 q 775 806 767 815 q 772 794 774 800 q 768 783 771 789 q 715 792 742 789 q 664 803 689 794 q 488 812 575 829 q 333 741 401 794 q 229 603 264 688 q 200 456 199 531 q 229 313 201 381 q 306 190 257 244 q 422 103 356 135 q 567 68 489 71 q 690 83 628 67 q 814 108 753 99 q 852 99 839 111 q 865 75 865 86 q 832 36 865 61 q 746 -8 799 11 q 635 -25 693 -28 z "},"Ç":{"ha":907,"x_min":85,"x_max":865,"o":"m 451 -279 q 413 -249 428 -264 q 389 -212 397 -235 q 392 -187 386 -199 q 407 -174 397 -175 q 431 -174 426 -169 q 439 -186 436 -178 q 451 -203 442 -194 q 490 -215 461 -211 q 540 -219 515 -218 q 586 -206 564 -221 q 612 -182 603 -196 q 618 -150 621 -168 q 596 -126 615 -139 q 552 -99 576 -112 q 508 -72 528 -85 q 483 -47 488 -58 q 477 15 471 -12 q 506 74 483 43 q 540 99 515 96 q 586 93 565 103 q 606 65 607 83 q 595 44 606 54 q 578 19 585 35 q 581 -25 571 4 q 628 -72 604 -54 q 668 -102 651 -89 q 689 -133 685 -115 q 679 -212 697 -175 q 626 -272 661 -249 q 549 -293 590 -294 q 498 -288 524 -293 q 451 -279 472 -283 m 635 15 q 420 55 517 24 q 251 158 324 86 q 131 354 178 229 q 101 594 85 478 q 190 799 117 710 q 385 929 263 888 q 565 943 475 960 q 740 882 656 926 q 759 866 751 876 q 775 846 767 856 q 772 835 774 840 q 768 824 771 829 q 715 832 742 829 q 664 843 689 835 q 488 852 575 869 q 333 781 401 835 q 229 643 264 728 q 200 496 199 571 q 229 353 201 421 q 306 230 257 285 q 422 143 356 175 q 567 108 489 111 q 690 123 628 107 q 814 149 753 139 q 852 139 839 151 q 865 115 865 126 q 832 76 865 101 q 746 32 799 51 q 635 15 693 13 z "},"Ĉ":{"ha":988,"x_min":97,"x_max":954,"o":"m 622 -22 q 463 -55 543 -49 q 304 -18 382 -61 q 153 140 199 43 q 99 354 107 238 q 97 376 97 365 q 97 396 97 386 q 154 665 97 544 q 329 874 211 785 q 415 913 363 900 q 522 919 467 925 q 622 886 576 914 q 688 803 667 858 q 700 759 696 781 q 675 731 704 738 q 631 733 657 726 q 593 754 606 740 q 521 819 551 803 q 457 824 490 836 q 371 772 424 811 q 263 648 303 722 q 209 489 224 574 q 202 322 194 404 q 238 172 210 239 q 310 81 263 114 q 414 38 358 47 q 514 39 469 28 q 691 104 607 64 q 850 204 775 144 q 863 217 857 210 q 876 226 869 225 q 942 226 931 242 q 924 174 954 211 q 788 53 865 100 q 622 -22 710 7 m 693 944 q 645 970 674 944 q 588 1033 617 996 q 540 1107 560 1071 q 476 1115 513 1160 q 462 1103 479 1118 q 419 1063 444 1088 q 367 1015 393 1039 q 325 974 342 990 q 310 958 308 957 q 280 959 297 954 q 251 974 263 964 q 245 994 246 976 q 251 1019 244 1013 q 296 1064 278 1046 q 331 1099 314 1082 q 372 1138 349 1117 q 429 1193 394 1160 q 524 1242 486 1246 q 601 1174 561 1239 q 633 1128 621 1143 q 656 1103 646 1114 q 677 1078 665 1093 q 707 1032 689 1064 q 717 1011 714 1022 q 726 983 721 1000 q 710 959 718 974 q 693 944 701 944 z "},"Ċ":{"ha":988,"x_min":97,"x_max":954,"o":"m 622 -22 q 463 -55 543 -49 q 304 -18 382 -61 q 153 140 199 43 q 99 354 107 238 q 97 376 97 365 q 97 396 97 386 q 154 665 97 544 q 329 874 211 785 q 415 913 363 900 q 522 919 467 925 q 622 886 576 914 q 688 803 667 858 q 700 759 696 781 q 675 731 704 738 q 631 733 657 726 q 593 754 606 740 q 521 819 551 803 q 457 824 490 836 q 371 772 424 811 q 263 648 303 722 q 209 489 224 574 q 202 322 194 404 q 238 172 210 239 q 310 81 263 114 q 414 38 358 47 q 514 39 469 28 q 691 104 607 64 q 850 204 775 144 q 863 217 857 210 q 876 226 869 225 q 942 226 931 242 q 924 174 954 211 q 788 53 865 100 q 622 -22 710 7 m 440 1094 q 387 1069 417 1075 q 313 1097 357 1064 q 308 1133 307 1110 q 332 1165 308 1157 q 361 1177 346 1174 q 392 1182 376 1181 l 433 1165 q 440 1094 464 1135 z "},"Ƈ":{"ha":989,"x_min":85,"x_max":956,"o":"m 635 1 q 420 41 517 10 q 251 144 324 72 q 131 340 178 215 q 101 580 85 464 q 190 785 117 696 q 385 915 263 874 q 533 933 458 940 q 676 897 607 925 q 675 933 674 914 q 686 975 676 953 q 699 997 692 985 q 718 1022 707 1008 q 800 1078 740 1049 q 901 1081 871 1092 q 944 1033 932 1056 q 932 1001 956 1011 q 833 999 908 990 q 808 980 821 1000 q 788 935 796 960 q 781 896 781 910 l 790 832 q 776 810 793 814 q 739 815 760 807 q 701 820 719 817 q 664 829 682 824 q 488 838 575 856 q 333 767 401 821 q 229 629 264 714 q 200 482 199 557 q 229 339 201 407 q 306 216 257 271 q 422 129 356 161 q 567 94 489 97 q 690 109 628 93 q 814 135 753 125 q 852 125 839 138 q 865 101 865 113 q 832 63 865 88 q 746 18 799 38 q 635 1 693 -1 z "},"D":{"ha":957,"x_min":83,"x_max":869,"o":"m 385 -43 q 333 -49 360 -49 q 281 -39 307 -50 q 238 -5 256 -25 q 213 50 221 15 q 235 128 217 94 q 267 197 253 163 q 272 381 272 297 q 272 544 272 465 q 274 708 271 624 q 285 889 276 792 q 250 914 276 896 q 188 949 224 932 q 111 968 151 965 q 89 979 94 975 q 83 990 83 983 q 99 1017 88 1006 q 119 1029 111 1028 q 165 1036 142 1035 q 210 1035 188 1038 q 261 1023 235 1031 q 310 1003 288 1015 q 503 896 407 950 q 683 768 599 842 q 781 669 736 722 q 844 550 826 615 q 853 398 869 461 q 778 260 836 335 q 619 96 708 167 q 428 -28 531 25 q 407 -37 418 -33 q 385 -43 396 -40 m 375 76 q 405 69 390 67 q 433 76 419 71 q 536 138 486 101 q 626 215 586 175 q 727 325 692 276 q 769 432 763 374 q 758 513 769 482 q 728 579 747 544 q 702 626 715 603 q 669 667 689 649 q 543 772 610 724 q 399 851 476 821 q 380 853 385 856 q 372 847 375 850 q 365 840 367 842 q 363 822 364 838 q 360 738 361 796 q 359 603 360 679 q 358 447 358 528 q 359 294 358 367 q 361 169 360 221 q 364 101 363 118 q 369 90 364 96 q 375 76 374 83 z "},"Ð":{"ha":974,"x_min":83,"x_max":883,"o":"m 101 513 q 239 500 171 500 q 220 665 238 583 q 189 831 203 746 q 176 875 185 856 q 167 912 168 894 q 185 944 167 929 q 235 953 213 968 q 283 911 258 938 q 292 906 286 908 q 307 900 297 904 q 449 942 379 940 q 586 920 518 944 q 719 856 654 896 q 827 754 789 815 q 874 626 865 693 q 863 496 883 558 q 737 277 819 369 q 550 108 654 185 q 477 63 513 82 q 399 21 442 43 q 356 -2 381 11 q 313 -19 332 -15 q 263 -23 286 -25 q 199 -7 240 -21 q 217 200 207 96 q 235 410 226 304 q 195 408 215 408 q 156 407 175 407 q 101 426 118 407 q 84 469 83 444 q 101 513 85 494 m 319 97 q 417 125 364 96 q 524 203 469 154 q 626 313 578 253 q 712 434 675 372 q 767 550 749 496 q 763 640 782 593 q 711 722 743 688 q 595 805 660 775 q 451 824 531 835 q 349 783 379 814 q 319 681 318 751 q 322 593 321 638 q 324 504 322 549 q 438 522 382 510 q 546 550 494 535 q 578 496 582 511 q 526 465 574 481 q 428 440 479 451 q 324 419 376 428 q 324 333 324 376 q 322 247 324 290 l 319 97 z "},"Ď":{"ha":917,"x_min":81,"x_max":828,"o":"m 374 956 q 313 981 342 964 q 265 1035 285 997 q 238 1097 249 1071 q 221 1138 226 1122 q 210 1171 210 1168 q 227 1203 210 1190 q 272 1215 244 1215 l 318 1118 q 389 1040 338 1063 q 531 1165 483 1115 q 551 1187 535 1171 q 586 1218 567 1203 q 617 1233 606 1233 q 642 1194 642 1219 q 624 1156 642 1172 q 458 989 504 1050 q 374 956 418 943 m 194 -71 q 195 157 194 42 q 193 388 196 272 q 164 577 192 486 q 113 763 136 668 q 97 807 107 788 q 83 843 86 826 q 97 876 81 860 q 147 888 122 901 q 199 851 172 875 q 208 847 201 849 q 224 843 214 846 q 361 897 292 889 q 500 887 431 906 q 639 835 569 868 q 755 744 711 801 q 813 619 799 686 q 813 489 828 553 q 707 259 782 358 q 535 75 632 160 q 466 22 500 44 q 392 -25 432 0 q 351 -51 375 -36 q 310 -72 328 -67 q 260 -81 283 -81 q 194 -71 238 -81 m 306 44 q 400 81 350 47 q 499 167 450 114 q 592 285 549 221 q 667 413 636 349 q 713 533 699 478 q 701 624 724 578 q 642 700 678 669 q 519 772 586 749 q 374 779 451 796 q 275 730 303 764 q 256 625 247 696 q 278 410 268 518 q 296 193 289 301 l 306 44 z "},"Ḓ":{"ha":957,"x_min":83,"x_max":869,"o":"m 385 43 q 333 37 360 38 q 281 47 307 36 q 238 81 256 61 q 213 136 221 101 q 235 215 217 181 q 267 283 253 249 q 272 467 272 383 q 272 631 272 551 q 274 794 271 710 q 285 975 276 878 q 250 1000 276 982 q 188 1035 224 1018 q 111 1054 151 1051 q 89 1065 94 1061 q 83 1076 83 1069 q 99 1103 88 1092 q 119 1115 111 1114 q 165 1122 142 1121 q 210 1121 188 1124 q 261 1109 235 1117 q 310 1089 288 1101 q 503 982 407 1036 q 683 854 599 928 q 781 755 736 808 q 844 636 826 701 q 853 484 869 547 q 778 346 836 421 q 619 182 708 253 q 428 58 531 111 q 407 49 418 53 q 385 43 396 46 m 375 163 q 405 155 390 153 q 433 163 419 157 q 536 224 486 188 q 626 301 586 261 q 727 411 692 363 q 769 518 763 460 q 758 599 769 568 q 728 665 747 631 q 702 712 715 689 q 669 753 689 735 q 543 858 610 810 q 399 938 476 907 q 380 939 385 942 q 372 933 375 936 q 365 926 367 928 q 363 908 364 924 q 360 824 361 882 q 359 690 360 765 q 358 533 358 614 q 359 380 358 453 q 361 256 360 307 q 364 188 363 204 q 369 176 364 182 q 375 163 374 169 m 696 -281 q 648 -255 676 -281 q 591 -192 619 -229 q 543 -118 563 -154 q 479 -110 515 -65 q 465 -122 482 -107 q 422 -162 447 -137 q 370 -210 396 -186 q 328 -251 344 -235 q 313 -267 311 -268 q 283 -266 300 -271 q 254 -251 265 -261 q 248 -231 249 -249 q 254 -206 247 -212 q 299 -161 281 -179 q 334 -126 317 -143 q 374 -87 351 -108 q 432 -32 397 -65 q 526 17 489 21 q 604 -51 564 14 q 636 -97 624 -82 q 658 -122 649 -111 q 680 -147 668 -132 q 710 -193 692 -161 q 720 -214 717 -203 q 729 -242 724 -225 q 713 -266 721 -251 q 696 -281 704 -281 z "},"Đ":{"ha":974,"x_min":83,"x_max":883,"o":"m 101 513 q 239 500 171 500 q 220 665 238 583 q 189 831 203 746 q 176 875 185 856 q 167 912 168 894 q 185 944 167 929 q 235 953 213 968 q 283 911 258 938 q 292 906 286 908 q 307 900 297 904 q 449 942 379 940 q 586 920 518 944 q 719 856 654 896 q 827 754 789 815 q 874 626 865 693 q 863 496 883 558 q 737 277 819 369 q 550 108 654 185 q 477 63 513 82 q 399 21 442 43 q 356 -2 381 11 q 313 -19 332 -15 q 263 -23 286 -25 q 199 -7 240 -21 q 217 200 207 96 q 235 410 226 304 q 195 408 215 408 q 156 407 175 407 q 101 426 118 407 q 84 469 83 444 q 101 513 85 494 m 319 97 q 417 125 364 96 q 524 203 469 154 q 626 313 578 253 q 712 434 675 372 q 767 550 749 496 q 763 640 782 593 q 711 722 743 688 q 595 805 660 775 q 451 824 531 835 q 349 783 379 814 q 319 681 318 751 q 322 593 321 638 q 324 504 322 549 q 438 522 382 510 q 546 550 494 535 q 578 496 582 511 q 526 465 574 481 q 428 440 479 451 q 324 419 376 428 q 324 333 324 376 q 322 247 324 290 l 319 97 z "},"Ḍ":{"ha":957,"x_min":83,"x_max":869,"o":"m 385 -43 q 333 -49 360 -49 q 281 -39 307 -50 q 238 -5 256 -25 q 213 50 221 15 q 235 128 217 94 q 267 197 253 163 q 272 381 272 297 q 272 544 272 465 q 274 708 271 624 q 285 889 276 792 q 250 914 276 896 q 188 949 224 932 q 111 968 151 965 q 89 979 94 975 q 83 990 83 983 q 99 1017 88 1006 q 119 1029 111 1028 q 165 1036 142 1035 q 210 1035 188 1038 q 261 1023 235 1031 q 310 1003 288 1015 q 503 896 407 950 q 683 768 599 842 q 781 669 736 722 q 844 550 826 615 q 853 398 869 461 q 778 260 836 335 q 619 96 708 167 q 428 -28 531 25 q 407 -37 418 -33 q 385 -43 396 -40 m 375 76 q 405 69 390 67 q 433 76 419 71 q 536 138 486 101 q 626 215 586 175 q 727 325 692 276 q 769 432 763 374 q 758 513 769 482 q 728 579 747 544 q 702 626 715 603 q 669 667 689 649 q 543 772 610 724 q 399 851 476 821 q 380 853 385 856 q 372 847 375 850 q 365 840 367 842 q 363 822 364 838 q 360 738 361 796 q 359 603 360 679 q 358 447 358 528 q 359 294 358 367 q 361 169 360 221 q 364 101 363 118 q 369 90 364 96 q 375 76 374 83 m 350 -249 q 282 -201 300 -240 q 279 -185 281 -196 q 278 -167 278 -174 q 322 -110 293 -132 q 385 -87 351 -87 q 426 -106 408 -87 q 443 -158 443 -125 q 432 -204 443 -182 q 358 -249 419 -225 l 350 -249 z "},"Ɗ":{"ha":993,"x_min":-68,"x_max":901,"o":"m 497 14 q 402 -29 444 -24 q 317 -17 360 -35 q 222 35 275 0 q 156 106 171 68 q 141 184 140 143 q 139 264 142 225 q 136 448 135 356 q 139 633 138 540 q 146 709 140 672 q 153 785 151 746 q 170 823 154 813 q 208 829 186 833 q 253 763 256 821 q 239 436 244 597 q 228 117 233 275 q 289 101 258 103 q 342 97 319 100 q 402 95 367 94 q 457 110 438 96 q 615 248 549 179 q 725 403 682 317 q 788 610 768 489 q 771 699 796 654 q 701 781 746 744 q 606 835 657 817 q 456 868 526 863 q 313 869 385 874 q 161 865 242 865 q 89 846 135 857 q 53 815 69 842 q 36 767 36 788 l 36 711 q 18 689 36 692 q -22 697 0 686 q -58 726 -44 707 q -67 792 -68 747 q -46 879 -65 836 q -36 897 -40 889 q -26 910 -32 904 q 42 949 -18 919 q 99 956 74 956 q 160 966 129 961 q 222 969 192 971 q 441 958 338 968 q 650 928 544 949 q 792 859 729 911 q 881 725 856 807 q 897 635 892 683 q 890 547 901 588 q 742 246 843 378 q 497 14 640 114 z "},"Ḏ":{"ha":957,"x_min":60,"x_max":869,"o":"m 385 -43 q 333 -49 360 -49 q 281 -39 307 -50 q 238 -5 256 -25 q 213 50 221 15 q 235 128 217 94 q 267 197 253 163 q 272 381 272 297 q 272 544 272 465 q 274 708 271 624 q 285 889 276 792 q 250 914 276 896 q 188 949 224 932 q 111 968 151 965 q 89 979 94 975 q 83 990 83 983 q 99 1017 88 1006 q 119 1029 111 1028 q 165 1036 142 1035 q 210 1035 188 1038 q 261 1023 235 1031 q 310 1003 288 1015 q 503 896 407 950 q 683 768 599 842 q 781 669 736 722 q 844 550 826 615 q 853 398 869 461 q 778 260 836 335 q 619 96 708 167 q 428 -28 531 25 q 407 -37 418 -33 q 385 -43 396 -40 m 375 76 q 405 69 390 67 q 433 76 419 71 q 536 138 486 101 q 626 215 586 175 q 727 325 692 276 q 769 432 763 374 q 758 513 769 482 q 728 579 747 544 q 702 626 715 603 q 669 667 689 649 q 543 772 610 724 q 399 851 476 821 q 380 853 385 856 q 372 847 375 850 q 365 840 367 842 q 363 822 364 838 q 360 738 361 796 q 359 603 360 679 q 358 447 358 528 q 359 294 358 367 q 361 169 360 221 q 364 101 363 118 q 369 90 364 96 q 375 76 374 83 m 318 -217 q 106 -178 143 -222 q 279 -125 60 -133 q 293 -125 279 -125 q 333 -124 307 -125 q 435 -128 386 -121 q 499 -134 472 -132 q 542 -135 526 -136 q 617 -126 576 -133 q 696 -115 658 -118 q 758 -124 733 -111 q 722 -207 818 -179 q 664 -212 697 -210 q 590 -212 631 -214 q 524 -212 547 -212 q 494 -214 500 -212 q 391 -212 435 -211 q 318 -217 347 -214 z "},"Ɖ":{"ha":957,"x_min":47,"x_max":869,"o":"m 385 -43 q 333 -49 360 -49 q 281 -39 307 -50 q 238 -5 256 -25 q 213 50 221 15 q 235 128 217 94 q 267 197 253 163 q 272 381 272 297 q 272 544 272 465 q 274 708 271 624 q 285 889 276 792 q 250 914 276 896 q 188 949 224 932 q 111 968 151 965 q 89 979 94 975 q 83 990 83 983 q 99 1017 88 1006 q 119 1029 111 1028 q 165 1036 142 1035 q 210 1035 188 1038 q 261 1023 235 1031 q 310 1003 288 1015 q 503 896 407 950 q 683 768 599 842 q 781 669 736 722 q 844 550 826 615 q 853 398 869 461 q 778 260 836 335 q 619 96 708 167 q 428 -28 531 25 q 407 -37 418 -33 q 385 -43 396 -40 m 375 76 q 405 69 390 67 q 433 76 419 71 q 536 138 486 101 q 626 215 586 175 q 727 325 692 276 q 769 432 763 374 q 758 513 769 482 q 728 579 747 544 q 702 626 715 603 q 669 667 689 649 q 543 772 610 724 q 399 851 476 821 q 380 853 385 856 q 372 847 375 850 q 365 840 367 842 q 363 822 364 838 q 360 738 361 796 q 359 603 360 679 q 358 447 358 528 q 359 294 358 367 q 361 169 360 221 q 364 101 363 118 q 369 90 364 96 q 375 76 374 83 m 239 415 q 81 454 108 410 q 210 507 47 499 q 220 507 210 507 q 250 508 231 507 q 325 504 290 511 q 373 498 353 500 q 404 497 393 496 q 461 506 431 499 q 519 517 492 514 q 565 508 547 521 q 539 425 610 453 q 496 420 521 422 q 440 419 471 418 q 392 419 410 419 q 369 418 374 419 q 292 419 325 421 q 239 415 260 418 z "},"E":{"ha":811,"x_min":81,"x_max":760,"o":"m 417 8 q 310 19 364 -6 q 218 97 257 43 q 167 224 179 150 q 156 424 151 325 q 176 622 160 524 q 189 731 183 676 q 201 840 194 785 q 147 853 175 849 q 106 868 119 858 q 84 913 81 888 q 118 950 88 938 q 174 954 144 958 q 427 941 301 936 q 679 958 553 946 q 713 960 696 960 q 744 961 731 960 q 753 890 760 910 q 706 865 746 871 q 569 853 638 858 q 433 840 501 849 q 368 835 401 839 q 299 829 335 832 l 260 503 q 419 532 346 513 q 560 596 493 551 q 583 613 571 603 q 607 629 594 624 q 646 633 628 640 q 671 607 664 626 q 674 576 676 596 q 663 547 671 557 q 624 515 646 529 q 579 490 603 500 q 447 444 514 465 q 313 399 379 422 q 290 389 301 393 q 264 381 279 385 q 260 336 263 358 q 258 292 257 314 q 279 185 258 236 q 342 108 300 133 q 446 103 385 82 q 524 135 486 115 q 599 169 561 154 q 633 190 617 179 q 667 200 650 200 q 699 199 682 201 q 726 183 715 197 q 722 162 729 181 q 704 138 715 143 q 618 88 663 111 q 528 42 574 64 q 473 22 501 29 q 417 8 444 15 z "},"É":{"ha":842,"x_min":81,"x_max":786,"o":"m 214 994 q 205 1029 203 1010 q 221 1061 207 1049 q 278 1116 251 1089 q 333 1171 306 1143 q 390 1223 361 1197 q 447 1276 419 1249 q 500 1281 475 1299 q 531 1232 528 1263 q 506 1182 533 1201 q 394 1098 443 1146 q 290 1006 344 1050 q 251 982 278 989 q 214 994 225 975 m 350 -26 q 225 26 283 -17 q 129 133 167 69 q 85 268 92 197 q 92 399 81 333 q 125 528 104 464 q 165 653 146 592 q 176 697 169 672 q 193 744 183 721 q 156 763 178 758 q 122 776 133 767 q 103 820 100 800 q 136 850 106 840 q 201 869 168 865 q 268 878 235 874 q 472 893 371 889 q 678 882 572 897 q 704 883 683 882 q 749 875 725 883 q 786 839 774 867 q 760 814 782 821 q 710 807 738 807 q 661 807 683 807 q 518 804 589 810 q 376 797 447 799 q 311 770 333 797 q 277 704 289 743 q 250 628 265 665 q 238 583 243 607 q 225 531 232 558 q 453 523 339 508 q 669 568 568 538 q 701 514 706 529 q 650 483 697 499 q 467 441 565 457 q 279 425 369 425 q 224 419 242 425 q 200 394 206 414 q 194 335 194 375 q 199 280 196 308 q 210 224 203 251 q 273 110 229 156 q 388 67 317 65 q 463 72 421 69 q 548 83 506 75 q 622 104 590 90 q 646 100 631 110 q 675 83 661 90 q 664 53 668 71 q 649 32 660 36 q 503 -15 578 7 q 350 -26 429 -36 z "},"Ĕ":{"ha":808,"x_min":82,"x_max":754,"o":"m 396 976 q 279 1021 324 969 q 232 1100 249 1051 q 211 1188 215 1149 q 230 1200 210 1199 q 272 1197 250 1201 q 294 1182 293 1193 q 335 1089 300 1131 q 405 1063 364 1054 q 472 1097 446 1071 q 495 1128 488 1113 q 508 1165 503 1143 q 508 1181 511 1174 q 515 1190 506 1188 q 576 1187 553 1197 q 597 1151 599 1176 q 583 1104 596 1128 q 556 1064 569 1081 q 536 1043 543 1047 q 467 998 501 1018 q 396 976 433 978 m 679 843 q 720 824 711 839 q 715 794 729 808 q 667 778 701 779 q 612 773 658 776 q 497 765 565 769 q 351 755 428 760 q 206 746 275 750 q 172 753 189 744 q 139 768 156 761 q 167 808 153 785 q 197 833 181 831 q 323 854 260 846 q 449 863 386 863 q 516 860 490 861 q 563 857 542 858 q 611 852 585 856 q 679 843 638 849 m 533 121 q 632 159 583 136 q 731 204 681 182 q 752 142 754 169 q 707 92 750 115 q 510 8 611 43 q 299 -40 408 -28 q 179 -33 226 -49 q 108 32 132 -18 q 83 176 85 82 q 87 310 82 238 q 99 460 92 383 q 108 610 106 538 q 108 656 111 632 q 108 701 106 679 q 121 730 111 714 q 139 746 131 746 q 170 737 151 746 q 190 719 189 728 q 203 633 199 682 q 208 546 207 583 q 205 508 210 529 q 194 451 200 488 q 390 489 299 471 q 572 521 482 507 q 613 517 589 524 q 642 500 636 511 q 639 459 658 471 q 597 436 619 447 q 420 382 511 396 q 236 364 329 368 q 205 349 222 363 q 185 322 188 335 q 177 203 179 250 q 179 118 175 157 q 209 65 181 78 q 271 57 238 51 q 403 85 338 69 q 533 121 469 100 z "},"Ě":{"ha":797,"x_min":67,"x_max":772,"o":"m 357 953 q 297 978 325 961 q 249 1032 268 994 q 221 1094 232 1068 q 204 1135 210 1119 q 193 1168 193 1165 q 210 1200 193 1188 q 256 1213 228 1213 l 301 1115 q 372 1038 321 1060 q 514 1163 467 1113 q 534 1184 518 1168 q 569 1215 550 1200 q 600 1231 589 1231 q 625 1192 625 1217 q 607 1153 625 1169 q 442 986 488 1047 q 357 953 401 940 m 336 -35 q 211 18 269 -25 q 115 125 153 61 q 71 260 78 189 q 78 390 67 325 q 111 519 90 456 q 151 644 132 583 q 163 688 156 664 q 179 736 169 713 q 142 754 164 750 q 108 768 119 758 q 89 812 86 792 q 122 842 92 832 q 188 861 154 857 q 254 869 221 865 q 458 885 357 881 q 664 874 558 889 q 690 874 669 874 q 735 867 711 875 q 772 831 760 858 q 746 806 768 813 q 697 799 724 799 q 647 799 669 799 q 504 796 575 801 q 363 789 433 790 q 297 762 319 789 q 263 696 275 735 q 236 619 251 657 q 224 574 229 599 q 211 522 218 550 q 440 515 325 500 q 656 560 554 529 q 688 506 692 521 q 636 475 683 490 q 453 433 551 449 q 265 417 356 417 q 210 411 228 417 q 186 386 192 406 q 181 326 181 367 q 185 272 182 300 q 196 215 189 243 q 259 102 215 147 q 374 58 303 57 q 449 64 407 61 q 534 74 492 67 q 608 96 576 82 q 632 92 617 101 q 661 75 647 82 q 650 45 654 63 q 635 24 646 28 q 490 -23 564 -1 q 336 -35 415 -44 z "},"Ȩ":{"ha":811,"x_min":81,"x_max":760,"o":"m 417 8 q 310 19 364 -6 q 218 97 257 43 q 167 224 179 150 q 156 424 151 325 q 176 622 160 524 q 189 731 183 676 q 201 840 194 785 q 147 853 175 849 q 106 868 119 858 q 84 913 81 888 q 118 950 88 938 q 174 954 144 958 q 427 941 301 936 q 679 958 553 946 q 713 960 696 960 q 744 961 731 960 q 753 890 760 910 q 706 865 746 871 q 569 853 638 858 q 433 840 501 849 q 368 835 401 839 q 299 829 335 832 l 260 503 q 419 532 346 513 q 560 596 493 551 q 583 613 571 603 q 607 629 594 624 q 646 633 628 640 q 671 607 664 626 q 674 576 676 596 q 663 547 671 557 q 624 515 646 529 q 579 490 603 500 q 447 444 514 465 q 313 399 379 422 q 290 389 301 393 q 264 381 279 385 q 260 336 263 358 q 258 292 257 314 q 279 185 258 236 q 342 108 300 133 q 446 103 385 82 q 524 135 486 115 q 599 169 561 154 q 633 190 617 179 q 667 200 650 200 q 699 199 682 201 q 726 183 715 197 q 722 162 729 181 q 704 138 715 143 q 618 88 663 111 q 528 42 574 64 q 473 22 501 29 q 417 8 444 15 m 324 -283 q 285 -253 300 -268 q 261 -217 269 -239 q 264 -191 258 -203 q 279 -178 269 -179 q 303 -178 299 -174 q 311 -190 308 -182 q 324 -207 314 -199 q 363 -219 333 -215 q 412 -224 388 -222 q 458 -210 436 -225 q 484 -186 475 -200 q 490 -154 493 -172 q 468 -130 488 -143 q 424 -103 449 -117 q 380 -76 400 -89 q 356 -51 360 -62 q 349 11 343 -17 q 378 69 356 39 q 413 95 388 92 q 458 89 438 99 q 478 61 479 79 q 467 40 478 50 q 450 15 457 31 q 453 -29 443 0 q 500 -76 476 -58 q 540 -106 524 -93 q 561 -137 557 -119 q 551 -216 569 -179 q 498 -276 533 -253 q 421 -297 463 -299 q 370 -292 396 -297 q 324 -283 344 -287 z "},"Ê":{"ha":797,"x_min":67,"x_max":772,"o":"m 625 949 q 577 974 606 949 q 520 1038 549 1000 q 472 1111 492 1075 q 408 1119 444 1164 q 394 1107 411 1122 q 351 1067 376 1092 q 299 1019 325 1043 q 257 978 274 994 q 242 963 240 961 q 212 963 229 958 q 183 978 194 968 q 177 999 178 981 q 183 1024 176 1017 q 228 1068 210 1050 q 263 1103 246 1086 q 303 1142 281 1121 q 361 1197 326 1164 q 456 1247 418 1250 q 533 1178 493 1243 q 565 1133 553 1147 q 588 1108 578 1118 q 609 1083 597 1097 q 639 1036 621 1068 q 649 1015 646 1026 q 658 988 653 1004 q 642 963 650 978 q 625 949 633 949 m 336 -26 q 211 26 269 -17 q 115 133 153 69 q 71 268 78 197 q 78 399 67 333 q 111 528 90 464 q 151 653 132 592 q 163 697 156 672 q 179 744 169 721 q 142 763 164 758 q 108 776 119 767 q 89 820 86 800 q 122 850 92 840 q 188 869 154 865 q 254 878 221 874 q 458 893 357 889 q 664 882 558 897 q 690 883 669 882 q 735 875 711 883 q 772 839 760 867 q 746 814 768 821 q 697 807 724 807 q 647 807 669 807 q 504 804 575 810 q 363 797 433 799 q 297 770 319 797 q 263 704 275 743 q 236 628 251 665 q 224 583 229 607 q 211 531 218 558 q 440 523 325 508 q 656 568 554 538 q 688 514 692 529 q 636 483 683 499 q 453 441 551 457 q 265 425 356 425 q 210 419 228 425 q 186 394 192 414 q 181 335 181 375 q 185 280 182 308 q 196 224 189 251 q 259 110 215 156 q 374 67 303 65 q 449 72 407 69 q 534 83 492 75 q 608 104 576 90 q 632 100 617 110 q 661 83 647 90 q 650 53 654 71 q 635 32 646 36 q 490 -15 564 7 q 336 -26 415 -36 z "},"Ế":{"ha":797,"x_min":68,"x_max":742,"o":"m 551 1039 q 542 1062 543 1049 q 549 1086 540 1075 q 581 1128 565 1107 q 611 1172 596 1150 q 643 1214 626 1193 q 675 1256 660 1235 q 710 1265 690 1275 q 736 1236 731 1256 q 725 1200 742 1217 q 660 1130 688 1168 q 601 1056 632 1092 q 578 1035 594 1043 q 551 1039 561 1028 m 543 889 q 509 907 529 889 q 469 951 489 925 q 435 1004 449 978 q 390 1010 415 1042 q 380 1001 392 1013 q 349 974 368 990 q 313 940 331 957 q 283 910 294 922 q 272 899 271 899 q 251 899 263 896 q 231 910 239 903 q 226 925 226 913 q 231 942 225 938 q 262 974 249 961 q 287 998 275 986 q 315 1026 299 1010 q 357 1065 331 1042 q 423 1100 396 1103 q 478 1051 450 1097 q 501 1019 492 1029 q 517 1001 510 1008 q 532 984 524 994 q 553 951 540 974 q 560 936 557 944 q 567 917 563 928 q 555 899 561 910 q 543 889 549 889 m 665 843 q 706 824 697 839 q 701 794 715 808 q 653 778 688 779 q 598 773 644 776 q 483 765 551 769 q 338 755 414 760 q 192 746 261 750 q 158 753 175 744 q 125 768 142 761 q 153 808 139 785 q 183 833 167 831 q 309 854 246 846 q 435 863 372 863 q 502 860 476 861 q 549 857 528 858 q 597 852 571 856 q 665 843 624 849 m 519 121 q 618 159 569 136 q 717 204 667 182 q 738 142 740 169 q 693 92 736 115 q 496 8 597 43 q 285 -40 394 -28 q 165 -33 213 -49 q 94 32 118 -18 q 69 176 71 82 q 73 310 68 238 q 85 460 78 383 q 94 610 92 538 q 94 656 97 632 q 94 701 92 679 q 107 730 97 714 q 125 746 117 746 q 156 737 138 746 q 176 719 175 728 q 189 633 185 682 q 194 546 193 583 q 191 508 196 529 q 181 451 186 488 q 376 489 285 471 q 558 521 468 507 q 599 517 575 524 q 628 500 622 511 q 625 459 644 471 q 583 436 606 447 q 406 382 497 396 q 222 364 315 368 q 191 349 208 363 q 171 322 174 335 q 163 203 165 250 q 165 118 161 157 q 195 65 167 78 q 257 57 224 51 q 390 85 324 69 q 519 121 456 100 z "},"Ệ":{"ha":839,"x_min":69,"x_max":760,"o":"m 629 928 q 581 953 610 928 q 524 1017 553 979 q 476 1090 496 1054 q 413 1099 449 1143 q 398 1086 415 1101 q 355 1047 381 1071 q 303 998 329 1022 q 261 957 278 974 q 246 942 244 940 q 216 942 233 938 q 188 957 199 947 q 181 978 182 960 q 188 1003 181 996 q 232 1047 214 1029 q 267 1083 250 1065 q 308 1122 285 1100 q 365 1176 331 1143 q 460 1226 422 1229 q 538 1157 497 1222 q 569 1112 557 1126 q 592 1087 582 1097 q 613 1062 601 1076 q 643 1015 625 1047 q 653 994 650 1006 q 663 967 657 983 q 646 942 654 957 q 629 928 638 928 m 682 863 q 724 842 715 858 q 719 812 733 826 q 669 794 706 797 q 613 790 661 794 q 494 781 565 786 q 345 772 424 776 q 196 763 267 767 q 162 770 179 761 q 126 785 144 779 q 156 826 142 803 q 188 853 169 850 q 317 874 251 865 q 446 882 382 882 q 515 879 488 881 q 564 876 542 878 q 613 872 586 875 q 682 863 640 868 m 533 119 q 634 159 585 135 q 735 206 683 183 q 758 142 760 171 q 711 90 756 114 q 508 3 613 39 q 292 -46 404 -33 q 169 -38 218 -54 q 95 28 119 -22 q 69 176 71 79 q 74 314 69 239 q 86 469 79 389 q 96 622 93 549 q 96 670 99 646 q 96 717 93 694 q 108 746 99 729 q 126 763 118 763 q 160 753 140 763 q 181 735 179 744 q 193 646 189 696 q 199 557 197 596 q 195 517 200 539 q 185 460 190 496 q 385 498 292 479 q 572 531 479 517 q 615 527 590 533 q 644 510 639 521 q 642 467 661 479 q 599 444 622 456 q 417 388 510 403 q 226 369 324 374 q 194 354 213 368 q 174 326 176 340 q 167 205 168 253 q 168 117 165 157 q 200 62 171 75 q 263 54 229 49 q 399 83 332 67 q 533 119 467 99 m 378 -268 q 310 -221 328 -260 q 307 -204 308 -215 q 306 -186 306 -193 q 350 -129 321 -151 q 413 -107 379 -107 q 453 -126 436 -107 q 471 -178 471 -144 q 460 -224 471 -201 q 386 -268 447 -244 l 378 -268 z "},"Ề":{"ha":797,"x_min":68,"x_max":740,"o":"m 585 908 q 544 930 568 908 q 498 983 521 951 q 458 1043 475 1014 q 406 1050 436 1088 q 394 1040 408 1053 q 359 1008 381 1028 q 316 967 338 988 q 281 933 294 947 q 268 921 267 919 q 244 921 258 917 q 219 933 229 925 q 215 951 215 936 q 219 971 214 965 q 256 1008 242 993 q 285 1037 271 1022 q 319 1069 300 1051 q 367 1114 338 1088 q 445 1155 414 1158 q 510 1099 476 1151 q 535 1061 525 1074 q 554 1040 546 1049 q 572 1019 563 1032 q 597 982 582 1007 q 604 965 601 974 q 613 942 607 956 q 599 920 606 932 q 585 908 592 908 m 629 1135 q 583 1144 604 1129 l 553 1165 q 476 1219 507 1197 q 428 1254 444 1242 q 405 1279 414 1264 q 393 1307 396 1294 q 392 1316 393 1315 q 392 1317 390 1317 q 400 1325 393 1317 q 421 1326 406 1329 q 444 1319 436 1324 q 601 1229 560 1258 q 651 1188 644 1199 q 654 1147 664 1156 q 629 1135 644 1139 m 665 843 q 706 824 697 839 q 701 794 715 808 q 653 778 688 779 q 598 773 644 776 q 483 765 551 769 q 338 755 414 760 q 192 746 261 750 q 158 753 175 744 q 125 768 142 761 q 153 808 139 785 q 183 833 167 831 q 309 854 246 846 q 435 863 372 863 q 502 860 476 861 q 549 857 528 858 q 597 852 571 856 q 665 843 624 849 m 519 121 q 618 159 569 136 q 717 204 667 182 q 738 142 740 169 q 693 92 736 115 q 496 8 597 43 q 285 -40 394 -28 q 165 -33 213 -49 q 94 32 118 -18 q 69 176 71 82 q 73 310 68 238 q 85 460 78 383 q 94 610 92 538 q 94 656 97 632 q 94 701 92 679 q 107 730 97 714 q 125 746 117 746 q 156 737 138 746 q 176 719 175 728 q 189 633 185 682 q 194 546 193 583 q 191 508 196 529 q 181 451 186 488 q 376 489 285 471 q 558 521 468 507 q 599 517 575 524 q 628 500 622 511 q 625 459 644 471 q 583 436 606 447 q 406 382 497 396 q 222 364 315 368 q 191 349 208 363 q 171 322 174 335 q 163 203 165 250 q 165 118 161 157 q 195 65 167 78 q 257 57 224 51 q 390 85 324 69 q 519 121 456 100 z "},"Ể":{"ha":797,"x_min":68,"x_max":740,"o":"m 593 972 q 588 1026 567 1006 q 631 1113 613 1053 q 627 1156 640 1136 q 591 1183 614 1175 q 549 1183 568 1192 q 483 1180 503 1172 q 463 1205 463 1188 q 476 1236 463 1222 q 511 1246 485 1243 q 570 1246 538 1249 q 634 1231 603 1243 q 683 1197 665 1219 q 700 1118 706 1146 q 675 1035 703 1078 q 593 972 647 993 m 536 883 q 502 901 522 883 q 462 946 482 919 q 428 999 442 972 q 383 1004 408 1036 q 373 996 385 1007 q 342 968 361 985 q 306 934 324 951 q 276 905 288 917 q 265 893 264 893 q 244 894 256 890 q 224 904 232 897 q 219 919 219 907 q 224 936 218 932 q 255 968 242 956 q 280 992 268 981 q 308 1020 292 1004 q 350 1060 324 1036 q 416 1094 389 1097 q 471 1046 443 1092 q 494 1013 485 1024 q 510 996 503 1003 q 525 978 517 989 q 546 946 533 968 q 553 931 550 939 q 560 911 556 922 q 548 894 554 904 q 536 883 542 883 m 665 843 q 706 824 697 839 q 701 794 715 808 q 653 778 688 779 q 598 773 644 776 q 483 765 551 769 q 338 755 414 760 q 192 746 261 750 q 158 753 175 744 q 125 768 142 761 q 153 808 139 785 q 183 833 167 831 q 309 854 246 846 q 435 863 372 863 q 502 860 476 861 q 549 857 528 858 q 597 852 571 856 q 665 843 624 849 m 519 121 q 618 159 569 136 q 717 204 667 182 q 738 142 740 169 q 693 92 736 115 q 496 8 597 43 q 285 -40 394 -28 q 165 -33 213 -49 q 94 32 118 -18 q 69 176 71 82 q 73 310 68 238 q 85 460 78 383 q 94 610 92 538 q 94 656 97 632 q 94 701 92 679 q 107 730 97 714 q 125 746 117 746 q 156 737 138 746 q 176 719 175 728 q 189 633 185 682 q 194 546 193 583 q 191 508 196 529 q 181 451 186 488 q 376 489 285 471 q 558 521 468 507 q 599 517 575 524 q 628 500 622 511 q 625 459 644 471 q 583 436 606 447 q 406 382 497 396 q 222 364 315 368 q 191 349 208 363 q 171 322 174 335 q 163 203 165 250 q 165 118 161 157 q 195 65 167 78 q 257 57 224 51 q 390 85 324 69 q 519 121 456 100 z "},"Ễ":{"ha":797,"x_min":68,"x_max":740,"o":"m 574 888 q 536 908 558 888 q 492 957 514 928 q 456 1015 471 986 q 406 1021 433 1056 q 394 1012 407 1024 q 361 981 381 1000 q 322 943 342 963 q 288 911 301 924 q 276 899 275 899 q 253 900 267 896 q 231 911 239 904 q 225 927 225 914 q 231 947 225 940 q 265 981 250 967 q 292 1009 279 996 q 324 1039 306 1022 q 368 1082 342 1056 q 442 1120 413 1124 q 503 1067 471 1117 q 528 1031 518 1043 q 545 1012 538 1019 q 562 992 553 1004 q 585 957 571 981 q 593 940 590 949 q 600 918 596 932 q 587 899 593 910 q 574 888 581 888 m 268 1156 q 248 1173 257 1158 q 242 1204 239 1188 q 306 1299 258 1263 q 341 1313 326 1314 q 369 1298 356 1311 q 403 1264 383 1285 q 420 1242 414 1254 q 439 1221 426 1231 q 483 1207 464 1203 q 517 1228 503 1211 q 539 1264 531 1244 q 567 1287 556 1290 q 583 1262 579 1283 q 579 1214 586 1240 q 551 1171 572 1188 q 503 1146 533 1156 q 447 1146 474 1136 q 404 1177 424 1154 q 368 1218 385 1200 q 339 1240 351 1239 q 311 1221 326 1242 q 295 1188 300 1206 q 285 1160 290 1171 q 268 1156 281 1150 m 665 843 q 706 824 697 839 q 701 794 715 808 q 653 778 688 779 q 598 773 644 776 q 483 765 551 769 q 338 755 414 760 q 192 746 261 750 q 158 753 175 744 q 125 768 142 761 q 153 808 139 785 q 183 833 167 831 q 309 854 246 846 q 435 863 372 863 q 502 860 476 861 q 549 857 528 858 q 597 852 571 856 q 665 843 624 849 m 519 121 q 618 159 569 136 q 717 204 667 182 q 738 142 740 169 q 693 92 736 115 q 496 8 597 43 q 285 -40 394 -28 q 165 -33 213 -49 q 94 32 118 -18 q 69 176 71 82 q 73 310 68 238 q 85 460 78 383 q 94 610 92 538 q 94 656 97 632 q 94 701 92 679 q 107 730 97 714 q 125 746 117 746 q 156 737 138 746 q 176 719 175 728 q 189 633 185 682 q 194 546 193 583 q 191 508 196 529 q 181 451 186 488 q 376 489 285 471 q 558 521 468 507 q 599 517 575 524 q 628 500 622 511 q 625 459 644 471 q 583 436 606 447 q 406 382 497 396 q 222 364 315 368 q 191 349 208 363 q 171 322 174 335 q 163 203 165 250 q 165 118 161 157 q 195 65 167 78 q 257 57 224 51 q 390 85 324 69 q 519 121 456 100 z "},"Ë":{"ha":797,"x_min":67,"x_max":772,"o":"m 242 1033 q 186 1057 222 1035 l 154 1071 q 168 1097 161 1082 q 183 1131 175 1113 q 237 1125 211 1133 q 283 1069 263 1117 q 265 1045 281 1057 q 242 1033 250 1033 m 607 1019 q 570 1026 586 1018 q 521 1057 554 1035 q 515 1060 524 1054 q 488 1081 506 1067 q 508 1091 499 1085 q 526 1103 518 1097 q 579 1126 564 1125 q 624 1112 606 1126 q 646 1069 643 1097 q 636 1034 647 1047 q 607 1019 625 1021 m 336 -26 q 211 26 269 -17 q 115 133 153 69 q 71 268 78 197 q 78 399 67 333 q 111 528 90 464 q 151 653 132 592 q 163 697 156 672 q 179 744 169 721 q 142 763 164 758 q 108 776 119 767 q 89 820 86 800 q 122 850 92 840 q 188 869 154 865 q 254 878 221 874 q 458 893 357 889 q 664 882 558 897 q 690 883 669 882 q 735 875 711 883 q 772 839 760 867 q 746 814 768 821 q 697 807 724 807 q 647 807 669 807 q 504 804 575 810 q 363 797 433 799 q 297 770 319 797 q 263 704 275 743 q 236 628 251 665 q 224 583 229 607 q 211 531 218 558 q 440 523 325 508 q 656 568 554 538 q 688 514 692 529 q 636 483 683 499 q 453 441 551 457 q 265 425 356 425 q 210 419 228 425 q 186 394 192 414 q 181 335 181 375 q 185 280 182 308 q 196 224 189 251 q 259 110 215 156 q 374 67 303 65 q 449 72 407 69 q 534 83 492 75 q 608 104 576 90 q 632 100 617 110 q 661 83 647 90 q 650 53 654 71 q 635 32 646 36 q 490 -15 564 7 q 336 -26 415 -36 z "},"Ė":{"ha":842,"x_min":81,"x_max":786,"o":"m 485 1067 q 431 1042 461 1047 q 357 1069 401 1036 q 352 1106 351 1082 q 376 1138 353 1129 q 406 1149 390 1146 q 436 1154 421 1153 l 478 1138 q 485 1067 508 1107 m 350 7 q 225 60 283 17 q 129 167 167 103 q 85 301 92 231 q 92 432 81 367 q 125 561 104 497 q 165 686 146 625 q 176 730 169 706 q 193 778 183 754 q 156 796 178 792 q 122 810 133 800 q 103 853 100 833 q 136 883 106 874 q 201 903 168 899 q 268 911 235 907 q 472 926 371 922 q 678 915 572 931 q 704 916 683 915 q 749 908 725 917 q 786 872 774 900 q 760 847 782 854 q 710 840 738 840 q 661 840 683 840 q 518 838 589 843 q 376 831 447 832 q 311 803 333 831 q 277 738 289 776 q 250 661 265 699 q 238 616 243 640 q 225 564 232 592 q 453 556 339 542 q 669 601 568 571 q 701 547 706 563 q 650 517 697 532 q 467 474 565 490 q 279 458 369 458 q 224 453 242 458 q 200 428 206 447 q 194 368 194 408 q 199 313 196 342 q 210 257 203 285 q 273 144 229 189 q 388 100 317 99 q 463 106 421 103 q 548 116 506 108 q 622 138 590 124 q 646 133 631 143 q 675 117 661 124 q 664 87 668 104 q 649 65 660 69 q 503 19 578 40 q 350 7 429 -3 z "},"Ẹ":{"ha":833,"x_min":69,"x_max":760,"o":"m 682 863 q 724 842 715 858 q 719 812 733 826 q 669 794 706 797 q 613 790 661 794 q 494 781 565 786 q 345 772 424 776 q 196 763 267 767 q 162 770 179 761 q 126 785 144 779 q 156 826 142 803 q 188 853 169 850 q 317 874 251 865 q 446 882 382 882 q 515 879 488 881 q 564 876 542 878 q 613 872 586 875 q 682 863 640 868 m 533 119 q 634 159 585 135 q 735 206 683 183 q 758 142 760 171 q 711 90 756 114 q 508 3 613 39 q 292 -46 404 -33 q 169 -38 218 -54 q 95 28 119 -22 q 69 176 71 79 q 74 314 69 239 q 86 469 79 389 q 96 622 93 549 q 96 670 99 646 q 96 717 93 694 q 108 746 99 729 q 126 763 118 763 q 160 753 140 763 q 181 735 179 744 q 193 646 189 696 q 199 557 197 596 q 195 517 200 539 q 185 460 190 496 q 385 498 292 479 q 572 531 479 517 q 615 527 590 533 q 644 510 639 521 q 642 467 661 479 q 599 444 622 456 q 417 388 510 403 q 226 369 324 374 q 194 354 213 368 q 174 326 176 340 q 167 205 168 253 q 168 117 165 157 q 200 62 171 75 q 263 54 229 49 q 399 83 332 67 q 533 119 467 99 m 378 -268 q 310 -221 328 -260 q 307 -204 308 -215 q 306 -186 306 -193 q 350 -129 321 -151 q 413 -107 379 -107 q 453 -126 436 -107 q 471 -178 471 -144 q 460 -224 471 -201 q 386 -268 447 -244 l 378 -268 z "},"È":{"ha":811,"x_min":81,"x_max":760,"o":"m 417 8 q 310 19 364 -6 q 218 97 257 43 q 167 224 179 150 q 156 424 151 325 q 176 622 160 524 q 189 731 183 676 q 201 840 194 785 q 147 853 175 849 q 106 868 119 858 q 84 913 81 888 q 118 950 88 938 q 174 954 144 958 q 427 941 301 936 q 679 958 553 946 q 713 960 696 960 q 744 961 731 960 q 753 890 760 910 q 706 865 746 871 q 569 853 638 858 q 433 840 501 849 q 368 835 401 839 q 299 829 335 832 l 260 503 q 419 532 346 513 q 560 596 493 551 q 583 613 571 603 q 607 629 594 624 q 646 633 628 640 q 671 607 664 626 q 674 576 676 596 q 663 547 671 557 q 624 515 646 529 q 579 490 603 500 q 447 444 514 465 q 313 399 379 422 q 290 389 301 393 q 264 381 279 385 q 260 336 263 358 q 258 292 257 314 q 279 185 258 236 q 342 108 300 133 q 446 103 385 82 q 524 135 486 115 q 599 169 561 154 q 633 190 617 179 q 667 200 650 200 q 699 199 682 201 q 726 183 715 197 q 722 162 729 181 q 704 138 715 143 q 618 88 663 111 q 528 42 574 64 q 473 22 501 29 q 417 8 444 15 m 597 974 q 538 986 565 967 l 497 1014 q 397 1085 438 1056 q 335 1129 357 1114 q 306 1161 318 1142 q 290 1197 294 1181 q 289 1209 290 1208 q 289 1210 288 1210 q 299 1221 290 1211 q 326 1223 307 1226 q 357 1214 346 1219 q 561 1097 507 1135 q 626 1042 617 1056 q 630 990 643 1000 q 597 974 617 979 z "},"Ẻ":{"ha":797,"x_min":68,"x_max":740,"o":"m 374 871 q 367 936 342 911 q 419 1040 397 968 q 415 1092 431 1069 q 372 1126 399 1115 q 321 1126 344 1136 q 241 1122 265 1113 q 217 1153 217 1132 q 233 1190 217 1174 q 276 1202 244 1199 q 347 1201 307 1206 q 424 1184 386 1197 q 483 1143 461 1171 q 503 1047 510 1081 q 473 947 507 999 q 374 871 439 896 m 665 843 q 706 824 697 839 q 701 794 715 808 q 653 778 688 779 q 598 773 644 776 q 483 765 551 769 q 338 755 414 760 q 192 746 261 750 q 158 753 175 744 q 125 768 142 761 q 153 808 139 785 q 183 833 167 831 q 309 854 246 846 q 435 863 372 863 q 502 860 476 861 q 549 857 528 858 q 597 852 571 856 q 665 843 624 849 m 519 121 q 618 159 569 136 q 717 204 667 182 q 738 142 740 169 q 693 92 736 115 q 496 8 597 43 q 285 -40 394 -28 q 165 -33 213 -49 q 94 32 118 -18 q 69 176 71 82 q 73 310 68 238 q 85 460 78 383 q 94 610 92 538 q 94 656 97 632 q 94 701 92 679 q 107 730 97 714 q 125 746 117 746 q 156 737 138 746 q 176 719 175 728 q 189 633 185 682 q 194 546 193 583 q 191 508 196 529 q 181 451 186 488 q 376 489 285 471 q 558 521 468 507 q 599 517 575 524 q 628 500 622 511 q 625 459 644 471 q 583 436 606 447 q 406 382 497 396 q 222 364 315 368 q 191 349 208 363 q 171 322 174 335 q 163 203 165 250 q 165 118 161 157 q 195 65 167 78 q 257 57 224 51 q 390 85 324 69 q 519 121 456 100 z "},"Ē":{"ha":797,"x_min":61,"x_max":772,"o":"m 294 976 q 103 1015 136 971 q 260 1068 61 1060 q 272 1068 260 1068 q 308 1069 283 1068 q 399 1065 356 1072 q 457 1059 433 1061 q 494 1058 481 1057 q 563 1067 526 1060 q 634 1078 600 1075 q 690 1069 668 1082 q 658 986 744 1014 q 606 981 636 983 q 539 981 575 979 q 480 981 501 981 q 453 979 458 981 q 359 981 399 982 q 294 976 319 979 m 336 -35 q 211 18 269 -25 q 115 125 153 61 q 71 260 78 189 q 78 390 67 325 q 111 519 90 456 q 151 644 132 583 q 163 688 156 664 q 179 736 169 713 q 142 754 164 750 q 108 768 119 758 q 89 812 86 792 q 122 842 92 832 q 188 861 154 857 q 254 869 221 865 q 458 885 357 881 q 664 874 558 889 q 690 874 669 874 q 735 867 711 875 q 772 831 760 858 q 746 806 768 813 q 697 799 724 799 q 647 799 669 799 q 504 796 575 801 q 363 789 433 790 q 297 762 319 789 q 263 696 275 735 q 236 619 251 657 q 224 574 229 599 q 211 522 218 550 q 440 515 325 500 q 656 560 554 529 q 688 506 692 521 q 636 475 683 490 q 453 433 551 449 q 265 417 356 417 q 210 411 228 417 q 186 386 192 406 q 181 326 181 367 q 185 272 182 300 q 196 215 189 243 q 259 102 215 147 q 374 58 303 57 q 449 64 407 61 q 534 74 492 67 q 608 96 576 82 q 632 92 617 101 q 661 75 647 82 q 650 45 654 63 q 635 24 646 28 q 490 -23 564 -1 q 336 -35 415 -44 z "},"Ę":{"ha":797,"x_min":67,"x_max":772,"o":"m 564 -274 q 500 -224 526 -262 q 482 -128 474 -185 q 508 -33 492 -69 q 593 63 565 49 q 647 75 646 93 q 618 3 649 51 q 590 -44 603 -22 q 567 -82 576 -65 q 556 -128 556 -103 q 571 -175 557 -154 q 613 -203 585 -196 q 645 -210 625 -207 q 681 -220 665 -212 q 694 -250 697 -228 q 682 -267 693 -262 q 657 -272 671 -272 q 564 -274 588 -278 m 336 -35 q 211 18 269 -25 q 115 125 153 61 q 71 260 78 189 q 78 390 67 325 q 111 519 90 456 q 151 644 132 583 q 163 688 156 664 q 179 736 169 713 q 142 754 164 750 q 108 768 119 758 q 89 812 86 792 q 122 842 92 832 q 188 861 154 857 q 254 869 221 865 q 458 885 357 881 q 664 874 558 889 q 690 874 669 874 q 735 867 711 875 q 772 831 760 858 q 746 806 768 813 q 697 799 724 799 q 647 799 669 799 q 504 796 575 801 q 363 789 433 790 q 297 762 319 789 q 263 696 275 735 q 236 619 251 657 q 224 574 229 599 q 211 522 218 550 q 440 515 325 500 q 656 560 554 529 q 688 506 692 521 q 636 475 683 490 q 453 433 551 449 q 265 417 356 417 q 210 411 228 417 q 186 386 192 406 q 181 326 181 367 q 185 272 182 300 q 196 215 189 243 q 259 102 215 147 q 374 58 303 57 q 449 64 407 61 q 534 74 492 67 q 608 96 576 82 q 632 92 617 101 q 661 75 647 82 q 650 45 654 63 q 635 24 646 28 q 490 -23 564 -1 q 336 -35 415 -44 z "},"Ɛ":{"ha":794,"x_min":81,"x_max":739,"o":"m 240 542 q 333 578 286 558 q 422 604 379 599 q 489 603 454 611 q 553 581 524 594 q 590 540 589 563 q 565 486 592 517 q 462 417 519 435 q 339 403 404 399 q 274 399 304 406 q 228 351 243 392 q 230 228 222 282 q 276 144 238 174 q 411 96 339 97 q 554 113 483 94 q 616 140 586 122 q 678 167 646 157 q 707 160 690 169 q 739 144 724 151 q 731 117 733 133 q 718 96 728 101 q 581 29 651 57 q 437 -1 511 1 q 283 29 363 -4 q 185 97 226 53 q 122 195 143 140 q 107 309 101 250 q 149 422 113 368 q 154 458 157 435 q 143 496 151 482 q 99 595 117 546 q 83 695 81 644 q 124 796 86 746 q 228 915 172 863 q 354 994 283 968 q 517 1003 425 1019 q 563 935 575 992 q 549 913 558 915 q 526 914 539 910 q 500 918 514 918 q 427 913 465 917 q 361 889 389 908 q 285 827 322 865 q 221 751 249 789 q 192 653 186 707 q 240 542 197 599 z "},"Ǝ":{"ha":842,"x_min":78,"x_max":790,"o":"m 126 881 q 194 894 168 889 q 243 903 221 900 q 292 910 265 907 q 361 917 318 913 q 490 917 425 921 q 621 906 556 914 q 653 881 638 904 q 686 842 669 858 q 652 825 669 835 q 618 815 635 815 q 468 813 547 814 q 319 813 389 813 q 201 814 249 814 q 143 814 153 814 q 92 827 107 814 q 85 857 78 840 q 126 881 93 874 m 326 150 q 463 122 394 133 q 601 104 532 111 q 663 115 635 100 q 692 172 692 131 q 686 261 692 214 q 671 382 681 308 q 648 408 667 394 q 615 421 629 421 q 424 426 518 418 q 239 469 331 435 q 194 489 215 478 q 189 532 174 500 q 218 551 194 543 q 258 557 242 560 q 448 538 353 549 q 650 514 543 526 q 637 571 643 550 q 629 610 631 592 q 629 699 629 649 q 636 789 629 749 q 656 808 638 797 q 688 819 674 819 q 707 805 696 821 q 721 776 718 789 q 725 729 726 754 q 728 682 724 704 q 749 530 736 608 q 772 376 761 451 q 785 239 782 301 q 769 90 790 142 q 701 18 749 38 q 579 1 654 -1 q 360 35 467 7 q 151 108 253 64 q 101 157 104 129 q 119 222 97 185 q 224 183 172 203 q 326 150 275 163 z "},"Ʃ":{"ha":833,"x_min":14,"x_max":789,"o":"m 550 125 q 651 153 601 140 q 751 188 700 165 q 774 124 776 153 q 728 72 772 96 q 608 26 676 38 q 463 12 539 15 q 311 0 386 8 q 170 -1 238 -8 q 60 21 103 7 q 14 44 17 35 q 40 67 14 44 q 107 128 65 90 q 198 211 149 165 q 296 303 247 257 q 383 388 344 349 q 444 453 422 428 q 460 483 465 479 q 431 505 460 483 q 358 561 403 526 q 265 635 314 596 q 176 709 217 674 q 114 767 135 744 q 99 790 96 774 q 102 823 90 811 q 135 842 114 835 q 176 851 156 849 q 204 856 196 854 q 300 870 247 864 q 406 879 353 876 q 501 882 458 882 q 570 879 543 881 q 619 876 597 878 q 669 872 642 875 q 738 863 696 868 q 780 842 771 858 q 775 812 789 826 q 725 794 761 797 q 669 792 717 794 q 551 785 622 789 q 402 776 481 781 q 253 768 324 771 q 350 700 300 738 q 443 629 400 663 l 614 504 q 585 450 613 485 q 514 373 557 415 q 424 287 471 331 q 336 203 378 243 q 268 134 294 164 q 243 90 242 104 q 278 92 243 90 q 363 97 313 93 q 465 108 414 101 q 550 125 517 115 z "},"Ẽ":{"ha":797,"x_min":68,"x_max":740,"o":"m 503 975 q 447 975 472 971 q 417 985 433 978 q 382 1003 400 993 q 326 1031 350 1022 q 276 1038 303 1040 q 224 1003 260 1033 q 190 978 204 988 q 168 968 176 969 q 153 1004 150 964 q 179 1079 153 1044 q 249 1131 213 1125 q 324 1114 285 1138 q 392 1069 356 1090 q 464 1053 429 1047 q 512 1072 488 1057 q 540 1090 536 1088 q 561 1107 547 1094 q 583 1119 574 1118 q 632 1093 606 1124 q 619 1037 638 1061 q 569 997 600 1013 q 503 975 538 982 m 665 843 q 706 824 697 839 q 701 794 715 808 q 653 778 688 779 q 598 773 644 776 q 483 765 551 769 q 338 755 414 760 q 192 746 261 750 q 158 753 175 744 q 125 768 142 761 q 153 808 139 785 q 183 833 167 831 q 309 854 246 846 q 435 863 372 863 q 502 860 476 861 q 549 857 528 858 q 597 852 571 856 q 665 843 624 849 m 519 121 q 618 159 569 136 q 717 204 667 182 q 738 142 740 169 q 693 92 736 115 q 496 8 597 43 q 285 -40 394 -28 q 165 -33 213 -49 q 94 32 118 -18 q 69 176 71 82 q 73 310 68 238 q 85 460 78 383 q 94 610 92 538 q 94 656 97 632 q 94 701 92 679 q 107 730 97 714 q 125 746 117 746 q 156 737 138 746 q 176 719 175 728 q 189 633 185 682 q 194 546 193 583 q 191 508 196 529 q 181 451 186 488 q 376 489 285 471 q 558 521 468 507 q 599 517 575 524 q 628 500 622 511 q 625 459 644 471 q 583 436 606 447 q 406 382 497 396 q 222 364 315 368 q 191 349 208 363 q 171 322 174 335 q 163 203 165 250 q 165 118 161 157 q 195 65 167 78 q 257 57 224 51 q 390 85 324 69 q 519 121 456 100 z "},"Ə":{"ha":928,"x_min":54,"x_max":872,"o":"m 583 -10 q 406 23 485 -8 q 268 98 328 54 q 165 178 208 142 q 122 228 143 197 q 85 282 101 260 q 56 365 54 324 q 100 440 58 406 q 203 485 149 482 q 317 482 258 488 q 435 476 365 478 q 578 472 506 474 q 704 465 650 469 q 518 684 631 589 q 261 822 406 779 q 225 849 244 828 q 206 888 206 871 q 217 913 206 901 q 244 932 229 925 q 268 936 260 939 q 365 909 311 928 q 456 867 418 890 q 558 793 508 833 q 651 708 607 753 q 758 585 708 649 q 840 449 808 522 q 872 282 871 375 q 844 184 872 235 q 772 90 817 133 q 676 18 726 46 q 583 -10 626 -10 m 540 82 q 592 83 564 79 q 642 99 619 88 q 722 163 690 121 q 763 260 754 206 q 751 372 771 315 q 738 368 744 368 q 632 370 692 368 q 508 375 572 372 q 383 381 443 378 q 278 388 324 385 q 217 388 244 389 q 140 388 189 388 q 170 317 149 349 q 206 274 192 286 q 287 199 251 231 q 356 145 322 167 q 433 108 390 124 q 540 82 476 93 z "},"Ʒ":{"ha":847,"x_min":54,"x_max":753,"o":"m 150 -3 q 114 -6 133 -3 q 79 -1 94 -8 q 56 31 64 6 q 64 57 54 38 q 79 76 74 76 q 301 115 203 83 q 458 189 399 146 q 508 258 496 217 q 517 351 521 300 q 492 446 514 408 q 411 492 471 483 q 343 492 376 494 q 276 482 310 489 q 199 517 219 471 q 225 597 176 568 q 433 734 347 667 q 599 865 519 801 q 610 878 606 869 q 628 906 615 886 l 435 899 q 330 895 371 897 q 263 891 289 893 q 213 888 236 889 q 162 903 176 885 q 149 949 147 921 q 158 974 149 969 q 182 978 168 979 q 208 976 196 976 q 301 983 249 978 q 456 986 354 988 q 552 988 503 986 q 650 986 601 990 q 731 966 708 981 q 751 931 753 951 q 733 888 749 911 q 699 842 717 864 q 621 762 663 799 q 535 689 579 725 q 492 658 518 675 q 438 626 465 642 q 394 598 411 610 q 379 583 378 586 q 428 572 404 576 q 475 565 451 568 q 558 525 526 558 q 604 444 589 492 q 623 345 619 396 q 621 254 626 294 q 567 126 611 175 q 457 49 524 76 q 311 11 390 22 q 150 -3 232 0 z "},"Ǯ":{"ha":847,"x_min":54,"x_max":753,"o":"m 150 -3 q 114 -6 133 -3 q 79 -1 94 -8 q 56 31 64 6 q 64 57 54 38 q 79 76 74 76 q 301 115 203 83 q 458 189 399 146 q 508 258 496 217 q 517 351 521 300 q 492 446 514 408 q 411 492 471 483 q 343 492 376 494 q 276 482 310 489 q 199 517 219 471 q 225 597 176 568 q 433 734 347 667 q 599 865 519 801 q 610 878 606 869 q 628 906 615 886 l 435 899 q 330 895 371 897 q 263 891 289 893 q 213 888 236 889 q 162 903 176 885 q 149 949 147 921 q 158 974 149 969 q 182 978 168 979 q 208 976 196 976 q 301 983 249 978 q 456 986 354 988 q 552 988 503 986 q 650 986 601 990 q 731 966 708 981 q 751 931 753 951 q 733 888 749 911 q 699 842 717 864 q 621 762 663 799 q 535 689 579 725 q 492 658 518 675 q 438 626 465 642 q 394 598 411 610 q 379 583 378 586 q 428 572 404 576 q 475 565 451 568 q 558 525 526 558 q 604 444 589 492 q 623 345 619 396 q 621 254 626 294 q 567 126 611 175 q 457 49 524 76 q 311 11 390 22 q 150 -3 232 0 m 382 1035 q 331 1056 354 1042 q 290 1101 307 1069 q 267 1153 276 1132 q 253 1189 257 1175 q 243 1217 243 1215 q 258 1244 243 1233 q 296 1254 272 1254 l 335 1172 q 394 1107 351 1125 q 515 1213 475 1169 q 532 1231 518 1217 q 562 1257 546 1244 q 588 1269 578 1269 q 608 1236 608 1257 q 593 1204 608 1218 q 454 1063 493 1114 q 382 1035 419 1024 z "},"F":{"ha":738,"x_min":79,"x_max":683,"o":"m 144 -46 q 117 -12 133 -29 q 103 19 101 4 q 116 187 107 103 q 129 354 125 271 q 120 398 131 375 q 97 439 110 421 q 86 483 79 467 q 135 513 93 499 q 143 631 139 572 q 151 749 147 689 q 138 779 151 768 q 106 827 103 803 q 132 878 110 851 q 218 954 169 925 q 324 997 267 983 q 453 1026 389 1014 q 586 1019 518 1039 q 639 910 668 994 q 626 909 633 910 q 615 910 619 908 q 529 939 571 938 q 447 926 488 940 q 367 894 407 913 q 288 868 328 876 q 242 841 258 863 q 243 775 225 819 q 247 711 254 747 q 236 642 239 675 q 235 588 235 615 q 236 529 236 561 q 390 553 315 540 q 542 572 465 565 q 601 569 571 575 q 663 556 632 563 q 676 543 669 554 q 682 524 682 532 q 675 510 683 518 q 660 499 667 501 q 451 463 556 481 q 233 425 346 444 q 222 272 228 349 q 211 118 217 196 q 206 59 208 89 q 196 1 204 29 q 175 -24 192 -12 q 144 -46 158 -35 z "},"Ƒ":{"ha":814,"x_min":75,"x_max":758,"o":"m 256 108 q 257 125 256 115 q 262 276 258 200 q 269 435 265 353 q 232 426 247 431 q 204 424 217 421 q 174 437 190 428 q 151 457 157 446 q 155 490 147 468 q 171 514 163 511 q 231 547 214 525 q 248 600 247 569 q 244 664 249 631 q 235 758 239 711 q 226 854 231 806 q 216 848 222 851 q 203 840 210 844 q 184 818 193 832 q 163 801 175 804 q 133 817 151 797 q 110 869 111 842 q 139 925 108 897 q 264 1008 196 978 q 403 1056 332 1039 q 536 1080 468 1072 q 674 1096 604 1088 q 710 1088 694 1100 q 735 1059 724 1075 q 758 1028 746 1043 q 724 1015 740 1022 q 692 1008 707 1007 q 516 990 600 1017 q 350 931 432 964 q 333 915 342 928 q 325 893 325 903 q 336 747 329 819 q 350 596 343 674 q 474 622 414 610 q 590 649 533 633 q 651 646 631 660 q 675 589 672 632 q 544 546 610 568 q 411 504 478 524 q 363 475 376 494 q 351 415 350 456 q 350 258 354 338 q 342 101 346 179 q 336 5 340 50 q 325 -54 332 -40 q 300 -92 315 -72 q 225 -136 285 -111 q 124 -129 149 -143 q 85 -78 96 -101 q 100 -47 75 -56 q 199 -54 125 -37 q 226 -37 213 -56 q 250 6 240 -18 q 260 44 260 31 l 256 108 z "},"G":{"ha":917,"x_min":97,"x_max":863,"o":"m 367 -10 q 280 16 326 -10 q 192 83 233 42 q 124 172 150 124 q 97 263 97 219 q 128 419 99 350 q 204 547 157 488 q 304 661 251 606 q 392 741 346 703 q 486 810 438 779 q 572 849 522 832 q 663 875 622 867 q 698 863 675 878 q 721 829 721 849 q 702 794 721 814 q 668 768 683 774 q 408 622 519 725 q 228 389 297 519 q 198 269 196 329 q 231 163 200 210 q 313 92 261 115 q 360 78 335 82 q 407 76 385 74 q 507 100 467 86 q 579 135 547 114 q 644 185 611 156 q 721 256 678 214 q 753 297 733 267 q 782 361 774 326 q 710 362 736 361 q 653 361 685 363 q 559 353 597 358 q 483 346 521 349 q 389 343 446 343 q 357 364 374 343 q 325 400 340 385 q 360 420 343 408 q 396 433 378 432 q 475 440 444 438 q 537 444 506 442 q 617 450 568 446 q 722 453 671 456 q 819 411 774 450 q 860 341 858 379 q 833 263 863 303 q 799 213 818 242 q 758 165 779 185 q 663 91 719 132 q 533 21 607 50 q 367 -10 460 -8 z "},"Ğ":{"ha":917,"x_min":97,"x_max":863,"o":"m 367 -10 q 280 16 326 -10 q 192 83 233 42 q 124 172 150 124 q 97 263 97 219 q 128 419 99 350 q 204 547 157 488 q 304 661 251 606 q 392 741 346 703 q 486 810 438 779 q 572 849 522 832 q 663 875 622 867 q 698 863 675 878 q 721 829 721 849 q 702 794 721 814 q 668 768 683 774 q 408 622 519 725 q 228 389 297 519 q 198 269 196 329 q 231 163 200 210 q 313 92 261 115 q 360 78 335 82 q 407 76 385 74 q 507 100 467 86 q 579 135 547 114 q 644 185 611 156 q 721 256 678 214 q 753 297 733 267 q 782 361 774 326 q 710 362 736 361 q 653 361 685 363 q 559 353 597 358 q 483 346 521 349 q 389 343 446 343 q 357 364 374 343 q 325 400 340 385 q 360 420 343 408 q 396 433 378 432 q 475 440 444 438 q 537 444 506 442 q 617 450 568 446 q 722 453 671 456 q 819 411 774 450 q 860 341 858 379 q 833 263 863 303 q 799 213 818 242 q 758 165 779 185 q 663 91 719 132 q 533 21 607 50 q 367 -10 460 -8 m 521 974 q 404 1018 449 967 q 357 1097 374 1049 q 336 1185 340 1146 q 355 1197 335 1196 q 397 1194 375 1199 q 419 1179 418 1190 q 460 1086 425 1128 q 530 1060 489 1051 q 597 1094 571 1068 q 620 1125 613 1110 q 633 1163 628 1140 q 633 1178 636 1171 q 640 1188 631 1185 q 701 1184 678 1194 q 722 1149 724 1174 q 708 1101 721 1125 q 681 1061 694 1078 q 661 1040 668 1044 q 592 995 626 1015 q 521 974 558 975 z "},"Ǧ":{"ha":917,"x_min":97,"x_max":863,"o":"m 367 -10 q 280 16 326 -10 q 192 83 233 42 q 124 172 150 124 q 97 263 97 219 q 128 419 99 350 q 204 547 157 488 q 304 661 251 606 q 392 741 346 703 q 486 810 438 779 q 572 849 522 832 q 663 875 622 867 q 698 863 675 878 q 721 829 721 849 q 702 794 721 814 q 668 768 683 774 q 408 622 519 725 q 228 389 297 519 q 198 269 196 329 q 231 163 200 210 q 313 92 261 115 q 360 78 335 82 q 407 76 385 74 q 507 100 467 86 q 579 135 547 114 q 644 185 611 156 q 721 256 678 214 q 753 297 733 267 q 782 361 774 326 q 710 362 736 361 q 653 361 685 363 q 559 353 597 358 q 483 346 521 349 q 389 343 446 343 q 357 364 374 343 q 325 400 340 385 q 360 420 343 408 q 396 433 378 432 q 475 440 444 438 q 537 444 506 442 q 617 450 568 446 q 722 453 671 456 q 819 411 774 450 q 860 341 858 379 q 833 263 863 303 q 799 213 818 242 q 758 165 779 185 q 663 91 719 132 q 533 21 607 50 q 367 -10 460 -8 m 444 910 q 384 935 413 918 q 336 989 356 951 q 308 1051 319 1025 q 292 1092 297 1076 q 281 1125 281 1122 q 298 1157 281 1144 q 343 1169 315 1169 l 389 1072 q 460 994 408 1017 q 601 1119 554 1069 q 622 1141 606 1125 q 657 1172 638 1157 q 688 1188 676 1188 q 713 1149 713 1174 q 694 1110 713 1126 q 529 943 575 1004 q 444 910 489 897 z "},"Ĝ":{"ha":917,"x_min":97,"x_max":863,"o":"m 367 -10 q 280 16 326 -10 q 192 83 233 42 q 124 172 150 124 q 97 263 97 219 q 128 419 99 350 q 204 547 157 488 q 304 661 251 606 q 392 741 346 703 q 486 810 438 779 q 572 849 522 832 q 663 875 622 867 q 698 863 675 878 q 721 829 721 849 q 702 794 721 814 q 668 768 683 774 q 408 622 519 725 q 228 389 297 519 q 198 269 196 329 q 231 163 200 210 q 313 92 261 115 q 360 78 335 82 q 407 76 385 74 q 507 100 467 86 q 579 135 547 114 q 644 185 611 156 q 721 256 678 214 q 753 297 733 267 q 782 361 774 326 q 710 362 736 361 q 653 361 685 363 q 559 353 597 358 q 483 346 521 349 q 389 343 446 343 q 357 364 374 343 q 325 400 340 385 q 360 420 343 408 q 396 433 378 432 q 475 440 444 438 q 537 444 506 442 q 617 450 568 446 q 722 453 671 456 q 819 411 774 450 q 860 341 858 379 q 833 263 863 303 q 799 213 818 242 q 758 165 779 185 q 663 91 719 132 q 533 21 607 50 q 367 -10 460 -8 m 751 899 q 703 924 732 899 q 647 988 675 950 q 599 1061 618 1025 q 535 1069 571 1114 q 520 1057 538 1072 q 477 1017 503 1042 q 426 969 451 993 q 383 928 400 944 q 368 913 367 911 q 338 913 356 908 q 310 928 321 918 q 303 949 304 931 q 310 974 303 967 q 354 1018 336 1000 q 390 1053 372 1036 q 430 1092 407 1071 q 488 1147 453 1114 q 582 1197 544 1200 q 660 1128 619 1193 q 692 1083 679 1097 q 714 1058 704 1068 q 735 1033 724 1047 q 765 986 747 1018 q 776 965 772 976 q 785 938 779 954 q 768 913 776 928 q 751 899 760 899 z "},"Ģ":{"ha":957,"x_min":93,"x_max":901,"o":"m 475 -278 q 441 -338 457 -312 q 408 -346 425 -364 q 398 -325 404 -340 q 391 -292 392 -310 q 401 -264 390 -275 q 414 -143 421 -165 q 458 -78 414 -89 q 491 -74 478 -74 q 510 -91 504 -75 q 508 -151 515 -107 q 475 -278 503 -229 m 736 304 q 573 274 660 290 q 410 242 486 257 q 367 238 389 238 q 325 246 344 238 q 290 262 311 254 q 271 283 269 269 q 292 316 274 299 q 325 338 310 333 q 462 365 393 353 q 599 390 531 376 q 685 410 642 397 q 772 424 729 422 q 832 413 800 425 q 882 381 864 401 q 901 332 901 363 q 872 269 901 301 q 778 165 826 219 q 676 66 731 111 q 551 -1 621 21 q 365 -10 450 -32 q 210 74 281 13 q 134 180 161 117 q 100 315 107 243 q 104 453 93 386 q 153 581 118 525 q 235 683 188 638 q 333 771 282 729 q 458 860 393 819 q 588 942 522 901 q 643 967 613 957 q 701 975 674 978 q 742 944 728 972 q 742 881 760 908 q 683 843 724 854 q 431 717 550 804 q 239 506 311 629 q 202 372 201 443 q 233 235 203 300 q 315 125 263 169 q 433 74 367 81 q 518 90 476 69 q 600 143 560 110 q 676 213 640 176 q 744 278 713 249 q 741 292 743 285 q 736 304 739 299 z "},"Ġ":{"ha":917,"x_min":97,"x_max":863,"o":"m 367 -10 q 280 16 326 -10 q 192 83 233 42 q 124 172 150 124 q 97 263 97 219 q 128 419 99 350 q 204 547 157 488 q 304 661 251 606 q 392 741 346 703 q 486 810 438 779 q 572 849 522 832 q 663 875 622 867 q 698 863 675 878 q 721 829 721 849 q 702 794 721 814 q 668 768 683 774 q 408 622 519 725 q 228 389 297 519 q 198 269 196 329 q 231 163 200 210 q 313 92 261 115 q 360 78 335 82 q 407 76 385 74 q 507 100 467 86 q 579 135 547 114 q 644 185 611 156 q 721 256 678 214 q 753 297 733 267 q 782 361 774 326 q 710 362 736 361 q 653 361 685 363 q 559 353 597 358 q 483 346 521 349 q 389 343 446 343 q 357 364 374 343 q 325 400 340 385 q 360 420 343 408 q 396 433 378 432 q 475 440 444 438 q 537 444 506 442 q 617 450 568 446 q 722 453 671 456 q 819 411 774 450 q 860 341 858 379 q 833 263 863 303 q 799 213 818 242 q 758 165 779 185 q 663 91 719 132 q 533 21 607 50 q 367 -10 460 -8 m 546 942 q 492 917 522 922 q 418 944 463 911 q 413 981 413 957 q 438 1013 414 1004 q 467 1024 451 1021 q 497 1029 482 1028 l 539 1013 q 546 942 569 982 z "},"Ɠ":{"ha":954,"x_min":93,"x_max":907,"o":"m 679 63 q 537 3 608 11 q 396 14 465 -6 q 258 64 326 33 q 133 180 172 104 q 99 354 93 256 q 190 680 111 538 q 442 907 269 822 q 626 933 538 956 q 638 969 629 951 q 651 991 643 979 q 669 1017 658 1003 q 751 1072 692 1043 q 853 1075 822 1086 q 895 1028 883 1050 q 883 995 907 1006 q 785 993 860 985 q 760 974 772 994 q 740 929 747 954 q 732 890 732 904 l 736 867 q 743 839 742 856 q 749 808 744 822 q 711 800 732 807 q 682 801 690 793 q 588 844 633 842 q 499 827 542 847 q 417 776 457 807 q 234 550 286 682 q 200 261 182 418 q 229 189 204 226 q 285 138 254 151 q 467 85 381 93 q 626 125 554 78 q 747 290 699 172 q 751 306 750 296 q 756 338 753 315 q 653 315 701 325 q 560 292 606 306 q 475 263 517 281 q 390 239 433 246 q 347 247 371 236 q 307 272 322 258 q 293 309 289 289 q 326 335 297 329 q 555 384 440 360 q 785 429 669 408 q 828 419 807 433 q 861 382 850 404 q 864 342 872 360 q 816 240 840 292 q 760 144 792 189 q 679 63 728 99 z "},"Ḡ":{"ha":917,"x_min":97,"x_max":863,"o":"m 367 -10 q 280 16 326 -10 q 192 83 233 42 q 124 172 150 124 q 97 263 97 219 q 128 419 99 350 q 204 547 157 488 q 304 661 251 606 q 392 741 346 703 q 486 810 438 779 q 572 849 522 832 q 663 875 622 867 q 698 863 675 878 q 721 829 721 849 q 702 794 721 814 q 668 768 683 774 q 408 622 519 725 q 228 389 297 519 q 198 269 196 329 q 231 163 200 210 q 313 92 261 115 q 360 78 335 82 q 407 76 385 74 q 507 100 467 86 q 579 135 547 114 q 644 185 611 156 q 721 256 678 214 q 753 297 733 267 q 782 361 774 326 q 710 362 736 361 q 653 361 685 363 q 559 353 597 358 q 483 346 521 349 q 389 343 446 343 q 357 364 374 343 q 325 400 340 385 q 360 420 343 408 q 396 433 378 432 q 475 440 444 438 q 537 444 506 442 q 617 450 568 446 q 722 453 671 456 q 819 411 774 450 q 860 341 858 379 q 833 263 863 303 q 799 213 818 242 q 758 165 779 185 q 663 91 719 132 q 533 21 607 50 q 367 -10 460 -8 m 464 949 q 306 988 333 943 q 435 1040 272 1032 q 445 1040 435 1040 q 475 1042 456 1040 q 550 1038 515 1044 q 598 1031 578 1033 q 629 1031 618 1029 q 686 1040 656 1032 q 744 1051 717 1047 q 790 1042 772 1054 q 764 958 835 986 q 721 953 746 956 q 665 953 696 951 q 617 953 635 953 q 594 951 599 953 q 517 953 550 954 q 464 949 485 951 z "},"Ǥ":{"ha":957,"x_min":93,"x_max":910,"o":"m 551 -1 q 365 -10 450 -32 q 210 74 281 13 q 134 180 161 117 q 100 315 107 243 q 104 453 93 386 q 179 638 124 561 q 311 778 235 715 q 440 858 371 826 q 588 906 510 889 q 647 919 617 913 q 702 922 676 926 q 742 890 728 918 q 742 840 760 854 q 683 819 724 826 q 496 775 569 803 q 375 708 422 747 q 294 617 328 668 q 224 506 260 567 q 190 398 194 456 q 203 283 186 340 q 254 178 221 226 q 334 99 288 131 q 433 63 381 68 q 530 89 481 58 q 617 168 579 119 q 664 268 654 217 q 574 274 618 269 q 501 282 531 278 q 465 289 471 286 q 451 302 458 292 q 443 321 443 313 q 450 342 443 329 q 464 356 457 354 q 498 356 469 357 q 569 353 526 354 q 660 350 611 351 q 654 472 646 426 q 681 536 663 517 q 715 558 699 556 q 736 551 732 560 q 747 501 742 538 q 758 424 753 465 q 767 349 763 382 q 840 353 811 350 q 861 357 850 354 q 879 356 872 360 q 897 335 890 349 q 910 308 903 321 q 896 291 903 301 q 881 279 889 281 q 836 275 858 275 q 790 272 814 275 q 769 269 781 271 q 733 160 763 215 q 656 61 703 104 q 551 -1 610 18 z "},"H":{"ha":907,"x_min":67,"x_max":843,"o":"m 718 -56 q 685 -32 700 -43 q 667 -8 669 -21 q 649 173 656 82 q 636 354 642 264 q 637 407 635 381 q 642 468 639 433 q 434 451 533 460 q 239 431 335 443 q 215 410 228 429 q 199 374 201 390 q 181 240 188 307 q 158 104 174 172 q 143 56 156 82 q 108 22 131 31 q 84 44 93 26 q 72 83 75 61 q 71 121 69 106 q 85 260 75 190 q 104 399 96 331 q 90 483 108 442 q 69 538 72 515 q 106 593 67 561 q 124 631 121 606 q 127 688 128 657 q 128 744 126 718 q 128 820 132 782 q 128 896 125 858 q 134 928 131 910 q 145 960 138 946 q 168 975 153 975 q 210 946 196 971 q 228 900 225 921 q 230 808 235 854 q 222 715 225 761 q 219 636 221 676 q 214 543 217 596 q 364 550 290 546 q 511 554 438 554 q 605 560 575 554 q 642 581 635 565 q 644 627 650 596 q 631 708 639 658 q 617 751 625 731 q 607 794 610 772 q 608 829 606 811 q 613 864 611 847 q 647 881 628 888 q 680 858 665 875 q 696 831 694 840 q 719 715 707 775 q 749 589 731 654 q 796 584 772 590 q 831 556 819 578 q 832 488 843 533 q 760 488 782 494 q 733 467 738 482 q 731 430 728 451 q 735 382 735 408 q 740 199 738 290 q 742 17 742 108 q 733 -19 742 -1 q 718 -56 725 -36 z "},"Ħ":{"ha":815,"x_min":69,"x_max":747,"o":"m 186 450 q 180 350 183 390 q 174 270 176 310 q 167 172 171 231 q 165 97 165 135 q 157 21 164 58 q 139 -5 156 7 q 111 -29 122 -17 q 90 -15 101 -22 q 78 3 79 -7 q 72 67 74 35 q 71 129 69 99 q 76 329 74 239 q 83 510 79 419 q 93 708 86 600 q 99 747 94 728 q 113 786 104 767 q 83 804 97 794 q 69 824 69 814 q 95 835 74 831 q 138 842 117 840 q 145 856 142 849 q 153 869 149 863 q 181 892 160 885 q 218 910 201 900 q 223 876 219 893 q 225 843 226 860 q 377 843 299 843 q 531 842 456 843 q 530 865 531 853 q 529 889 529 876 q 548 932 528 908 q 586 963 568 956 q 631 953 618 974 q 644 906 643 933 q 647 869 646 886 q 647 835 647 851 q 701 821 676 831 q 731 799 725 811 q 711 776 736 788 q 685 770 701 774 q 647 764 669 767 q 649 680 647 722 q 657 582 650 638 q 664 558 658 574 q 708 535 669 543 q 746 503 744 526 q 717 460 747 481 q 688 444 703 450 q 660 431 672 438 q 661 250 660 340 q 661 74 663 160 q 649 35 660 54 q 631 -1 638 17 q 594 28 601 7 q 583 67 586 49 q 566 222 574 150 q 554 376 558 293 q 538 425 553 408 q 490 443 524 442 q 338 447 414 446 q 186 450 263 449 m 519 753 q 362 755 443 751 q 208 763 281 758 q 188 651 194 707 q 197 536 182 596 l 544 536 q 545 593 544 568 q 543 642 546 618 q 535 753 538 707 q 519 753 526 753 z "},"Ḫ":{"ha":907,"x_min":67,"x_max":843,"o":"m 718 -56 q 685 -32 700 -43 q 667 -8 669 -21 q 649 173 656 82 q 636 354 642 264 q 637 407 635 381 q 642 468 639 433 q 434 451 533 460 q 239 431 335 443 q 215 410 228 429 q 199 374 201 390 q 181 240 188 307 q 158 104 174 172 q 143 56 156 82 q 108 22 131 31 q 84 44 93 26 q 72 83 75 61 q 71 121 69 106 q 85 260 75 190 q 104 399 96 331 q 90 483 108 442 q 69 538 72 515 q 106 593 67 561 q 124 631 121 606 q 127 688 128 657 q 128 744 126 718 q 128 820 132 782 q 128 896 125 858 q 134 928 131 910 q 145 960 138 946 q 168 975 153 975 q 210 946 196 971 q 228 900 225 921 q 230 808 235 854 q 222 715 225 761 q 219 636 221 676 q 214 543 217 596 q 364 550 290 546 q 511 554 438 554 q 605 560 575 554 q 642 581 635 565 q 644 627 650 596 q 631 708 639 658 q 617 751 625 731 q 607 794 610 772 q 608 829 606 811 q 613 864 611 847 q 647 881 628 888 q 680 858 665 875 q 696 831 694 840 q 719 715 707 775 q 749 589 731 654 q 796 584 772 590 q 831 556 819 578 q 832 488 843 533 q 760 488 782 494 q 733 467 738 482 q 731 430 728 451 q 735 382 735 408 q 740 199 738 290 q 742 17 742 108 q 733 -19 742 -1 q 718 -56 725 -36 m 385 -260 q 268 -215 313 -267 q 221 -136 238 -185 q 200 -49 204 -87 q 219 -36 199 -37 q 260 -39 239 -35 q 283 -54 282 -43 q 324 -147 289 -106 q 394 -174 353 -182 q 461 -139 435 -165 q 484 -108 476 -124 q 497 -71 492 -93 q 497 -56 500 -62 q 504 -46 494 -49 q 565 -49 542 -39 q 586 -85 588 -60 q 572 -132 585 -108 q 545 -172 558 -156 q 525 -193 532 -189 q 456 -238 490 -218 q 385 -260 422 -258 z "},"Ĥ":{"ha":907,"x_min":67,"x_max":843,"o":"m 718 -56 q 685 -32 700 -43 q 667 -8 669 -21 q 649 173 656 82 q 636 354 642 264 q 637 407 635 381 q 642 468 639 433 q 434 451 533 460 q 239 431 335 443 q 215 410 228 429 q 199 374 201 390 q 181 240 188 307 q 158 104 174 172 q 143 56 156 82 q 108 22 131 31 q 84 44 93 26 q 72 83 75 61 q 71 121 69 106 q 85 260 75 190 q 104 399 96 331 q 90 483 108 442 q 69 538 72 515 q 106 593 67 561 q 124 631 121 606 q 127 688 128 657 q 128 744 126 718 q 128 820 132 782 q 128 896 125 858 q 134 928 131 910 q 145 960 138 946 q 168 975 153 975 q 210 946 196 971 q 228 900 225 921 q 230 808 235 854 q 222 715 225 761 q 219 636 221 676 q 214 543 217 596 q 364 550 290 546 q 511 554 438 554 q 605 560 575 554 q 642 581 635 565 q 644 627 650 596 q 631 708 639 658 q 617 751 625 731 q 607 794 610 772 q 608 829 606 811 q 613 864 611 847 q 647 881 628 888 q 680 858 665 875 q 696 831 694 840 q 719 715 707 775 q 749 589 731 654 q 796 584 772 590 q 831 556 819 578 q 832 488 843 533 q 760 488 782 494 q 733 467 738 482 q 731 430 728 451 q 735 382 735 408 q 740 199 738 290 q 742 17 742 108 q 733 -19 742 -1 q 718 -56 725 -36 m 699 949 q 651 974 679 949 q 594 1038 622 1000 q 546 1111 565 1075 q 482 1119 518 1164 q 467 1107 485 1122 q 424 1067 450 1092 q 373 1019 399 1043 q 331 978 347 994 q 315 963 314 961 q 285 963 303 958 q 257 978 268 968 q 251 999 251 981 q 257 1024 250 1017 q 301 1068 283 1050 q 337 1103 319 1086 q 377 1142 354 1121 q 435 1197 400 1164 q 529 1247 492 1250 q 607 1178 567 1243 q 639 1133 626 1147 q 661 1108 651 1118 q 683 1083 671 1097 q 713 1036 694 1068 q 723 1015 719 1026 q 732 988 726 1004 q 715 963 724 978 q 699 949 707 949 z "},"Ḥ":{"ha":768,"x_min":68,"x_max":700,"o":"m 396 -174 q 328 -126 346 -165 q 325 -110 326 -121 q 324 -92 324 -99 q 368 -35 339 -57 q 431 -12 397 -12 q 472 -31 454 -12 q 489 -83 489 -50 q 478 -129 489 -107 q 404 -174 465 -150 l 396 -174 m 590 483 q 449 481 519 482 q 307 478 378 481 q 263 460 276 476 q 247 414 250 444 q 237 257 243 336 q 221 99 231 178 q 203 66 219 82 q 176 35 188 50 q 159 69 169 51 q 147 106 149 88 q 147 271 146 188 q 149 439 149 354 q 123 451 138 446 q 96 467 108 457 q 69 508 68 486 q 104 538 71 531 q 145 564 140 546 q 151 608 150 582 q 165 791 158 700 q 178 974 172 882 q 191 1020 179 1001 q 232 1028 203 1039 q 268 999 250 1021 q 285 958 286 976 q 274 813 283 886 q 258 665 265 739 q 257 619 257 643 q 257 565 257 594 l 581 565 q 585 706 599 639 q 556 842 571 774 q 556 881 551 861 q 561 918 560 900 q 596 902 576 910 q 622 881 615 894 q 658 806 642 844 q 678 728 675 768 q 691 419 688 574 q 699 111 694 265 q 698 52 700 82 q 692 -8 696 22 q 680 -25 690 -18 q 661 -39 669 -32 q 636 -16 651 -28 q 618 8 621 -4 q 612 81 613 44 q 608 151 611 117 q 600 316 604 233 q 590 483 596 399 z "},"Ɦ":{"ha":1132,"x_min":63,"x_max":1063,"o":"m 72 769 q 85 869 63 797 q 146 940 118 928 q 193 960 175 954 q 273 968 226 972 q 356 956 319 964 q 378 953 365 957 q 397 942 392 950 q 408 924 406 935 q 422 897 415 911 q 429 867 428 882 q 431 727 432 799 q 431 578 431 656 l 767 578 q 763 688 765 631 q 757 800 760 744 q 758 849 757 825 q 767 894 760 872 q 785 924 771 911 q 810 950 799 936 q 840 919 824 935 q 858 885 857 903 q 861 821 864 854 q 858 756 858 788 q 858 715 858 735 q 863 675 858 694 q 884 597 875 619 q 918 572 893 574 q 1000 574 943 569 q 1031 567 1015 576 q 1063 551 1047 558 q 1036 521 1049 538 q 1008 501 1024 504 q 931 481 954 490 q 903 446 907 471 q 901 363 899 421 q 917 226 906 294 q 933 89 928 158 q 928 56 936 74 q 915 22 919 39 q 881 35 900 29 q 857 53 863 42 q 833 113 843 81 q 819 178 824 146 q 800 326 808 251 q 782 479 792 400 l 440 479 q 433 306 436 390 q 422 135 429 221 q 418 89 421 113 q 408 42 415 65 q 395 8 403 18 q 372 -4 388 -3 q 321 -4 356 -6 q 328 122 324 58 q 331 247 333 185 q 319 380 329 314 q 308 513 308 446 q 319 656 310 585 q 333 800 328 728 q 334 828 335 814 q 333 857 333 842 q 331 857 332 857 l 267 872 q 227 869 253 875 q 181 853 201 864 q 160 829 160 843 q 150 731 163 754 q 116 722 138 708 q 72 769 94 736 z "},"Ɥ":{"ha":654,"x_min":35,"x_max":621,"o":"m 118 940 q 128 896 126 919 q 135 849 131 872 q 160 719 147 785 q 190 589 174 653 q 224 546 200 553 q 275 559 249 539 q 315 622 301 579 q 340 705 328 663 q 368 786 353 747 q 409 877 385 836 q 468 918 433 918 q 515 893 497 918 q 542 833 532 868 q 554 769 551 799 q 556 701 556 746 q 558 603 557 657 q 559 497 558 550 q 560 401 560 443 q 561 339 560 358 q 572 259 564 299 q 606 185 579 219 l 621 143 q 615 108 621 125 q 601 76 608 92 q 584 58 596 64 q 560 53 572 53 q 524 70 539 53 q 499 111 508 88 q 488 154 490 135 q 467 301 476 228 q 457 449 457 375 q 458 494 457 479 q 460 527 460 510 q 461 576 461 544 q 460 638 461 608 q 460 700 460 668 q 454 722 460 728 q 440 694 449 717 q 422 645 431 672 q 407 601 414 618 q 374 527 393 563 q 324 464 356 492 q 232 422 278 422 q 172 446 199 422 q 126 504 144 469 q 100 571 107 539 q 67 718 83 644 q 38 865 51 792 q 35 903 35 885 q 38 935 36 921 q 58 967 40 960 q 94 967 75 974 q 118 940 113 960 z "},"I":{"ha":732,"x_min":67,"x_max":665,"o":"m 419 150 q 494 167 456 158 q 572 182 533 176 q 608 178 590 185 q 644 168 626 171 q 624 137 633 154 q 601 113 615 119 q 546 96 575 100 q 489 81 517 92 q 444 58 465 72 q 401 33 424 44 q 379 21 392 28 q 363 17 367 14 q 302 44 333 43 q 240 37 271 46 q 179 24 210 28 q 119 33 140 18 q 82 92 97 49 q 167 106 126 99 q 249 119 208 114 q 307 140 288 124 q 324 200 326 156 q 319 403 318 303 q 314 606 321 504 q 297 688 313 646 q 267 781 281 729 q 206 751 235 764 q 154 721 178 738 q 135 704 144 714 q 116 693 126 694 q 90 708 106 692 q 69 755 72 731 q 90 797 67 779 q 142 833 114 817 q 199 853 169 849 q 381 878 289 868 q 564 899 472 889 q 594 894 579 901 q 626 885 610 889 q 654 871 643 881 q 663 838 665 861 q 647 810 660 814 q 617 810 633 806 q 588 813 601 814 q 482 804 535 808 q 376 793 429 800 q 360 779 369 792 q 353 761 351 767 q 407 567 397 665 q 413 369 417 468 q 410 169 408 269 q 413 164 410 168 q 419 150 415 160 z "},"Ĳ":{"ha":1176,"x_min":111,"x_max":1142,"o":"m 264 -10 q 227 14 239 0 q 213 42 215 28 q 208 100 207 69 q 207 160 210 131 q 178 478 193 319 q 147 797 164 638 q 133 849 146 824 q 114 901 121 875 q 113 931 111 914 q 119 951 114 947 q 149 956 131 957 q 172 946 167 954 q 211 888 192 919 q 236 825 231 857 q 289 435 268 629 q 307 57 310 242 q 301 24 307 40 q 264 -10 296 7 m 744 -14 q 604 -8 668 -28 q 489 72 540 13 q 483 84 485 78 q 478 96 481 90 q 476 110 476 101 q 474 142 476 119 q 530 114 506 125 q 576 90 554 103 q 674 63 625 61 q 761 97 724 65 q 807 182 799 128 q 840 485 832 333 q 803 788 847 638 q 742 796 774 799 q 679 787 711 793 q 616 781 647 781 q 557 799 585 782 q 506 858 529 815 q 536 871 524 865 q 561 878 549 876 q 817 910 689 894 q 1074 943 946 926 q 1122 946 1108 947 q 1139 929 1136 944 q 1138 878 1142 914 q 1048 853 1093 867 q 958 833 1003 840 q 906 806 915 828 q 903 747 896 785 q 928 453 935 600 q 901 158 922 306 q 854 47 892 94 q 744 -14 817 0 z "},"Í":{"ha":732,"x_min":65,"x_max":665,"o":"m 419 150 q 494 167 456 158 q 572 182 533 176 q 608 178 590 185 q 644 168 626 171 q 624 137 633 154 q 601 113 615 119 q 546 96 575 100 q 489 81 517 92 q 444 58 465 72 q 401 33 424 44 q 379 21 392 28 q 363 17 367 14 q 302 44 333 43 q 240 37 271 46 q 179 24 210 28 q 119 33 140 18 q 82 92 97 49 q 167 106 126 99 q 249 119 208 114 q 307 140 288 124 q 324 200 326 156 q 319 403 318 303 q 314 606 321 504 q 297 688 313 646 q 267 781 281 729 q 206 751 235 764 q 154 721 178 738 q 135 704 144 714 q 116 693 126 694 q 90 708 106 692 q 69 755 72 731 q 90 797 67 779 q 142 833 114 817 q 199 853 169 849 q 381 878 289 868 q 564 899 472 889 q 594 894 579 901 q 626 885 610 889 q 654 871 643 881 q 663 838 665 861 q 647 810 660 814 q 617 810 633 806 q 588 813 601 814 q 482 804 535 808 q 376 793 429 800 q 360 779 369 792 q 353 761 351 767 q 407 567 397 665 q 413 369 417 468 q 410 169 408 269 q 413 164 410 168 q 419 150 415 160 m 76 963 q 67 997 65 978 q 83 1029 69 1017 q 141 1084 114 1057 q 196 1139 168 1111 q 253 1191 224 1165 q 310 1244 282 1217 q 363 1249 338 1267 q 393 1200 390 1231 q 368 1150 396 1169 q 256 1066 306 1114 q 153 974 207 1018 q 114 950 140 957 q 76 963 88 943 z "},"Ĭ":{"ha":732,"x_min":67,"x_max":665,"o":"m 419 150 q 494 167 456 158 q 572 182 533 176 q 608 178 590 185 q 644 168 626 171 q 624 137 633 154 q 601 113 615 119 q 546 96 575 100 q 489 81 517 92 q 444 58 465 72 q 401 33 424 44 q 379 21 392 28 q 363 17 367 14 q 302 44 333 43 q 240 37 271 46 q 179 24 210 28 q 119 33 140 18 q 82 92 97 49 q 167 106 126 99 q 249 119 208 114 q 307 140 288 124 q 324 200 326 156 q 319 403 318 303 q 314 606 321 504 q 297 688 313 646 q 267 781 281 729 q 206 751 235 764 q 154 721 178 738 q 135 704 144 714 q 116 693 126 694 q 90 708 106 692 q 69 755 72 731 q 90 797 67 779 q 142 833 114 817 q 199 853 169 849 q 381 878 289 868 q 564 899 472 889 q 594 894 579 901 q 626 885 610 889 q 654 871 643 881 q 663 838 665 861 q 647 810 660 814 q 617 810 633 806 q 588 813 601 814 q 482 804 535 808 q 376 793 429 800 q 360 779 369 792 q 353 761 351 767 q 407 567 397 665 q 413 369 417 468 q 410 169 408 269 q 413 164 410 168 q 419 150 415 160 m 303 949 q 186 993 231 942 q 139 1072 156 1024 q 118 1160 122 1121 q 137 1172 117 1171 q 178 1169 157 1174 q 201 1154 200 1165 q 242 1061 207 1103 q 312 1035 271 1026 q 379 1069 353 1043 q 402 1100 394 1085 q 415 1138 410 1115 q 415 1153 418 1146 q 422 1163 413 1160 q 483 1159 460 1169 q 504 1124 506 1149 q 490 1076 503 1100 q 463 1036 476 1053 q 443 1015 450 1019 q 374 970 408 990 q 303 949 340 950 z "},"Ǐ":{"ha":732,"x_min":67,"x_max":665,"o":"m 419 150 q 494 167 456 158 q 572 182 533 176 q 608 178 590 185 q 644 168 626 171 q 624 137 633 154 q 601 113 615 119 q 546 96 575 100 q 489 81 517 92 q 444 58 465 72 q 401 33 424 44 q 379 21 392 28 q 363 17 367 14 q 302 44 333 43 q 240 37 271 46 q 179 24 210 28 q 119 33 140 18 q 82 92 97 49 q 167 106 126 99 q 249 119 208 114 q 307 140 288 124 q 324 200 326 156 q 319 403 318 303 q 314 606 321 504 q 297 688 313 646 q 267 781 281 729 q 206 751 235 764 q 154 721 178 738 q 135 704 144 714 q 116 693 126 694 q 90 708 106 692 q 69 755 72 731 q 90 797 67 779 q 142 833 114 817 q 199 853 169 849 q 381 878 289 868 q 564 899 472 889 q 594 894 579 901 q 626 885 610 889 q 654 871 643 881 q 663 838 665 861 q 647 810 660 814 q 617 810 633 806 q 588 813 601 814 q 482 804 535 808 q 376 793 429 800 q 360 779 369 792 q 353 761 351 767 q 407 567 397 665 q 413 369 417 468 q 410 169 408 269 q 413 164 410 168 q 419 150 415 160 m 283 942 q 223 967 251 950 q 175 1021 194 983 q 147 1083 158 1057 q 131 1124 136 1108 q 119 1157 119 1154 q 137 1189 119 1176 q 182 1201 154 1201 l 228 1104 q 299 1026 247 1049 q 440 1151 393 1101 q 460 1173 444 1157 q 496 1204 476 1189 q 526 1219 515 1219 q 551 1181 551 1206 q 533 1142 551 1158 q 368 975 414 1036 q 283 942 328 929 z "},"Î":{"ha":529,"x_min":68,"x_max":460,"o":"m 433 972 q 394 993 417 972 q 348 1044 371 1014 q 310 1104 325 1075 q 257 1111 286 1147 q 245 1101 258 1114 q 211 1069 232 1089 q 169 1030 190 1050 q 135 997 149 1010 q 122 983 121 983 q 97 985 111 981 q 75 996 83 989 q 69 1013 69 999 q 75 1033 68 1028 q 110 1069 96 1054 q 139 1098 125 1085 q 172 1129 153 1111 q 219 1175 190 1147 q 296 1215 265 1218 q 358 1158 326 1211 q 385 1122 375 1133 q 403 1101 394 1110 q 421 1081 411 1093 q 444 1043 431 1069 q 453 1027 450 1036 q 460 1004 456 1018 q 447 984 454 996 q 433 972 440 972 m 404 -40 q 367 -17 379 -31 q 353 11 356 -3 q 349 69 347 39 q 347 129 350 100 q 319 448 333 289 q 288 767 304 607 q 274 819 286 793 q 254 871 261 844 q 253 900 251 883 q 260 921 254 917 q 289 925 271 926 q 313 915 307 924 q 351 858 332 889 q 376 794 371 826 q 429 405 408 599 q 447 26 450 211 q 442 -7 447 10 q 404 -40 436 -24 z "},"Ï":{"ha":732,"x_min":67,"x_max":665,"o":"m 419 150 q 494 167 456 158 q 572 182 533 176 q 608 178 590 185 q 644 168 626 171 q 624 137 633 154 q 601 113 615 119 q 546 96 575 100 q 489 81 517 92 q 444 58 465 72 q 401 33 424 44 q 379 21 392 28 q 363 17 367 14 q 302 44 333 43 q 240 37 271 46 q 179 24 210 28 q 119 33 140 18 q 82 92 97 49 q 167 106 126 99 q 249 119 208 114 q 307 140 288 124 q 324 200 326 156 q 319 403 318 303 q 314 606 321 504 q 297 688 313 646 q 267 781 281 729 q 206 751 235 764 q 154 721 178 738 q 135 704 144 714 q 116 693 126 694 q 90 708 106 692 q 69 755 72 731 q 90 797 67 779 q 142 833 114 817 q 199 853 169 849 q 381 878 289 868 q 564 899 472 889 q 594 894 579 901 q 626 885 610 889 q 654 871 643 881 q 663 838 665 861 q 647 810 660 814 q 617 810 633 806 q 588 813 601 814 q 482 804 535 808 q 376 793 429 800 q 360 779 369 792 q 353 761 351 767 q 407 567 397 665 q 413 369 417 468 q 410 169 408 269 q 413 164 410 168 q 419 150 415 160 m 201 997 q 144 1015 181 997 l 111 1026 q 122 1054 117 1039 q 133 1088 128 1069 q 188 1087 161 1093 q 239 1036 214 1081 q 224 1010 238 1022 q 201 997 210 997 m 565 1014 q 528 1018 546 1011 q 478 1044 511 1025 q 470 1047 479 1042 q 442 1064 461 1051 q 461 1077 451 1071 q 479 1090 471 1083 q 529 1118 514 1115 q 576 1108 556 1121 q 600 1067 596 1094 q 594 1032 604 1046 q 565 1014 583 1018 z "},"Ḯ":{"ha":532,"x_min":14,"x_max":506,"o":"m 100 933 q 46 957 79 935 l 14 972 q 27 999 19 983 q 43 1031 35 1014 q 97 1024 71 1033 q 142 968 122 1015 q 124 944 140 956 q 100 933 108 933 m 465 913 q 428 920 444 911 q 379 951 411 929 q 374 956 382 950 q 346 975 365 961 q 367 986 357 981 q 386 997 378 992 q 439 1019 424 1018 q 484 1005 465 1021 q 504 961 503 989 q 494 927 506 940 q 465 913 482 914 m 221 936 q 201 960 206 944 q 207 990 197 975 q 242 1053 225 1022 q 278 1115 260 1085 q 313 1178 294 1147 q 350 1239 332 1208 q 397 1263 368 1267 q 440 1236 429 1258 q 432 1189 451 1214 q 355 1083 386 1138 q 288 974 324 1028 q 258 941 281 956 q 221 936 236 926 m 325 -74 q 288 -50 300 -64 q 274 -22 276 -36 q 269 36 268 6 q 268 96 271 67 q 240 415 254 256 q 208 733 225 574 q 194 785 207 760 q 175 838 182 811 q 174 867 172 850 q 181 888 175 883 q 210 892 192 893 q 233 882 228 890 q 272 824 253 856 q 297 761 292 793 q 350 372 329 565 q 368 -7 371 178 q 363 -40 368 -24 q 325 -74 357 -57 z "},"İ":{"ha":732,"x_min":67,"x_max":665,"o":"m 419 150 q 494 167 456 158 q 572 182 533 176 q 608 178 590 185 q 644 168 626 171 q 624 137 633 154 q 601 113 615 119 q 546 96 575 100 q 489 81 517 92 q 444 58 465 72 q 401 33 424 44 q 379 21 392 28 q 363 17 367 14 q 302 44 333 43 q 240 37 271 46 q 179 24 210 28 q 119 33 140 18 q 82 92 97 49 q 167 106 126 99 q 249 119 208 114 q 307 140 288 124 q 324 200 326 156 q 319 403 318 303 q 314 606 321 504 q 297 688 313 646 q 267 781 281 729 q 206 751 235 764 q 154 721 178 738 q 135 704 144 714 q 116 693 126 694 q 90 708 106 692 q 69 755 72 731 q 90 797 67 779 q 142 833 114 817 q 199 853 169 849 q 381 878 289 868 q 564 899 472 889 q 594 894 579 901 q 626 885 610 889 q 654 871 643 881 q 663 838 665 861 q 647 810 660 814 q 617 810 633 806 q 588 813 601 814 q 482 804 535 808 q 376 793 429 800 q 360 779 369 792 q 353 761 351 767 q 407 567 397 665 q 413 369 417 468 q 410 169 408 269 q 413 164 410 168 q 419 150 415 160 m 338 992 q 284 967 314 972 q 210 994 254 961 q 205 1031 204 1007 q 229 1063 206 1054 q 258 1074 243 1071 q 289 1079 274 1078 l 331 1063 q 338 992 361 1032 z "},"Ị":{"ha":271,"x_min":64,"x_max":210,"o":"m 139 928 q 154 914 146 926 q 164 890 163 901 q 184 705 175 797 q 201 518 193 613 q 198 476 199 510 q 197 399 197 442 q 197 317 197 356 q 196 261 197 279 q 197 175 196 208 q 197 132 199 142 q 173 78 194 100 q 132 61 151 56 q 100 85 108 65 q 93 143 92 104 q 95 208 94 165 q 97 302 96 250 q 98 407 97 354 q 99 502 99 460 q 97 567 99 544 q 89 704 96 636 q 78 840 82 772 q 88 907 76 876 q 139 928 100 938 m 164 -29 q 201 -44 192 -29 q 203 -83 210 -60 q 186 -121 197 -101 q 160 -156 175 -140 q 122 -177 144 -175 q 81 -167 99 -179 q 64 -135 64 -156 q 80 -96 64 -121 q 119 -50 96 -71 q 164 -29 143 -29 z "},"Ì":{"ha":732,"x_min":67,"x_max":665,"o":"m 419 150 q 494 167 456 158 q 572 182 533 176 q 608 178 590 185 q 644 168 626 171 q 624 137 633 154 q 601 113 615 119 q 546 96 575 100 q 489 81 517 92 q 444 58 465 72 q 401 33 424 44 q 379 21 392 28 q 363 17 367 14 q 302 44 333 43 q 240 37 271 46 q 179 24 210 28 q 119 33 140 18 q 82 92 97 49 q 167 106 126 99 q 249 119 208 114 q 307 140 288 124 q 324 200 326 156 q 319 403 318 303 q 314 606 321 504 q 297 688 313 646 q 267 781 281 729 q 206 751 235 764 q 154 721 178 738 q 135 704 144 714 q 116 693 126 694 q 90 708 106 692 q 69 755 72 731 q 90 797 67 779 q 142 833 114 817 q 199 853 169 849 q 381 878 289 868 q 564 899 472 889 q 594 894 579 901 q 626 885 610 889 q 654 871 643 881 q 663 838 665 861 q 647 810 660 814 q 617 810 633 806 q 588 813 601 814 q 482 804 535 808 q 376 793 429 800 q 360 779 369 792 q 353 761 351 767 q 407 567 397 665 q 413 369 417 468 q 410 169 408 269 q 413 164 410 168 q 419 150 415 160 m 379 949 q 319 961 347 942 l 279 989 q 179 1060 219 1031 q 117 1104 139 1089 q 88 1136 100 1117 q 72 1172 76 1156 q 71 1184 72 1183 q 71 1185 69 1185 q 81 1196 72 1186 q 108 1198 89 1201 q 139 1189 128 1194 q 343 1072 289 1110 q 408 1017 399 1031 q 412 965 425 975 q 379 949 399 954 z "},"Ỉ":{"ha":732,"x_min":67,"x_max":665,"o":"m 419 150 q 494 167 456 158 q 572 182 533 176 q 608 178 590 185 q 644 168 626 171 q 624 137 633 154 q 601 113 615 119 q 546 96 575 100 q 489 81 517 92 q 444 58 465 72 q 401 33 424 44 q 379 21 392 28 q 363 17 367 14 q 302 44 333 43 q 240 37 271 46 q 179 24 210 28 q 119 33 140 18 q 82 92 97 49 q 167 106 126 99 q 249 119 208 114 q 307 140 288 124 q 324 200 326 156 q 319 403 318 303 q 314 606 321 504 q 297 688 313 646 q 267 781 281 729 q 206 751 235 764 q 154 721 178 738 q 135 704 144 714 q 116 693 126 694 q 90 708 106 692 q 69 755 72 731 q 90 797 67 779 q 142 833 114 817 q 199 853 169 849 q 381 878 289 868 q 564 899 472 889 q 594 894 579 901 q 626 885 610 889 q 654 871 643 881 q 663 838 665 861 q 647 810 660 814 q 617 810 633 806 q 588 813 601 814 q 482 804 535 808 q 376 793 429 800 q 360 779 369 792 q 353 761 351 767 q 407 567 397 665 q 413 369 417 468 q 410 169 408 269 q 413 164 410 168 q 419 150 415 160 m 292 913 q 285 978 260 953 q 338 1082 315 1010 q 333 1134 349 1111 q 290 1167 317 1157 q 239 1168 263 1178 q 159 1164 183 1154 q 135 1194 135 1174 q 151 1232 135 1215 q 194 1244 163 1240 q 265 1243 225 1247 q 342 1226 304 1239 q 401 1185 379 1213 q 421 1089 428 1122 q 391 989 425 1040 q 292 913 357 938 z "},"Ī":{"ha":647,"x_min":42,"x_max":604,"o":"m 233 1010 q 75 1049 103 1004 q 204 1101 42 1093 q 215 1101 204 1101 q 244 1103 225 1101 q 319 1099 285 1106 q 367 1092 347 1094 q 399 1092 388 1090 q 456 1101 425 1093 q 514 1112 486 1108 q 560 1103 542 1115 q 533 1019 604 1047 q 490 1015 515 1017 q 435 1014 465 1013 q 386 1014 404 1014 q 364 1013 368 1014 q 287 1014 319 1015 q 233 1010 254 1013 m 425 -36 q 388 -12 400 -26 q 374 15 376 1 q 369 74 368 43 q 368 133 371 104 q 340 452 354 293 q 308 771 325 611 q 294 823 307 797 q 275 875 282 849 q 274 904 272 888 q 281 925 275 921 q 310 929 292 931 q 333 919 328 928 q 372 862 353 893 q 397 799 392 831 q 450 409 429 603 q 468 31 471 215 q 463 -3 468 14 q 425 -36 457 -19 z "},"Į":{"ha":365,"x_min":69,"x_max":299,"o":"m 165 -261 q 101 -211 128 -250 q 83 -115 75 -172 q 110 -21 93 -57 q 194 75 167 61 q 249 88 247 106 q 219 15 250 64 q 191 -31 204 -10 q 168 -69 178 -53 q 158 -116 157 -90 q 172 -162 158 -142 q 214 -190 186 -183 q 247 -197 226 -194 q 283 -208 267 -200 q 296 -237 299 -215 q 283 -255 294 -250 q 258 -260 272 -260 q 165 -261 189 -265 m 222 10 q 185 33 197 19 q 171 61 174 47 q 167 119 165 89 q 165 179 168 150 q 137 498 151 339 q 106 817 122 657 q 92 869 104 843 q 72 921 79 894 q 71 950 69 933 q 78 971 72 967 q 107 975 89 976 q 131 965 125 974 q 169 908 150 939 q 194 844 189 876 q 247 455 226 649 q 265 76 268 261 q 260 43 265 60 q 222 10 254 26 z "},"Ɩ":{"ha":414,"x_min":54,"x_max":333,"o":"m 253 1 q 203 6 229 4 q 151 18 176 8 q 107 56 126 28 q 61 188 68 114 q 56 333 54 263 q 59 537 56 440 q 67 730 63 633 q 72 933 71 826 q 121 982 71 983 q 160 960 144 981 q 174 915 175 940 l 158 653 q 158 539 160 601 q 153 415 156 476 q 149 301 150 353 q 153 218 149 249 q 179 132 160 157 q 231 99 199 107 q 304 81 263 92 q 331 53 333 74 q 306 15 328 32 q 253 1 283 -1 z "},"Ɨ":{"ha":482,"x_min":0,"x_max":454,"o":"m 207 -3 q 173 23 183 8 q 160 51 163 38 q 160 110 156 81 q 163 169 164 140 q 160 317 161 243 q 157 465 158 392 q 66 475 106 469 q 21 483 26 481 q 7 497 14 486 q 0 518 0 508 q 6 541 0 528 q 19 556 13 554 q 64 556 25 557 q 154 551 103 554 q 151 681 153 617 q 147 810 150 746 q 139 863 147 836 q 125 917 131 889 q 126 946 124 929 q 135 965 128 963 q 158 969 142 969 q 190 965 175 968 q 207 957 204 963 q 231 897 224 929 q 238 832 238 864 q 241 690 238 761 q 249 549 244 619 q 324 549 288 549 q 386 553 360 550 q 406 558 396 554 q 425 556 417 561 q 441 533 435 549 q 454 506 447 518 q 440 487 447 497 q 426 474 433 476 q 382 469 404 469 q 338 467 360 469 q 299 463 321 464 q 253 461 278 461 q 260 258 258 358 q 254 61 263 158 q 247 28 253 44 q 207 -3 240 13 z "},"Ĩ":{"ha":732,"x_min":67,"x_max":665,"o":"m 419 150 q 494 167 456 158 q 572 182 533 176 q 608 178 590 185 q 644 168 626 171 q 624 137 633 154 q 601 113 615 119 q 546 96 575 100 q 489 81 517 92 q 444 58 465 72 q 401 33 424 44 q 379 21 392 28 q 363 17 367 14 q 302 44 333 43 q 240 37 271 46 q 179 24 210 28 q 119 33 140 18 q 82 92 97 49 q 167 106 126 99 q 249 119 208 114 q 307 140 288 124 q 324 200 326 156 q 319 403 318 303 q 314 606 321 504 q 297 688 313 646 q 267 781 281 729 q 206 751 235 764 q 154 721 178 738 q 135 704 144 714 q 116 693 126 694 q 90 708 106 692 q 69 755 72 731 q 90 797 67 779 q 142 833 114 817 q 199 853 169 849 q 381 878 289 868 q 564 899 472 889 q 594 894 579 901 q 626 885 610 889 q 654 871 643 881 q 663 838 665 861 q 647 810 660 814 q 617 810 633 806 q 588 813 601 814 q 482 804 535 808 q 376 793 429 800 q 360 779 369 792 q 353 761 351 767 q 407 567 397 665 q 413 369 417 468 q 410 169 408 269 q 413 164 410 168 q 419 150 415 160 m 442 975 q 386 975 411 971 q 356 985 372 978 q 321 1003 339 993 q 265 1031 289 1022 q 215 1038 242 1040 q 163 1003 199 1033 q 129 978 143 988 q 107 968 115 969 q 92 1004 89 964 q 118 1079 92 1044 q 188 1131 151 1125 q 263 1114 224 1138 q 331 1069 294 1090 q 403 1053 368 1047 q 451 1072 426 1057 q 479 1090 475 1088 q 500 1107 486 1094 q 522 1119 513 1118 q 571 1093 544 1124 q 558 1037 576 1061 q 508 997 539 1013 q 442 975 476 982 z "},"J":{"ha":807,"x_min":56,"x_max":753,"o":"m 407 833 q 319 808 357 821 q 244 793 281 796 q 201 801 225 792 q 163 825 176 811 q 151 872 140 851 q 197 897 163 892 q 433 926 315 911 q 668 954 550 942 q 708 950 688 957 q 746 932 729 943 q 751 904 753 928 q 743 874 750 881 q 710 857 729 863 q 674 850 692 851 q 596 849 635 849 q 518 849 557 849 q 521 776 519 813 q 524 703 522 739 q 526 439 525 571 q 529 175 526 307 q 480 43 532 83 q 349 1 428 3 q 238 8 293 1 q 126 21 183 14 q 105 27 117 22 q 88 39 93 32 q 70 74 78 56 q 56 110 63 92 q 92 113 74 111 q 126 113 110 115 q 233 101 181 107 q 339 90 286 94 q 404 110 381 88 q 429 171 428 132 q 438 351 433 261 q 439 529 442 440 q 426 678 436 604 q 407 833 415 753 z "},"Ĵ":{"ha":807,"x_min":56,"x_max":753,"o":"m 407 756 q 319 731 357 743 q 244 715 281 718 q 201 724 225 714 q 163 747 176 733 q 151 794 140 774 q 197 819 163 814 q 433 849 315 833 q 668 876 550 864 q 708 872 688 879 q 746 854 729 865 q 751 826 753 850 q 743 796 750 803 q 710 779 729 785 q 674 772 692 774 q 596 771 635 771 q 518 771 557 771 q 521 698 519 735 q 524 625 522 661 q 526 361 525 493 q 529 97 526 229 q 480 -35 532 6 q 349 -76 428 -75 q 238 -70 293 -76 q 126 -57 183 -64 q 105 -51 117 -56 q 88 -39 93 -46 q 70 -4 78 -22 q 56 32 63 14 q 92 35 74 33 q 126 35 110 38 q 233 23 181 29 q 339 13 286 17 q 404 32 381 10 q 429 93 428 54 q 438 273 433 183 q 439 451 442 363 q 426 601 436 526 q 407 756 415 675 m 621 894 q 573 920 601 894 q 516 983 544 946 q 468 1057 488 1021 q 404 1065 440 1110 q 390 1053 407 1068 q 347 1013 372 1038 q 295 965 321 989 q 253 924 269 940 q 238 908 236 907 q 208 909 225 904 q 179 924 190 914 q 173 944 174 926 q 179 969 172 963 q 224 1014 206 996 q 259 1049 242 1032 q 299 1088 276 1067 q 357 1143 322 1110 q 451 1192 414 1196 q 529 1124 489 1189 q 561 1078 549 1093 q 583 1053 574 1064 q 605 1028 593 1043 q 635 982 617 1014 q 645 961 642 972 q 654 933 649 950 q 638 909 646 924 q 621 894 629 894 z "},"K":{"ha":979,"x_min":68,"x_max":968,"o":"m 311 419 q 264 379 289 403 q 224 322 239 356 q 217 235 210 288 q 223 172 219 211 q 222 94 226 133 q 197 27 217 54 q 136 0 178 0 q 114 19 119 0 q 110 66 108 39 q 114 119 111 93 q 117 160 117 146 q 108 448 111 304 q 100 735 106 592 q 87 810 99 772 q 69 885 75 847 q 75 919 68 901 q 86 953 82 936 q 146 939 133 953 q 163 910 158 925 q 193 772 181 842 q 217 633 206 703 q 224 575 222 604 q 229 518 226 546 q 374 642 303 581 q 518 763 446 703 q 581 810 549 788 q 647 850 613 833 q 678 859 658 856 q 715 860 699 863 q 731 844 731 858 q 726 800 731 824 q 708 765 721 776 q 598 672 654 717 q 485 582 542 626 q 432 530 446 551 q 429 486 418 508 q 476 429 440 464 q 621 308 554 360 q 762 215 688 256 q 933 133 836 174 q 957 109 946 128 q 968 72 968 90 q 952 54 968 58 q 917 53 936 50 q 886 61 897 56 q 811 97 840 83 q 754 125 782 110 q 681 165 726 140 q 577 226 629 194 q 475 290 525 257 q 394 351 433 318 q 311 419 356 385 z "},"Ǩ":{"ha":979,"x_min":68,"x_max":968,"o":"m 311 419 q 264 379 289 403 q 224 322 239 356 q 217 235 210 288 q 223 172 219 211 q 222 94 226 133 q 197 27 217 54 q 136 0 178 0 q 114 19 119 0 q 110 66 108 39 q 114 119 111 93 q 117 160 117 146 q 108 448 111 304 q 100 735 106 592 q 87 810 99 772 q 69 885 75 847 q 75 919 68 901 q 86 953 82 936 q 146 939 133 953 q 163 910 158 925 q 193 772 181 842 q 217 633 206 703 q 224 575 222 604 q 229 518 226 546 q 374 642 303 581 q 518 763 446 703 q 581 810 549 788 q 647 850 613 833 q 678 859 658 856 q 715 860 699 863 q 731 844 731 858 q 726 800 731 824 q 708 765 721 776 q 598 672 654 717 q 485 582 542 626 q 432 530 446 551 q 429 486 418 508 q 476 429 440 464 q 621 308 554 360 q 762 215 688 256 q 933 133 836 174 q 957 109 946 128 q 968 72 968 90 q 952 54 968 58 q 917 53 936 50 q 886 61 897 56 q 811 97 840 83 q 754 125 782 110 q 681 165 726 140 q 577 226 629 194 q 475 290 525 257 q 394 351 433 318 q 311 419 356 385 m 375 874 q 315 899 343 882 q 267 953 286 915 q 239 1015 250 989 q 222 1056 228 1040 q 211 1089 211 1086 q 228 1121 211 1108 q 274 1133 246 1133 l 319 1036 q 390 958 339 981 q 532 1083 485 1033 q 552 1105 536 1089 q 588 1136 568 1121 q 618 1151 607 1151 q 643 1113 643 1138 q 625 1074 643 1090 q 460 907 506 968 q 375 874 419 861 z "},"Ķ":{"ha":979,"x_min":68,"x_max":968,"o":"m 311 419 q 264 379 289 403 q 224 322 239 356 q 217 235 210 288 q 223 172 219 211 q 222 94 226 133 q 197 27 217 54 q 136 0 178 0 q 114 19 119 0 q 110 66 108 39 q 114 119 111 93 q 117 160 117 146 q 108 448 111 304 q 100 735 106 592 q 87 810 99 772 q 69 885 75 847 q 75 919 68 901 q 86 953 82 936 q 146 939 133 953 q 163 910 158 925 q 193 772 181 842 q 217 633 206 703 q 224 575 222 604 q 229 518 226 546 q 374 642 303 581 q 518 763 446 703 q 581 810 549 788 q 647 850 613 833 q 678 859 658 856 q 715 860 699 863 q 731 844 731 858 q 726 800 731 824 q 708 765 721 776 q 598 672 654 717 q 485 582 542 626 q 432 530 446 551 q 429 486 418 508 q 476 429 440 464 q 621 308 554 360 q 762 215 688 256 q 933 133 836 174 q 957 109 946 128 q 968 72 968 90 q 952 54 968 58 q 917 53 936 50 q 886 61 897 56 q 811 97 840 83 q 754 125 782 110 q 681 165 726 140 q 577 226 629 194 q 475 290 525 257 q 394 351 433 318 q 311 419 356 385 m 475 -192 q 441 -252 457 -226 q 408 -260 425 -278 q 398 -239 404 -254 q 391 -206 392 -224 q 401 -178 390 -189 q 414 -57 421 -79 q 458 8 414 -3 q 491 12 478 13 q 510 -5 504 11 q 508 -65 515 -21 q 475 -192 503 -143 z "},"Ƙ":{"ha":928,"x_min":68,"x_max":918,"o":"m 836 31 q 668 24 751 21 q 500 42 585 26 q 332 105 410 60 q 176 214 254 150 q 172 173 174 189 q 168 142 171 157 q 147 98 163 114 q 111 86 131 82 q 79 110 85 90 q 69 149 74 129 q 69 156 68 151 q 69 164 69 160 l 89 838 q 89 844 89 840 q 90 851 89 849 q 103 894 96 874 q 140 917 110 915 q 178 901 164 918 q 192 849 192 883 q 190 651 192 750 q 186 453 189 551 q 185 415 186 435 q 182 367 185 396 q 206 385 199 381 q 217 396 214 390 q 397 626 299 519 q 606 828 496 732 q 679 856 647 864 q 729 856 700 857 q 770 845 747 854 q 821 821 793 836 q 882 739 875 768 q 867 678 879 700 q 833 669 856 656 q 776 749 811 682 q 746 757 769 758 q 699 749 722 756 q 503 581 590 676 q 336 386 417 486 q 325 371 331 379 q 315 356 319 363 q 294 278 289 303 q 350 221 300 253 q 445 168 396 190 q 550 142 494 146 q 826 133 688 133 q 894 125 872 133 q 917 93 915 117 q 897 53 918 71 q 836 31 876 35 z "},"Ḵ":{"ha":979,"x_min":68,"x_max":968,"o":"m 311 419 q 264 379 289 403 q 224 322 239 356 q 217 235 210 288 q 223 172 219 211 q 222 94 226 133 q 197 27 217 54 q 136 0 178 0 q 114 19 119 0 q 110 66 108 39 q 114 119 111 93 q 117 160 117 146 q 108 448 111 304 q 100 735 106 592 q 87 810 99 772 q 69 885 75 847 q 75 919 68 901 q 86 953 82 936 q 146 939 133 953 q 163 910 158 925 q 193 772 181 842 q 217 633 206 703 q 224 575 222 604 q 229 518 226 546 q 374 642 303 581 q 518 763 446 703 q 581 810 549 788 q 647 850 613 833 q 678 859 658 856 q 715 860 699 863 q 731 844 731 858 q 726 800 731 824 q 708 765 721 776 q 598 672 654 717 q 485 582 542 626 q 432 530 446 551 q 429 486 418 508 q 476 429 440 464 q 621 308 554 360 q 762 215 688 256 q 933 133 836 174 q 957 109 946 128 q 968 72 968 90 q 952 54 968 58 q 917 53 936 50 q 886 61 897 56 q 811 97 840 83 q 754 125 782 110 q 681 165 726 140 q 577 226 629 194 q 475 290 525 257 q 394 351 433 318 q 311 419 356 385 m 350 -249 q 282 -201 300 -240 q 279 -185 281 -196 q 278 -167 278 -174 q 322 -110 293 -132 q 385 -87 351 -87 q 426 -106 408 -87 q 443 -158 443 -125 q 432 -204 443 -182 q 358 -249 419 -225 l 350 -249 z "},"L":{"ha":856,"x_min":68,"x_max":844,"o":"m 315 -53 q 238 -33 276 -58 q 172 39 199 -7 q 140 139 146 85 q 128 370 129 254 q 121 600 126 486 q 115 724 119 663 q 104 849 111 786 q 90 887 103 868 q 72 925 76 906 q 71 967 68 946 q 74 1010 74 989 q 118 1006 93 1006 q 151 993 143 1006 q 188 931 172 964 q 211 863 204 897 q 224 787 221 815 q 226 731 228 758 q 218 654 224 703 q 217 476 218 565 q 219 299 217 388 q 230 206 222 251 q 247 114 238 160 q 285 51 257 71 q 357 40 313 32 q 531 77 443 58 q 704 113 618 96 q 804 119 757 124 q 827 105 815 118 q 842 81 839 92 q 834 60 844 74 q 815 43 824 46 q 566 -9 690 17 q 315 -53 442 -35 z "},"Ĺ":{"ha":856,"x_min":68,"x_max":844,"o":"m 315 -53 q 238 -33 276 -58 q 172 39 199 -7 q 140 139 146 85 q 128 370 129 254 q 121 600 126 486 q 115 724 119 663 q 104 849 111 786 q 90 887 103 868 q 72 925 76 906 q 71 967 68 946 q 74 1010 74 989 q 118 1006 93 1006 q 151 993 143 1006 q 188 931 172 964 q 211 863 204 897 q 224 787 221 815 q 226 731 228 758 q 218 654 224 703 q 217 476 218 565 q 219 299 217 388 q 230 206 222 251 q 247 114 238 160 q 285 51 257 71 q 357 40 313 32 q 531 77 443 58 q 704 113 618 96 q 804 119 757 124 q 827 105 815 118 q 842 81 839 92 q 834 60 844 74 q 815 43 824 46 q 566 -9 690 17 q 315 -53 442 -35 m 93 1035 q 85 1065 83 1049 q 100 1094 86 1082 q 151 1142 126 1118 q 201 1189 176 1165 q 252 1235 226 1213 q 304 1281 278 1257 q 351 1285 329 1301 q 380 1242 378 1268 q 357 1199 382 1217 q 256 1125 301 1167 q 163 1044 211 1083 q 126 1024 150 1031 q 93 1035 103 1018 z "},"Ľ":{"ha":856,"x_min":68,"x_max":844,"o":"m 315 -53 q 238 -33 276 -58 q 172 39 199 -7 q 140 139 146 85 q 128 370 129 254 q 121 600 126 486 q 115 724 119 663 q 104 849 111 786 q 90 887 103 868 q 72 925 76 906 q 71 967 68 946 q 74 1010 74 989 q 118 1006 93 1006 q 151 993 143 1006 q 188 931 172 964 q 211 863 204 897 q 224 787 221 815 q 226 731 228 758 q 218 654 224 703 q 217 476 218 565 q 219 299 217 388 q 230 206 222 251 q 247 114 238 160 q 285 51 257 71 q 357 40 313 32 q 531 77 443 58 q 704 113 618 96 q 804 119 757 124 q 827 105 815 118 q 842 81 839 92 q 834 60 844 74 q 815 43 824 46 q 566 -9 690 17 q 315 -53 442 -35 m 474 685 q 468 719 467 710 q 468 733 468 721 q 469 767 468 746 q 469 812 469 792 q 468 849 468 832 l 460 942 q 451 1011 446 993 q 494 1040 456 1029 q 538 1004 533 1022 q 542 983 540 990 q 542 978 543 976 q 543 929 542 978 q 542 799 547 854 q 501 682 538 743 q 485 678 496 676 q 474 685 475 681 z "},"Ḽ":{"ha":856,"x_min":68,"x_max":844,"o":"m 315 89 q 238 109 276 83 q 172 181 199 135 q 140 281 146 226 q 128 512 129 396 q 121 742 126 628 q 115 866 119 804 q 104 990 111 928 q 90 1028 103 1010 q 72 1067 76 1047 q 71 1109 68 1088 q 74 1151 74 1131 q 118 1147 93 1147 q 151 1135 143 1147 q 188 1072 172 1106 q 211 1004 204 1039 q 224 928 221 957 q 226 872 228 900 q 218 796 224 844 q 217 618 218 707 q 219 440 217 529 q 230 347 222 393 q 247 256 238 301 q 285 193 257 213 q 357 182 313 174 q 531 219 443 200 q 704 254 618 238 q 804 261 757 265 q 827 247 815 260 q 842 222 839 233 q 834 201 844 215 q 815 185 824 188 q 566 133 690 158 q 315 89 442 107 m 642 -268 q 597 -244 624 -268 q 545 -186 571 -221 q 501 -118 519 -151 q 442 -110 475 -69 q 428 -122 443 -107 q 389 -158 413 -136 q 341 -203 365 -181 q 301 -242 317 -226 q 288 -256 286 -257 q 260 -255 275 -260 q 233 -242 244 -250 q 227 -222 228 -239 q 233 -199 226 -206 q 285 -147 265 -167 q 330 -103 306 -126 q 397 -39 354 -79 q 485 8 450 11 q 557 -56 519 4 q 587 -99 575 -85 q 608 -122 599 -112 q 628 -144 617 -131 q 656 -187 639 -158 q 664 -206 661 -196 q 674 -232 667 -217 q 658 -255 665 -242 q 642 -268 650 -268 z "},"Ļ":{"ha":856,"x_min":68,"x_max":844,"o":"m 315 -53 q 238 -33 276 -58 q 172 39 199 -7 q 140 139 146 85 q 128 370 129 254 q 121 600 126 486 q 115 724 119 663 q 104 849 111 786 q 90 887 103 868 q 72 925 76 906 q 71 967 68 946 q 74 1010 74 989 q 118 1006 93 1006 q 151 993 143 1006 q 188 931 172 964 q 211 863 204 897 q 224 787 221 815 q 226 731 228 758 q 218 654 224 703 q 217 476 218 565 q 219 299 217 388 q 230 206 222 251 q 247 114 238 160 q 285 51 257 71 q 357 40 313 32 q 531 77 443 58 q 704 113 618 96 q 804 119 757 124 q 827 105 815 118 q 842 81 839 92 q 834 60 844 74 q 815 43 824 46 q 566 -9 690 17 q 315 -53 442 -35 m 467 -278 q 436 -338 450 -312 q 407 -346 422 -364 q 397 -325 403 -340 q 391 -292 392 -310 q 400 -264 390 -275 q 411 -143 417 -165 q 451 -78 411 -89 q 481 -74 469 -74 q 497 -91 493 -75 q 496 -151 501 -107 q 467 -278 490 -229 z "},"Ŀ":{"ha":856,"x_min":68,"x_max":844,"o":"m 315 -53 q 238 -33 276 -58 q 172 39 199 -7 q 140 139 146 85 q 128 370 129 254 q 121 600 126 486 q 115 724 119 663 q 104 849 111 786 q 90 887 103 868 q 72 925 76 906 q 71 967 68 946 q 74 1010 74 989 q 118 1006 93 1006 q 151 993 143 1006 q 188 931 172 964 q 211 863 204 897 q 224 787 221 815 q 226 731 228 758 q 218 654 224 703 q 217 476 218 565 q 219 299 217 388 q 230 206 222 251 q 247 114 238 160 q 285 51 257 71 q 357 40 313 32 q 531 77 443 58 q 704 113 618 96 q 804 119 757 124 q 827 105 815 118 q 842 81 839 92 q 834 60 844 74 q 815 43 824 46 q 566 -9 690 17 q 315 -53 442 -35 m 474 440 q 431 413 454 418 q 372 443 408 407 q 369 483 368 457 q 388 518 369 508 q 410 531 399 528 q 435 536 422 535 l 468 518 q 474 440 492 485 z "},"Ḷ":{"ha":708,"x_min":79,"x_max":667,"o":"m 201 921 q 214 540 208 725 q 225 172 219 354 q 248 117 226 125 q 308 121 269 108 q 449 165 378 144 q 592 201 519 185 q 621 204 603 204 q 653 199 639 204 q 667 181 667 194 q 653 145 667 163 q 624 122 639 128 q 527 90 576 104 q 429 60 478 75 q 343 24 388 46 q 201 17 263 -15 q 129 138 140 49 q 122 241 124 189 q 118 344 119 293 q 110 608 114 476 q 103 869 107 739 q 88 949 101 907 q 86 997 79 976 q 122 1017 93 1018 q 163 1001 142 1017 q 197 968 183 985 q 203 941 206 958 q 201 921 201 924 m 407 -256 q 339 -208 357 -247 q 336 -192 338 -203 q 335 -174 335 -181 q 379 -117 350 -139 q 442 -94 408 -94 q 483 -113 465 -94 q 500 -165 500 -132 q 489 -211 500 -189 q 415 -256 476 -232 l 407 -256 z "},"Ḹ":{"ha":856,"x_min":68,"x_max":844,"o":"m 315 -53 q 238 -33 276 -58 q 172 39 199 -7 q 140 139 146 85 q 128 370 129 254 q 121 600 126 486 q 115 724 119 663 q 104 849 111 786 q 90 887 103 868 q 72 925 76 906 q 71 967 68 946 q 74 1010 74 989 q 118 1006 93 1006 q 151 993 143 1006 q 188 931 172 964 q 211 863 204 897 q 224 787 221 815 q 226 731 228 758 q 218 654 224 703 q 217 476 218 565 q 219 299 217 388 q 230 206 222 251 q 247 114 238 160 q 285 51 257 71 q 357 40 313 32 q 531 77 443 58 q 704 113 618 96 q 804 119 757 124 q 827 105 815 118 q 842 81 839 92 q 834 60 844 74 q 815 43 824 46 q 566 -9 690 17 q 315 -53 442 -35 m 438 -268 q 403 -291 422 -286 q 356 -265 383 -296 q 352 -233 351 -254 q 368 -204 353 -212 q 386 -194 376 -197 q 406 -190 396 -190 l 432 -204 q 438 -268 451 -232 m 261 1094 q 103 1133 131 1089 q 232 1186 69 1178 q 242 1186 232 1186 q 272 1188 253 1186 q 347 1183 313 1190 q 395 1177 375 1179 q 426 1176 415 1175 q 483 1185 453 1178 q 542 1197 514 1193 q 588 1188 569 1200 q 561 1104 632 1132 q 518 1099 543 1101 q 463 1099 493 1097 q 414 1099 432 1099 q 392 1097 396 1099 q 315 1099 347 1100 q 261 1094 282 1097 z "},"Ḻ":{"ha":856,"x_min":68,"x_max":844,"o":"m 315 -53 q 238 -33 276 -58 q 172 39 199 -7 q 140 139 146 85 q 128 370 129 254 q 121 600 126 486 q 115 724 119 663 q 104 849 111 786 q 90 887 103 868 q 72 925 76 906 q 71 967 68 946 q 74 1010 74 989 q 118 1006 93 1006 q 151 993 143 1006 q 188 931 172 964 q 211 863 204 897 q 224 787 221 815 q 226 731 228 758 q 218 654 224 703 q 217 476 218 565 q 219 299 217 388 q 230 206 222 251 q 247 114 238 160 q 285 51 257 71 q 357 40 313 32 q 531 77 443 58 q 704 113 618 96 q 804 119 757 124 q 827 105 815 118 q 842 81 839 92 q 834 60 844 74 q 815 43 824 46 q 566 -9 690 17 q 315 -53 442 -35 m 438 -268 q 403 -291 422 -286 q 356 -265 383 -296 q 352 -233 351 -254 q 368 -204 353 -212 q 386 -194 376 -197 q 406 -190 396 -190 l 432 -204 q 438 -268 451 -232 z "},"Ł":{"ha":913,"x_min":81,"x_max":907,"o":"m 428 -58 q 299 -35 351 -71 q 235 81 246 1 q 222 257 224 168 q 218 435 219 346 q 217 710 217 572 q 215 986 217 849 q 224 1034 214 1015 q 267 1057 235 1053 q 314 1044 301 1063 q 328 997 326 1025 q 329 920 331 958 q 328 843 328 882 q 315 571 321 707 q 306 299 308 435 q 313 192 304 246 q 326 86 321 139 q 351 40 329 50 q 403 36 372 31 q 609 78 507 56 q 804 156 711 100 q 833 163 815 163 q 868 160 851 164 q 889 149 885 157 q 892 97 907 118 q 846 57 878 75 q 642 -19 749 1 q 428 -58 535 -40 m 501 706 q 436 628 476 671 q 349 544 396 586 q 260 467 303 503 q 187 409 217 432 q 150 383 157 386 q 123 380 140 378 q 97 390 106 382 q 85 417 89 399 q 85 444 81 436 q 122 481 90 451 q 200 555 153 511 q 300 649 247 599 q 400 747 353 699 q 478 832 447 794 q 496 858 488 843 q 517 875 504 872 q 553 873 533 879 q 592 863 574 867 q 594 831 592 849 q 589 804 596 814 q 547 754 569 778 q 501 706 524 731 z "},"M":{"ha":1218,"x_min":67,"x_max":1149,"o":"m 1132 -1 q 1094 16 1106 0 q 1078 46 1082 32 q 1026 253 1050 149 q 974 461 1001 358 q 928 613 953 538 q 875 760 904 688 q 824 818 851 817 q 758 771 796 819 q 678 614 703 699 q 628 444 654 529 q 604 381 619 415 q 567 340 589 347 q 503 356 528 328 q 460 419 478 385 q 380 583 421 501 q 294 743 339 664 q 269 784 285 760 q 221 842 254 808 q 224 689 221 769 q 219 536 226 608 q 199 336 213 436 q 172 136 185 236 q 153 90 169 108 q 106 79 136 71 q 72 108 78 86 q 74 160 67 129 q 136 781 147 467 q 132 833 135 807 q 131 886 129 860 q 140 933 132 906 q 154 961 149 961 q 213 956 182 960 q 258 933 244 951 q 351 804 307 871 q 435 668 394 738 q 481 578 461 625 q 524 483 501 531 l 540 488 q 569 581 556 533 q 600 671 582 628 q 644 764 619 718 q 697 853 668 810 q 804 920 742 918 q 915 857 867 922 q 1016 674 981 772 q 1069 469 1051 575 q 1107 273 1086 371 q 1146 76 1128 175 q 1148 36 1149 58 q 1132 -1 1147 14 z "},"Ḿ":{"ha":1218,"x_min":67,"x_max":1149,"o":"m 1132 -1 q 1094 16 1106 0 q 1078 46 1082 32 q 1026 253 1050 149 q 974 461 1001 358 q 928 613 953 538 q 875 760 904 688 q 824 818 851 817 q 758 771 796 819 q 678 614 703 699 q 628 444 654 529 q 604 381 619 415 q 567 340 589 347 q 503 356 528 328 q 460 419 478 385 q 380 583 421 501 q 294 743 339 664 q 269 784 285 760 q 221 842 254 808 q 224 689 221 769 q 219 536 226 608 q 199 336 213 436 q 172 136 185 236 q 153 90 169 108 q 106 79 136 71 q 72 108 78 86 q 74 160 67 129 q 136 781 147 467 q 132 833 135 807 q 131 886 129 860 q 140 933 132 906 q 154 961 149 961 q 213 956 182 960 q 258 933 244 951 q 351 804 307 871 q 435 668 394 738 q 481 578 461 625 q 524 483 501 531 l 540 488 q 569 581 556 533 q 600 671 582 628 q 644 764 619 718 q 697 853 668 810 q 804 920 742 918 q 915 857 867 922 q 1016 674 981 772 q 1069 469 1051 575 q 1107 273 1086 371 q 1146 76 1128 175 q 1148 36 1149 58 q 1132 -1 1147 14 m 472 883 q 463 918 461 899 q 479 950 465 938 q 537 1005 510 978 q 592 1060 564 1032 q 649 1112 619 1086 q 706 1165 678 1138 q 758 1169 733 1188 q 789 1121 786 1151 q 764 1071 792 1090 q 652 987 701 1035 q 549 894 603 939 q 510 871 536 878 q 472 883 483 864 z "},"Ṁ":{"ha":1218,"x_min":86,"x_max":1168,"o":"m 1151 -29 q 1113 -12 1125 -28 q 1097 18 1101 4 q 1045 226 1069 121 q 993 433 1021 331 q 948 585 972 510 q 894 732 924 660 q 843 790 871 789 q 778 743 815 792 q 698 586 722 671 q 647 417 674 501 q 624 353 639 388 q 586 313 608 319 q 522 328 547 300 q 479 392 497 357 q 399 555 440 474 q 314 715 358 636 q 289 756 304 732 q 240 814 274 781 q 243 661 240 742 q 239 508 246 581 q 218 308 232 408 q 192 108 204 208 q 172 62 189 81 q 125 51 156 43 q 92 80 97 58 q 93 132 86 101 q 156 753 167 439 q 151 806 154 779 q 150 858 149 832 q 160 906 151 878 q 174 933 168 933 q 233 928 201 932 q 278 906 264 924 q 370 776 326 843 q 454 640 414 710 q 501 550 481 597 q 543 456 521 503 l 560 460 q 588 553 575 506 q 619 643 601 600 q 663 736 639 690 q 717 825 688 782 q 824 892 761 890 q 935 829 886 894 q 1035 646 1000 744 q 1089 442 1071 547 q 1126 245 1106 343 q 1165 49 1147 147 q 1167 8 1168 31 q 1151 -29 1167 -14 m 490 1068 q 437 1043 467 1049 q 363 1071 407 1038 q 358 1107 357 1083 q 382 1139 358 1131 q 411 1151 396 1147 q 442 1156 426 1154 l 483 1139 q 490 1068 514 1108 z "},"Ṃ":{"ha":1218,"x_min":67,"x_max":1149,"o":"m 1132 -1 q 1094 16 1106 0 q 1078 46 1082 32 q 1026 253 1050 149 q 974 461 1001 358 q 928 613 953 538 q 875 760 904 688 q 824 818 851 817 q 758 771 796 819 q 678 614 703 699 q 628 444 654 529 q 604 381 619 415 q 567 340 589 347 q 503 356 528 328 q 460 419 478 385 q 380 583 421 501 q 294 743 339 664 q 269 784 285 760 q 221 842 254 808 q 224 689 221 769 q 219 536 226 608 q 199 336 213 436 q 172 136 185 236 q 153 90 169 108 q 106 79 136 71 q 72 108 78 86 q 74 160 67 129 q 136 781 147 467 q 132 833 135 807 q 131 886 129 860 q 140 933 132 906 q 154 961 149 961 q 213 956 182 960 q 258 933 244 951 q 351 804 307 871 q 435 668 394 738 q 481 578 461 625 q 524 483 501 531 l 540 488 q 569 581 556 533 q 600 671 582 628 q 644 764 619 718 q 697 853 668 810 q 804 920 742 918 q 915 857 867 922 q 1016 674 981 772 q 1069 469 1051 575 q 1107 273 1086 371 q 1146 76 1128 175 q 1148 36 1149 58 q 1132 -1 1147 14 m 579 -176 q 538 -204 561 -199 q 481 -174 515 -210 q 477 -135 476 -160 q 496 -100 478 -110 q 517 -87 506 -92 q 542 -82 529 -83 l 574 -100 q 579 -176 597 -133 z "},"N":{"ha":925,"x_min":65,"x_max":835,"o":"m 131 8 q 82 34 99 13 q 71 94 65 56 q 108 387 90 240 q 147 679 125 533 q 160 724 150 700 q 183 766 169 747 q 211 788 197 785 q 275 776 238 794 q 331 735 313 758 q 494 520 415 629 q 654 303 574 411 q 694 248 671 281 q 731 193 717 215 l 740 217 q 741 319 740 268 q 739 419 742 369 q 733 622 738 521 q 728 822 729 722 q 738 860 728 842 q 756 896 749 878 q 794 872 774 896 q 824 828 814 849 q 834 774 833 803 q 835 717 835 744 q 834 400 835 558 q 831 83 833 242 q 815 42 831 65 q 788 19 800 19 q 745 30 769 18 q 710 57 721 42 q 533 318 617 192 q 342 567 449 444 q 292 613 318 594 q 247 650 265 632 q 237 567 242 594 q 229 524 232 540 q 223 485 226 507 q 215 419 219 464 q 202 252 207 336 q 190 85 197 168 q 179 30 189 56 q 131 8 169 4 z "},"Ń":{"ha":925,"x_min":65,"x_max":835,"o":"m 131 8 q 82 34 99 13 q 71 94 65 56 q 108 387 90 240 q 147 679 125 533 q 160 724 150 700 q 183 766 169 747 q 211 788 197 785 q 275 776 238 794 q 331 735 313 758 q 494 520 415 629 q 654 303 574 411 q 694 248 671 281 q 731 193 717 215 l 740 217 q 741 319 740 268 q 739 419 742 369 q 733 622 738 521 q 728 822 729 722 q 738 860 728 842 q 756 896 749 878 q 794 872 774 896 q 824 828 814 849 q 834 774 833 803 q 835 717 835 744 q 834 400 835 558 q 831 83 833 242 q 815 42 831 65 q 788 19 800 19 q 745 30 769 18 q 710 57 721 42 q 533 318 617 192 q 342 567 449 444 q 292 613 318 594 q 247 650 265 632 q 237 567 242 594 q 229 524 232 540 q 223 485 226 507 q 215 419 219 464 q 202 252 207 336 q 190 85 197 168 q 179 30 189 56 q 131 8 169 4 m 364 849 q 355 883 353 864 q 371 915 357 903 q 428 970 401 943 q 483 1025 456 997 q 540 1077 511 1051 q 597 1131 569 1103 q 650 1135 625 1153 q 681 1086 678 1117 q 656 1036 683 1056 q 544 952 593 1000 q 440 860 494 904 q 401 836 428 843 q 364 849 375 829 z "},"Ň":{"ha":925,"x_min":65,"x_max":835,"o":"m 131 8 q 82 34 99 13 q 71 94 65 56 q 108 387 90 240 q 147 679 125 533 q 160 724 150 700 q 183 766 169 747 q 211 788 197 785 q 275 776 238 794 q 331 735 313 758 q 494 520 415 629 q 654 303 574 411 q 694 248 671 281 q 731 193 717 215 l 740 217 q 741 319 740 268 q 739 419 742 369 q 733 622 738 521 q 728 822 729 722 q 738 860 728 842 q 756 896 749 878 q 794 872 774 896 q 824 828 814 849 q 834 774 833 803 q 835 717 835 744 q 834 400 835 558 q 831 83 833 242 q 815 42 831 65 q 788 19 800 19 q 745 30 769 18 q 710 57 721 42 q 533 318 617 192 q 342 567 449 444 q 292 613 318 594 q 247 650 265 632 q 237 567 242 594 q 229 524 232 540 q 223 485 226 507 q 215 419 219 464 q 202 252 207 336 q 190 85 197 168 q 179 30 189 56 q 131 8 169 4 m 457 810 q 397 835 425 818 q 349 889 368 851 q 321 951 332 925 q 304 992 310 976 q 293 1025 293 1022 q 310 1057 293 1044 q 356 1069 328 1069 l 401 972 q 472 894 421 917 q 614 1019 567 969 q 634 1041 618 1025 q 669 1072 650 1057 q 700 1088 689 1088 q 725 1049 725 1074 q 707 1010 725 1026 q 542 843 588 904 q 457 810 501 797 z "},"Ṋ":{"ha":978,"x_min":69,"x_max":888,"o":"m 611 285 q 647 313 639 299 q 658 340 656 326 q 695 532 678 436 q 732 722 713 628 q 759 832 743 778 q 790 939 775 886 q 803 965 794 953 q 819 988 813 976 q 852 981 842 985 q 869 969 863 978 q 888 940 876 961 q 886 925 886 933 q 883 911 886 917 q 840 816 854 865 q 818 714 826 767 q 785 492 801 603 q 749 271 768 382 q 733 206 743 238 q 717 142 724 174 q 695 119 707 128 q 667 111 683 111 q 653 115 660 114 q 639 121 646 117 q 551 201 592 157 q 475 293 511 246 q 390 408 432 350 q 303 521 347 465 q 288 535 297 529 q 263 532 278 540 q 255 523 260 528 q 249 511 250 518 q 210 298 233 404 q 178 83 188 192 q 167 41 176 61 q 135 11 158 21 q 93 24 108 10 q 69 58 78 38 q 76 167 71 111 q 94 294 82 222 q 125 467 106 365 q 174 713 144 568 q 188 728 181 719 q 203 742 194 736 q 217 749 210 747 q 232 756 224 751 l 278 742 q 353 625 315 685 q 433 508 390 565 q 517 394 475 451 q 611 285 558 336 m 628 -268 q 583 -244 610 -268 q 531 -186 557 -221 q 488 -118 506 -151 q 428 -110 461 -69 q 414 -122 429 -107 q 375 -158 399 -136 q 327 -203 351 -181 q 288 -242 303 -226 q 274 -256 272 -257 q 246 -255 261 -260 q 219 -242 231 -250 q 213 -222 214 -239 q 219 -199 213 -206 q 272 -147 251 -167 q 316 -103 292 -126 q 383 -39 340 -79 q 471 8 436 11 q 543 -56 506 4 q 573 -99 561 -85 q 594 -122 585 -112 q 614 -144 603 -131 q 642 -187 625 -158 q 650 -206 647 -196 q 660 -232 653 -217 q 644 -255 651 -242 q 628 -268 636 -268 z "},"Ņ":{"ha":925,"x_min":65,"x_max":835,"o":"m 131 8 q 82 34 99 13 q 71 94 65 56 q 108 387 90 240 q 147 679 125 533 q 160 724 150 700 q 183 766 169 747 q 211 788 197 785 q 275 776 238 794 q 331 735 313 758 q 494 520 415 629 q 654 303 574 411 q 694 248 671 281 q 731 193 717 215 l 740 217 q 741 319 740 268 q 739 419 742 369 q 733 622 738 521 q 728 822 729 722 q 738 860 728 842 q 756 896 749 878 q 794 872 774 896 q 824 828 814 849 q 834 774 833 803 q 835 717 835 744 q 834 400 835 558 q 831 83 833 242 q 815 42 831 65 q 788 19 800 19 q 745 30 769 18 q 710 57 721 42 q 533 318 617 192 q 342 567 449 444 q 292 613 318 594 q 247 650 265 632 q 237 567 242 594 q 229 524 232 540 q 223 485 226 507 q 215 419 219 464 q 202 252 207 336 q 190 85 197 168 q 179 30 189 56 q 131 8 169 4 m 475 -151 q 441 -212 457 -186 q 408 -219 425 -237 q 398 -199 404 -214 q 391 -166 392 -183 q 401 -137 390 -149 q 414 -17 421 -39 q 458 49 414 38 q 491 52 478 53 q 510 35 504 51 q 508 -25 515 19 q 475 -151 503 -103 z "},"Ṅ":{"ha":925,"x_min":65,"x_max":835,"o":"m 131 8 q 82 34 99 13 q 71 94 65 56 q 108 387 90 240 q 147 679 125 533 q 160 724 150 700 q 183 766 169 747 q 211 788 197 785 q 275 776 238 794 q 331 735 313 758 q 494 520 415 629 q 654 303 574 411 q 694 248 671 281 q 731 193 717 215 l 740 217 q 741 319 740 268 q 739 419 742 369 q 733 622 738 521 q 728 822 729 722 q 738 860 728 842 q 756 896 749 878 q 794 872 774 896 q 824 828 814 849 q 834 774 833 803 q 835 717 835 744 q 834 400 835 558 q 831 83 833 242 q 815 42 831 65 q 788 19 800 19 q 745 30 769 18 q 710 57 721 42 q 533 318 617 192 q 342 567 449 444 q 292 613 318 594 q 247 650 265 632 q 237 567 242 594 q 229 524 232 540 q 223 485 226 507 q 215 419 219 464 q 202 252 207 336 q 190 85 197 168 q 179 30 189 56 q 131 8 169 4 m 525 876 q 472 851 501 857 q 397 879 442 846 q 392 915 392 892 q 417 947 393 939 q 446 959 431 956 q 476 964 461 963 l 518 947 q 525 876 549 917 z "},"Ṇ":{"ha":925,"x_min":65,"x_max":835,"o":"m 131 8 q 82 34 99 13 q 71 94 65 56 q 108 387 90 240 q 147 679 125 533 q 160 724 150 700 q 183 766 169 747 q 211 788 197 785 q 275 776 238 794 q 331 735 313 758 q 494 520 415 629 q 654 303 574 411 q 694 248 671 281 q 731 193 717 215 l 740 217 q 741 319 740 268 q 739 419 742 369 q 733 622 738 521 q 728 822 729 722 q 738 860 728 842 q 756 896 749 878 q 794 872 774 896 q 824 828 814 849 q 834 774 833 803 q 835 717 835 744 q 834 400 835 558 q 831 83 833 242 q 815 42 831 65 q 788 19 800 19 q 745 30 769 18 q 710 57 721 42 q 533 318 617 192 q 342 567 449 444 q 292 613 318 594 q 247 650 265 632 q 237 567 242 594 q 229 524 232 540 q 223 485 226 507 q 215 419 219 464 q 202 252 207 336 q 190 85 197 168 q 179 30 189 56 q 131 8 169 4 m 542 -182 q 488 -207 518 -201 q 414 -179 458 -212 q 409 -143 408 -167 q 433 -111 410 -119 q 463 -99 447 -103 q 493 -94 478 -96 l 535 -111 q 542 -182 565 -142 z "},"Ɲ":{"ha":1097,"x_min":47,"x_max":1007,"o":"m 89 -89 q 56 -51 64 -72 q 73 -16 47 -31 q 175 -8 99 -1 q 215 9 197 -10 q 238 49 232 28 l 242 79 q 243 94 242 88 q 280 387 263 240 q 319 679 297 533 q 332 724 322 700 q 356 766 342 747 q 383 788 369 785 q 447 776 410 794 q 503 735 485 758 q 667 520 588 629 q 826 303 746 411 q 866 248 843 281 q 903 193 889 215 l 913 217 q 913 319 913 268 q 911 419 914 369 q 906 622 910 521 q 900 822 901 722 q 910 860 900 842 q 928 896 921 878 q 966 872 946 896 q 996 828 986 849 q 1006 774 1006 803 q 1007 717 1007 744 q 1006 400 1007 558 q 1003 83 1006 242 q 988 42 1003 65 q 960 19 972 19 q 917 30 942 18 q 882 57 893 42 q 705 318 789 192 q 514 567 621 444 q 464 613 490 594 q 419 650 438 632 q 409 567 414 594 q 401 524 404 540 q 395 485 399 507 q 388 419 392 464 q 374 252 379 336 q 363 85 369 168 q 360 60 361 72 q 354 36 358 47 q 339 -12 349 13 q 315 -57 329 -37 q 253 -94 294 -85 q 168 -99 213 -103 q 89 -89 124 -96 z "},"Ṉ":{"ha":925,"x_min":65,"x_max":835,"o":"m 131 8 q 82 34 99 13 q 71 94 65 56 q 108 387 90 240 q 147 679 125 533 q 160 724 150 700 q 183 766 169 747 q 211 788 197 785 q 275 776 238 794 q 331 735 313 758 q 494 520 415 629 q 654 303 574 411 q 694 248 671 281 q 731 193 717 215 l 740 217 q 741 319 740 268 q 739 419 742 369 q 733 622 738 521 q 728 822 729 722 q 738 860 728 842 q 756 896 749 878 q 794 872 774 896 q 824 828 814 849 q 834 774 833 803 q 835 717 835 744 q 834 400 835 558 q 831 83 833 242 q 815 42 831 65 q 788 19 800 19 q 745 30 769 18 q 710 57 721 42 q 533 318 617 192 q 342 567 449 444 q 292 613 318 594 q 247 650 265 632 q 237 567 242 594 q 229 524 232 540 q 223 485 226 507 q 215 419 219 464 q 202 252 207 336 q 190 85 197 168 q 179 30 189 56 q 131 8 169 4 m 379 -233 q 311 -186 329 -225 q 308 -169 310 -181 q 307 -151 307 -158 q 351 -94 322 -117 q 414 -72 381 -72 q 455 -91 438 -72 q 472 -143 472 -110 q 461 -189 472 -167 q 388 -233 449 -210 l 379 -233 z "},"Ñ":{"ha":879,"x_min":65,"x_max":811,"o":"m 192 901 q 166 904 175 893 q 160 935 157 915 q 192 1038 171 989 q 256 1121 214 1088 q 368 1161 297 1154 q 428 1152 400 1164 q 485 1126 456 1140 q 530 1100 515 1110 q 560 1081 544 1090 q 606 1057 575 1072 q 662 1036 640 1042 q 701 1042 683 1031 q 740 1088 718 1054 q 751 1108 746 1097 q 764 1125 756 1119 q 804 1126 785 1135 q 809 1109 807 1125 q 807 1085 811 1093 q 715 970 775 997 q 578 982 656 943 q 531 1007 547 997 q 497 1027 514 1017 q 447 1053 481 1038 q 355 1076 388 1083 q 282 1013 322 1069 q 263 987 268 993 q 255 978 257 981 q 249 969 253 976 q 232 942 244 963 q 192 901 218 915 m 92 -17 q 69 47 65 13 q 85 187 76 117 q 100 326 93 257 q 117 510 110 418 q 135 693 125 601 q 141 735 138 715 q 147 772 144 756 q 228 804 182 821 q 242 794 235 799 q 254 783 250 790 q 310 684 282 733 q 365 585 339 635 q 440 455 401 519 q 525 333 478 390 q 547 304 533 325 q 579 267 561 283 q 615 254 597 251 q 615 360 622 303 q 608 451 608 417 q 615 582 608 517 q 642 711 621 647 q 677 803 658 764 q 724 878 696 843 q 763 882 751 882 q 783 876 775 882 q 801 854 790 869 q 791 833 796 844 q 779 810 786 821 q 729 698 744 757 q 711 576 714 639 q 706 401 707 489 q 714 225 706 314 q 710 174 717 199 q 683 128 704 149 q 597 126 636 111 q 526 176 557 142 q 443 278 483 225 q 364 383 403 331 q 318 454 342 415 q 275 524 294 493 q 237 566 247 561 q 225 557 226 571 q 222 525 224 543 q 209 401 213 446 q 203 326 206 357 q 194 258 200 296 q 174 124 181 182 q 167 15 168 65 q 130 -24 146 -19 q 92 -17 114 -28 z "},"Ŋ":{"ha":957,"x_min":74,"x_max":892,"o":"m 574 -108 q 472 -78 499 -93 q 438 -21 447 -47 q 450 14 428 6 q 544 0 472 22 q 572 9 557 -3 q 597 38 586 21 q 610 69 608 56 l 615 135 q 543 207 576 168 q 479 286 510 246 q 394 401 436 343 q 307 514 351 458 q 292 533 301 522 q 267 536 282 544 q 259 522 264 532 q 253 504 254 511 q 215 291 238 397 q 182 76 192 185 q 172 34 181 54 q 139 4 163 14 q 97 17 113 3 q 74 51 82 31 q 83 151 75 88 q 105 294 92 215 q 133 453 118 374 q 163 601 149 533 q 187 712 176 669 q 200 756 197 754 q 244 768 226 775 q 272 748 263 761 q 282 735 282 735 q 357 618 319 678 q 438 501 394 558 q 521 387 479 444 q 615 278 563 329 q 638 260 629 257 q 651 277 646 263 q 658 309 656 292 q 663 333 661 326 q 699 525 682 429 q 736 715 717 621 q 763 825 747 771 q 794 932 779 879 q 808 958 799 946 q 824 981 817 969 q 856 974 846 978 q 874 963 867 971 q 892 933 881 954 q 890 918 890 926 q 888 904 890 910 q 844 809 858 858 q 822 707 831 760 q 789 485 806 596 q 753 264 772 375 q 738 199 747 231 q 721 135 728 167 l 721 135 q 690 22 708 78 q 657 -56 672 -33 q 574 -108 631 -94 z "},"O":{"ha":938,"x_min":88,"x_max":849,"o":"m 435 -1 q 203 82 293 10 q 100 297 113 154 q 124 591 88 453 q 256 856 160 729 q 349 933 297 911 q 456 951 400 954 q 565 928 513 947 q 694 849 636 903 q 789 722 751 794 q 838 567 826 650 q 825 397 849 483 q 500 18 751 128 q 464 6 482 10 q 435 -1 446 1 m 517 129 q 642 240 588 175 q 727 385 697 306 q 753 551 757 464 q 701 729 749 639 q 556 865 643 844 q 369 803 468 885 q 272 682 306 749 q 223 541 238 615 q 204 388 208 467 q 201 351 203 369 q 200 313 200 332 q 250 156 204 215 q 367 88 296 97 q 517 129 438 79 z "},"Ó":{"ha":878,"x_min":93,"x_max":789,"o":"m 268 793 q 228 818 233 792 q 254 871 222 844 q 340 944 307 915 q 397 997 372 972 q 455 1048 422 1021 q 540 1117 488 1075 q 572 1137 554 1128 q 601 1143 589 1146 q 649 1128 624 1139 q 681 1103 675 1118 q 671 1058 690 1072 q 625 1029 651 1044 q 567 997 586 1007 q 538 981 549 988 q 509 964 526 975 q 454 926 492 953 q 387 879 414 899 q 333 841 360 860 q 268 793 307 822 m 368 -25 q 263 -8 308 -32 q 186 64 218 15 q 118 201 143 129 q 99 354 93 272 q 110 422 104 388 q 124 489 117 456 q 158 587 136 542 q 232 665 179 632 q 306 724 272 689 q 379 786 339 760 q 510 819 447 826 q 624 753 572 813 q 722 618 682 689 q 775 468 761 547 q 767 299 789 389 q 672 130 740 197 q 517 15 603 63 q 444 -11 482 -3 q 368 -25 406 -19 m 426 81 q 549 157 499 107 q 631 274 599 207 q 674 474 683 374 q 604 667 664 574 q 529 727 569 719 q 436 703 489 735 q 286 544 335 639 q 219 335 238 449 q 238 222 218 275 q 292 121 258 168 q 350 70 324 78 q 426 81 376 63 z "},"Ǒ":{"ha":850,"x_min":69,"x_max":757,"o":"m 406 954 q 345 979 374 963 q 297 1033 317 996 q 269 1095 281 1069 q 253 1136 258 1121 q 242 1169 242 1167 q 259 1201 242 1189 q 304 1214 276 1214 l 350 1117 q 421 1039 369 1061 q 563 1164 515 1114 q 583 1185 567 1169 q 618 1217 599 1201 q 649 1232 638 1232 q 674 1193 674 1218 q 656 1154 674 1171 q 490 988 536 1049 q 406 954 450 942 m 497 32 q 411 22 454 19 q 328 43 368 24 q 131 222 193 108 q 115 507 69 335 q 166 626 132 572 q 253 721 200 681 l 351 796 q 352 846 354 824 q 365 878 350 868 l 410 907 q 451 913 431 921 q 492 885 472 904 q 530 842 511 865 q 565 803 549 819 q 699 608 650 714 q 753 375 747 503 q 717 210 757 281 q 617 94 678 139 q 497 32 557 50 m 453 101 q 561 149 510 119 q 629 239 613 179 l 663 363 q 663 482 679 424 q 613 595 646 540 q 546 700 581 650 q 515 733 532 719 q 467 746 499 746 q 376 719 418 746 q 300 653 335 693 q 236 569 265 613 q 200 489 208 532 q 196 385 188 433 q 226 289 204 336 q 274 190 247 242 q 305 141 285 168 q 364 110 325 114 l 453 101 z "},"Ô":{"ha":853,"x_min":94,"x_max":771,"o":"m 636 935 q 593 958 618 935 q 543 1014 568 981 q 500 1079 518 1047 q 444 1086 476 1126 q 431 1076 446 1089 q 394 1041 417 1063 q 348 998 371 1019 q 310 962 325 976 q 296 947 294 947 q 269 948 285 943 q 244 961 254 953 q 238 979 239 964 q 244 1001 238 994 q 283 1041 267 1025 q 315 1072 300 1057 q 351 1107 331 1088 q 401 1156 371 1126 q 485 1199 451 1203 q 554 1139 519 1196 q 583 1098 572 1111 q 603 1076 594 1085 q 623 1053 613 1067 q 649 1013 633 1040 q 657 994 654 1004 q 665 969 660 985 q 651 947 658 960 q 636 935 643 935 m 361 3 q 185 90 249 -8 q 137 191 157 133 q 107 309 117 249 q 100 422 97 369 q 97 531 94 492 q 107 603 100 571 q 141 699 119 654 q 213 772 163 743 q 285 833 251 797 q 357 892 318 868 q 594 863 493 975 q 725 652 679 768 q 750 369 771 536 q 706 239 742 303 q 617 124 669 175 q 507 43 564 74 q 436 16 474 25 q 361 3 399 7 m 406 88 q 501 145 453 106 q 585 233 549 185 q 635 326 621 282 q 655 553 672 457 q 581 738 638 649 q 500 810 547 789 q 401 801 453 831 q 248 633 301 739 q 207 385 194 528 q 215 296 206 344 q 240 203 224 247 q 278 128 257 158 q 333 79 308 86 q 406 88 357 72 z "},"Ố":{"ha":875,"x_min":69,"x_max":782,"o":"m 592 993 q 582 1016 583 1003 q 589 1040 581 1029 q 621 1083 606 1061 q 651 1126 636 1104 q 683 1168 667 1147 q 715 1210 700 1189 q 750 1219 731 1229 q 776 1190 771 1210 q 765 1154 782 1171 q 700 1084 728 1122 q 642 1010 672 1046 q 618 990 635 997 q 592 993 601 982 m 600 844 q 566 863 586 844 q 526 907 546 881 q 492 960 506 933 q 447 965 472 997 q 437 957 449 968 q 406 929 425 946 q 369 895 388 913 q 340 866 351 878 q 329 854 328 854 q 308 855 319 851 q 288 865 296 858 q 283 881 283 868 q 288 897 282 893 q 319 929 306 917 q 344 953 332 942 q 372 981 356 965 q 414 1021 388 997 q 480 1056 453 1058 q 535 1007 507 1053 q 558 974 549 985 q 574 957 567 964 q 589 940 581 950 q 610 907 597 929 q 617 892 614 900 q 624 872 619 883 q 612 855 618 865 q 600 844 606 844 m 497 4 q 411 -6 454 -8 q 328 15 368 -4 q 131 194 193 81 q 115 479 69 307 q 166 599 132 544 q 253 693 200 653 l 351 768 q 352 818 354 796 q 365 850 350 840 l 410 879 q 451 885 431 893 q 492 857 472 876 q 530 815 511 838 q 565 775 549 792 q 699 581 650 686 q 753 347 747 475 q 717 182 757 253 q 617 67 678 111 q 497 4 557 22 m 453 74 q 561 122 510 92 q 629 211 613 151 l 663 335 q 663 454 679 396 q 613 567 646 513 q 546 672 581 622 q 515 705 532 692 q 467 718 499 718 q 376 692 418 718 q 300 625 335 665 q 236 542 265 585 q 200 461 208 504 q 196 357 188 406 q 226 261 204 308 q 274 163 247 214 q 305 113 285 140 q 364 82 325 86 l 453 74 z "},"Ộ":{"ha":850,"x_min":69,"x_max":757,"o":"m 629 857 q 581 883 610 857 q 524 946 553 908 q 476 1019 496 983 q 413 1028 449 1072 q 398 1015 415 1031 q 355 976 381 1000 q 303 927 329 951 q 261 886 278 903 q 246 871 244 869 q 216 872 233 867 q 188 886 199 876 q 181 907 182 889 q 188 932 181 925 q 232 976 214 958 q 267 1012 250 994 q 308 1051 285 1029 q 365 1106 331 1072 q 460 1155 422 1158 q 538 1086 497 1151 q 569 1041 557 1056 q 592 1016 582 1026 q 613 991 601 1006 q 643 944 625 976 q 653 924 650 935 q 663 896 657 913 q 646 872 654 886 q 629 857 638 857 m 497 4 q 411 -6 454 -8 q 328 15 368 -4 q 131 194 193 81 q 115 479 69 307 q 166 599 132 544 q 253 693 200 653 l 351 768 q 352 818 354 796 q 365 850 350 840 l 410 879 q 451 885 431 893 q 492 857 472 876 q 530 815 511 838 q 565 775 549 792 q 699 581 650 686 q 753 347 747 475 q 717 182 757 253 q 617 67 678 111 q 497 4 557 22 m 453 74 q 561 122 510 92 q 629 211 613 151 l 663 335 q 663 454 679 396 q 613 567 646 513 q 546 672 581 622 q 515 705 532 692 q 467 718 499 718 q 376 692 418 718 q 300 625 335 665 q 236 542 265 585 q 200 461 208 504 q 196 357 188 406 q 226 261 204 308 q 274 163 247 214 q 305 113 285 140 q 364 82 325 86 l 453 74 m 408 -243 q 347 -200 364 -235 q 346 -186 347 -196 q 344 -169 344 -176 q 384 -119 358 -139 q 440 -99 410 -99 q 476 -115 461 -99 q 492 -162 492 -132 q 482 -203 492 -183 q 417 -243 471 -222 l 408 -243 z "},"Ồ":{"ha":850,"x_min":69,"x_max":757,"o":"m 617 836 q 576 858 600 836 q 530 910 553 879 q 490 971 507 942 q 438 978 468 1015 q 426 968 440 981 q 391 935 413 956 q 348 895 369 915 q 313 861 326 875 q 300 849 299 847 q 276 849 290 844 q 251 861 261 853 q 247 878 247 864 q 251 899 246 893 q 288 935 274 921 q 317 965 303 950 q 351 997 332 979 q 399 1042 369 1015 q 477 1083 446 1086 q 542 1026 508 1079 q 567 989 557 1001 q 586 968 578 976 q 604 947 594 960 q 629 910 614 935 q 636 892 633 901 q 644 869 639 883 q 631 848 638 860 q 617 836 624 836 m 661 1063 q 615 1072 636 1057 l 585 1093 q 508 1147 539 1125 q 460 1182 476 1169 q 437 1207 446 1192 q 425 1235 428 1222 q 424 1244 425 1243 q 424 1244 422 1244 q 432 1253 425 1244 q 453 1254 438 1257 q 476 1247 468 1251 q 633 1157 592 1186 q 683 1115 676 1126 q 686 1075 696 1083 q 661 1063 676 1067 m 497 4 q 411 -6 454 -8 q 328 15 368 -4 q 131 194 193 81 q 115 479 69 307 q 166 599 132 544 q 253 693 200 653 l 351 768 q 352 818 354 796 q 365 850 350 840 l 410 879 q 451 885 431 893 q 492 857 472 876 q 530 815 511 838 q 565 775 549 792 q 699 581 650 686 q 753 347 747 475 q 717 182 757 253 q 617 67 678 111 q 497 4 557 22 m 453 74 q 561 122 510 92 q 629 211 613 151 l 663 335 q 663 454 679 396 q 613 567 646 513 q 546 672 581 622 q 515 705 532 692 q 467 718 499 718 q 376 692 418 718 q 300 625 335 665 q 236 542 265 585 q 200 461 208 504 q 196 357 188 406 q 226 261 204 308 q 274 163 247 214 q 305 113 285 140 q 364 82 325 86 l 453 74 z "},"Ổ":{"ha":850,"x_min":69,"x_max":757,"o":"m 615 956 q 610 1010 589 989 q 653 1096 635 1036 q 649 1139 663 1119 q 613 1167 636 1158 q 571 1167 590 1175 q 505 1163 525 1156 q 485 1188 485 1171 q 499 1219 485 1206 q 533 1229 507 1226 q 592 1229 560 1232 q 656 1215 625 1226 q 706 1181 688 1203 q 722 1101 728 1129 q 697 1019 725 1061 q 615 956 669 976 m 586 860 q 552 878 572 860 q 512 922 532 896 q 478 975 492 949 q 433 981 458 1013 q 423 972 435 983 q 392 944 411 961 q 356 910 374 928 q 326 881 338 893 q 315 869 314 869 q 294 870 306 867 q 274 881 282 874 q 269 896 269 883 q 274 913 268 908 q 305 944 292 932 q 330 969 318 957 q 358 997 342 981 q 400 1036 374 1013 q 466 1071 439 1074 q 521 1022 493 1068 q 544 990 535 1000 q 560 972 553 979 q 575 955 567 965 q 596 922 583 944 q 603 907 600 915 q 610 888 606 899 q 598 870 604 881 q 586 860 592 860 m 497 4 q 411 -6 454 -8 q 328 15 368 -4 q 131 194 193 81 q 115 479 69 307 q 166 599 132 544 q 253 693 200 653 l 351 768 q 352 818 354 796 q 365 850 350 840 l 410 879 q 451 885 431 893 q 492 857 472 876 q 530 815 511 838 q 565 775 549 792 q 699 581 650 686 q 753 347 747 475 q 717 182 757 253 q 617 67 678 111 q 497 4 557 22 m 453 74 q 561 122 510 92 q 629 211 613 151 l 663 335 q 663 454 679 396 q 613 567 646 513 q 546 672 581 622 q 515 705 532 692 q 467 718 499 718 q 376 692 418 718 q 300 625 335 665 q 236 542 265 585 q 200 461 208 504 q 196 357 188 406 q 226 261 204 308 q 274 163 247 214 q 305 113 285 140 q 364 82 325 86 l 453 74 z "},"Ỗ":{"ha":850,"x_min":69,"x_max":757,"o":"m 572 851 q 535 872 557 851 q 491 921 513 892 q 454 979 469 950 q 404 985 432 1019 q 392 976 406 988 q 360 945 379 964 q 320 907 340 926 q 287 875 300 888 q 275 863 274 863 q 251 864 265 860 q 229 875 238 868 q 224 891 224 878 q 229 911 224 904 q 263 945 249 931 q 291 973 278 960 q 322 1003 304 986 q 367 1046 340 1019 q 440 1084 411 1088 q 501 1031 469 1081 q 526 995 517 1007 q 544 976 536 983 q 560 956 551 968 q 583 921 569 944 q 592 904 589 913 q 599 882 594 896 q 585 863 592 874 q 572 851 579 851 m 267 1119 q 247 1137 256 1122 q 240 1168 238 1151 q 304 1263 257 1226 q 340 1276 325 1278 q 368 1262 354 1275 q 401 1228 382 1249 q 419 1206 413 1218 q 438 1185 425 1194 q 482 1171 463 1167 q 515 1192 501 1175 q 538 1228 529 1208 q 566 1251 554 1254 q 581 1226 578 1247 q 578 1178 585 1204 q 550 1135 571 1151 q 502 1110 532 1119 q 446 1110 472 1100 q 403 1141 422 1118 q 367 1182 383 1164 q 338 1204 350 1203 q 310 1185 325 1206 q 294 1152 299 1169 q 284 1124 289 1135 q 267 1119 279 1114 m 497 4 q 411 -6 454 -8 q 328 15 368 -4 q 131 194 193 81 q 115 479 69 307 q 166 599 132 544 q 253 693 200 653 l 351 768 q 352 818 354 796 q 365 850 350 840 l 410 879 q 451 885 431 893 q 492 857 472 876 q 530 815 511 838 q 565 775 549 792 q 699 581 650 686 q 753 347 747 475 q 717 182 757 253 q 617 67 678 111 q 497 4 557 22 m 453 74 q 561 122 510 92 q 629 211 613 151 l 663 335 q 663 454 679 396 q 613 567 646 513 q 546 672 581 622 q 515 705 532 692 q 467 718 499 718 q 376 692 418 718 q 300 625 335 665 q 236 542 265 585 q 200 461 208 504 q 196 357 188 406 q 226 261 204 308 q 274 163 247 214 q 305 113 285 140 q 364 82 325 86 l 453 74 z "},"Ö":{"ha":854,"x_min":96,"x_max":772,"o":"m 282 967 q 226 990 263 968 l 194 1004 q 208 1031 201 1015 q 224 1064 215 1046 q 277 1058 251 1067 q 324 1003 303 1050 q 306 978 321 990 q 282 967 290 967 m 647 953 q 610 960 626 951 q 561 990 594 968 q 555 994 564 988 q 528 1014 546 1000 q 549 1024 539 1018 q 567 1036 558 1031 q 619 1060 604 1058 q 665 1045 646 1060 q 686 1003 683 1031 q 676 967 688 981 q 647 953 665 954 m 363 3 q 186 90 250 -8 q 138 191 158 133 q 108 309 118 249 q 101 422 99 369 q 99 531 96 492 q 108 603 101 571 q 142 699 121 654 q 214 772 164 743 q 286 833 253 797 q 358 892 319 868 q 596 863 494 975 q 726 652 681 768 q 751 369 772 536 q 707 239 743 303 q 618 124 671 175 q 508 43 565 74 q 438 16 475 25 q 363 3 400 7 m 407 88 q 502 145 454 106 q 586 233 550 185 q 636 326 622 282 q 656 553 674 457 q 582 738 639 649 q 501 810 549 789 q 403 801 454 831 q 249 633 303 739 q 208 385 196 528 q 216 296 207 344 q 242 203 225 247 q 279 128 258 158 q 334 79 310 86 q 407 88 358 72 z "},"Ȫ":{"ha":938,"x_min":132,"x_max":819,"o":"m 315 910 q 260 932 296 911 l 228 946 q 241 972 235 957 q 256 1006 247 988 q 309 1001 283 1010 q 357 946 335 993 q 339 922 354 933 q 315 910 324 910 m 681 903 q 644 908 660 900 q 594 938 628 917 q 588 942 597 936 q 560 961 579 947 q 581 972 571 967 q 600 985 590 978 q 651 1008 636 1007 q 697 995 678 1010 q 719 953 715 981 q 710 917 721 931 q 681 903 699 904 m 390 1101 q 224 1140 253 1096 q 360 1193 189 1185 q 370 1193 360 1193 q 401 1194 381 1193 q 481 1190 443 1197 q 531 1184 510 1186 q 563 1183 551 1182 q 622 1192 590 1185 q 683 1203 654 1200 q 732 1194 713 1207 q 704 1111 778 1139 q 658 1106 685 1108 q 600 1106 632 1104 q 549 1106 568 1106 q 526 1104 531 1106 q 445 1106 479 1107 q 390 1101 411 1104 m 560 13 q 474 2 517 0 q 390 24 431 4 q 194 202 256 89 q 178 488 132 315 q 228 607 194 553 q 315 701 263 661 l 414 776 q 415 826 417 804 q 428 858 413 849 l 472 888 q 514 893 493 901 q 554 865 535 885 q 592 823 574 846 q 628 783 611 800 q 761 589 713 694 q 815 356 810 483 q 780 190 819 261 q 680 75 740 119 q 560 13 619 31 m 515 82 q 624 130 572 100 q 692 219 675 160 l 725 343 q 725 463 742 404 q 676 576 708 521 q 608 681 643 631 q 578 713 594 700 q 529 726 561 726 q 439 700 481 726 q 363 633 397 674 q 299 550 328 593 q 263 469 271 513 q 258 365 250 414 q 288 269 267 317 q 336 171 310 222 q 367 122 347 149 q 426 90 388 94 l 515 82 z "},"Ọ":{"ha":833,"x_min":69,"x_max":757,"o":"m 497 78 q 411 67 454 65 q 328 89 368 69 q 131 267 193 154 q 115 553 69 381 q 166 672 132 618 q 253 767 200 726 l 351 842 q 352 892 354 869 q 365 924 350 914 l 410 953 q 451 958 431 967 q 492 931 472 950 q 530 888 511 911 q 565 849 549 865 q 699 654 650 760 q 753 421 747 549 q 717 256 757 326 q 617 140 678 185 q 497 78 557 96 m 453 147 q 561 195 510 165 q 629 285 613 225 l 663 408 q 663 528 679 469 q 613 641 646 586 q 546 746 581 696 q 515 778 532 765 q 467 792 499 792 q 376 765 418 792 q 300 699 335 739 q 236 615 265 658 q 200 535 208 578 q 196 431 188 479 q 226 335 204 382 q 274 236 247 288 q 305 187 285 214 q 364 156 325 160 l 453 147 m 436 -244 q 376 -204 393 -237 q 375 -190 376 -199 q 374 -174 374 -181 q 413 -125 388 -144 q 465 -106 438 -106 q 501 -122 486 -106 q 517 -167 517 -137 q 507 -206 517 -187 q 443 -244 496 -225 l 436 -244 z "},"Ò":{"ha":813,"x_min":96,"x_max":735,"o":"m 635 903 q 575 910 604 893 l 532 935 q 426 996 468 971 q 360 1035 383 1021 q 328 1064 342 1046 q 310 1099 315 1082 q 308 1110 310 1110 q 307 1112 306 1111 q 317 1124 308 1113 q 344 1128 324 1129 q 375 1121 364 1126 q 506 1064 453 1089 q 589 1022 560 1039 q 658 974 646 989 q 666 922 678 933 q 635 903 654 910 m 342 -14 q 176 68 236 -25 q 133 162 151 108 q 105 272 114 215 q 99 376 96 328 q 109 439 104 408 q 119 500 114 469 q 151 590 131 549 q 218 658 171 631 q 285 715 254 682 q 353 769 317 747 q 574 742 479 847 q 694 552 653 654 q 703 328 735 450 q 654 207 688 267 q 576 99 621 147 q 476 24 531 51 q 411 -1 446 7 q 342 -14 376 -10 m 382 76 q 460 131 426 93 q 521 213 494 168 q 567 297 547 258 q 603 476 613 388 q 542 647 594 564 q 476 702 511 696 q 393 679 442 708 q 258 538 301 624 q 200 351 215 453 q 206 270 199 315 q 229 183 214 225 q 265 114 244 142 q 315 69 293 75 q 382 76 338 63 z "},"Ỏ":{"ha":850,"x_min":69,"x_max":757,"o":"m 497 32 q 411 22 454 19 q 328 43 368 24 q 131 222 193 108 q 115 507 69 335 q 166 626 132 572 q 253 721 200 681 l 351 796 q 352 846 354 824 q 365 878 350 868 l 410 907 q 451 913 431 921 q 492 885 472 904 q 530 842 511 865 q 565 803 549 819 q 699 608 650 714 q 753 375 747 503 q 717 210 757 281 q 617 94 678 139 q 497 32 557 50 m 453 101 q 561 149 510 119 q 629 239 613 179 l 663 363 q 663 482 679 424 q 613 595 646 540 q 546 700 581 650 q 515 733 532 719 q 467 746 499 746 q 376 719 418 746 q 300 653 335 693 q 236 569 265 613 q 200 489 208 532 q 196 385 188 433 q 226 289 204 336 q 274 190 247 242 q 305 141 285 168 q 364 110 325 114 l 453 101 m 563 888 q 556 953 531 928 q 608 1057 586 985 q 603 1109 619 1086 q 560 1142 588 1132 q 510 1143 533 1153 q 430 1139 454 1129 q 406 1169 406 1149 q 422 1207 406 1190 q 465 1219 433 1215 q 535 1218 496 1222 q 613 1201 575 1214 q 672 1160 650 1188 q 692 1064 699 1097 q 662 964 696 1015 q 563 888 628 913 z "},"Ơ":{"ha":938,"x_min":69,"x_max":835,"o":"m 665 657 q 594 674 626 661 q 550 724 561 686 q 604 760 538 778 q 672 729 632 751 q 715 732 693 722 q 742 747 732 738 q 754 781 753 756 l 760 896 q 771 910 760 897 q 798 930 782 922 q 825 921 814 938 q 833 872 832 910 q 831 791 835 833 q 818 722 828 749 l 804 697 q 746 660 799 688 q 665 657 690 649 m 497 32 q 411 22 454 19 q 328 43 368 24 q 131 222 193 108 q 115 507 69 335 q 166 626 132 572 q 253 721 200 681 l 351 796 q 352 846 354 824 q 365 878 350 868 l 410 907 q 451 913 431 921 q 492 885 472 904 q 530 842 511 865 q 565 803 549 819 q 699 608 650 714 q 753 375 747 503 q 717 210 757 281 q 617 94 678 139 q 497 32 557 50 m 453 101 q 561 149 510 119 q 629 239 613 179 l 663 363 q 663 482 679 424 q 613 595 646 540 q 546 700 581 650 q 515 733 532 719 q 467 746 499 746 q 376 719 418 746 q 300 653 335 693 q 236 569 265 613 q 200 489 208 532 q 196 385 188 433 q 226 289 204 336 q 274 190 247 242 q 305 141 285 168 q 364 110 325 114 l 453 101 z "},"Ớ":{"ha":938,"x_min":69,"x_max":835,"o":"m 665 657 q 594 674 626 661 q 550 724 561 686 q 604 760 538 778 q 672 729 632 751 q 715 732 693 722 q 742 747 732 738 q 754 781 753 756 l 760 896 q 771 910 760 897 q 798 930 782 922 q 825 921 814 938 q 833 872 832 910 q 831 791 835 833 q 818 722 828 749 l 804 697 q 746 660 799 688 q 665 657 690 649 m 497 32 q 411 22 454 19 q 328 43 368 24 q 131 222 193 108 q 115 507 69 335 q 166 626 132 572 q 253 721 200 681 l 351 796 q 352 846 354 824 q 365 878 350 868 l 410 907 q 451 913 431 921 q 492 885 472 904 q 530 842 511 865 q 565 803 549 819 q 699 608 650 714 q 753 375 747 503 q 717 210 757 281 q 617 94 678 139 q 497 32 557 50 m 453 101 q 561 149 510 119 q 629 239 613 179 l 663 363 q 663 482 679 424 q 613 595 646 540 q 546 700 581 650 q 515 733 532 719 q 467 746 499 746 q 376 719 418 746 q 300 653 335 693 q 236 569 265 613 q 200 489 208 532 q 196 385 188 433 q 226 289 204 336 q 274 190 247 242 q 305 141 285 168 q 364 110 325 114 l 453 101 m 265 868 q 256 903 254 883 q 272 935 258 922 q 330 990 303 963 q 385 1044 357 1017 q 442 1097 413 1071 q 499 1150 471 1122 q 551 1154 526 1172 q 582 1106 579 1136 q 557 1056 585 1075 q 445 972 494 1019 q 342 879 396 924 q 303 856 329 863 q 265 868 276 849 z "},"Ợ":{"ha":938,"x_min":69,"x_max":835,"o":"m 665 657 q 594 674 626 661 q 550 724 561 686 q 604 760 538 778 q 672 729 632 751 q 715 732 693 722 q 742 747 732 738 q 754 781 753 756 l 760 896 q 771 910 760 897 q 798 930 782 922 q 825 921 814 938 q 833 872 832 910 q 831 791 835 833 q 818 722 828 749 l 804 697 q 746 660 799 688 q 665 657 690 649 m 497 32 q 411 22 454 19 q 328 43 368 24 q 131 222 193 108 q 115 507 69 335 q 166 626 132 572 q 253 721 200 681 l 351 796 q 352 846 354 824 q 365 878 350 868 l 410 907 q 451 913 431 921 q 492 885 472 904 q 530 842 511 865 q 565 803 549 819 q 699 608 650 714 q 753 375 747 503 q 717 210 757 281 q 617 94 678 139 q 497 32 557 50 m 453 101 q 561 149 510 119 q 629 239 613 179 l 663 363 q 663 482 679 424 q 613 595 646 540 q 546 700 581 650 q 515 733 532 719 q 467 746 499 746 q 376 719 418 746 q 300 653 335 693 q 236 569 265 613 q 200 489 208 532 q 196 385 188 433 q 226 289 204 336 q 274 190 247 242 q 305 141 285 168 q 364 110 325 114 l 453 101 m 438 -212 q 403 -235 422 -231 q 356 -210 383 -240 q 352 -178 351 -199 q 368 -149 353 -157 q 386 -138 376 -142 q 406 -135 396 -135 l 432 -149 q 438 -212 451 -176 z "},"Ờ":{"ha":938,"x_min":69,"x_max":835,"o":"m 665 657 q 594 674 626 661 q 550 724 561 686 q 604 760 538 778 q 672 729 632 751 q 715 732 693 722 q 742 747 732 738 q 754 781 753 756 l 760 896 q 771 910 760 897 q 798 930 782 922 q 825 921 814 938 q 833 872 832 910 q 831 791 835 833 q 818 722 828 749 l 804 697 q 746 660 799 688 q 665 657 690 649 m 497 32 q 411 22 454 19 q 328 43 368 24 q 131 222 193 108 q 115 507 69 335 q 166 626 132 572 q 253 721 200 681 l 351 796 q 352 846 354 824 q 365 878 350 868 l 410 907 q 451 913 431 921 q 492 885 472 904 q 530 842 511 865 q 565 803 549 819 q 699 608 650 714 q 753 375 747 503 q 717 210 757 281 q 617 94 678 139 q 497 32 557 50 m 453 101 q 561 149 510 119 q 629 239 613 179 l 663 363 q 663 482 679 424 q 613 595 646 540 q 546 700 581 650 q 515 733 532 719 q 467 746 499 746 q 376 719 418 746 q 300 653 335 693 q 236 569 265 613 q 200 489 208 532 q 196 385 188 433 q 226 289 204 336 q 274 190 247 242 q 305 141 285 168 q 364 110 325 114 l 453 101 m 379 949 q 319 961 347 942 l 279 989 q 179 1060 219 1031 q 117 1104 139 1089 q 88 1136 100 1117 q 72 1172 76 1156 q 71 1184 72 1183 q 71 1185 69 1185 q 81 1196 72 1186 q 108 1198 89 1201 q 139 1189 128 1194 q 343 1072 289 1110 q 408 1017 399 1031 q 412 965 425 975 q 379 949 399 954 z "}}}
